<svg xmlns="http://www.w3.org/2000/svg" viewBox="0 0 172.8 108"><style>.st0{fill-rule:evenodd;clip-rule:evenodd}</style><g id="Layer_1"><path d="M98 62z"/></g><g id="bread"><path class="st0" d="M123.3 78.1c-.1-.2-.1-.4-.1-.6 0-.3 0-.5-.1-.8v-.8-1.1c.9.3 1.7.3 2.5 0 .9-.4 1.6-1.1 1.7-2.1.1-.5.1-1-.1-1.5-.1-.4-.3-.7-.6-.9-.3-.2-.6-.4-1-.5-.4-.1-.7-.1-1.1-.1-.7.1-1.3.1-2 .2-.5 0-.8.1-1.3.1-.2 0-.3.1-.3.3 0 .1 0 .1.1.2v.1c.1.2.1.4.1.6v4.9c0 .6 0 1-.1 1.6 0 .2-.1.4-.1.6 0 .1 0 .1-.1.1-.1.1-.1.3 0 .4.1.1.1.1.2.1.7 0 1.3-.1 1.9-.1.2 0 .3-.1.3-.3.2-.2.2-.3.1-.4 0 .1 0 0 0 0zm-.2-3.8V72c0-.3 0-.6.1-1 .5-.1.9-.1 1.3-.1.2 0 .4.1.6.2.1.1.2.3.3.4.1.3.1.7.1 1-.1.7-.5 1.3-1.2 1.5-.3.1-.6.2-.9.2-.2.1-.3.1-.3.1zm5.6 3.6v-.3c.1-.6.3-1 .5-1.5l.6-1.3h3c.5 1.2.9 2.3 1.3 3.5 0 .1.1.2.3.2.5 0 1 0 1.5.1.2 0 .3-.1.3-.3 0-.1 0-.1-.1-.2-.2-.2-.3-.4-.4-.7-.3-.5-.5-1-.7-1.5-.9-2.1-1.6-4-2.3-6.2 0-.1-.1-.2-.3-.2h-1.8c-.2 0-.3.1-.3.3v.1c0 .1.1.2.1.3 0 .1 0 .2-.1.3-.4 1.2-.8 2.1-1.3 3.2-.4 1-.9 1.7-1.4 2.6-.4.7-.8 1.2-1.3 1.8-.1.1-.1.3 0 .4.1.1.1.1.2.1.7 0 1.2 0 1.9-.1.2 0 .3-.1.3-.3v-.1c.1-.1 0-.2 0-.2zm1.6-4.2c.4-.8.7-1.5 1.1-2.4.3.8.6 1.5.9 2.4h-2zM29.7 75.3c.6.4 1.2.7 1.9 1 .4.1.8.2 1.2.2.4 0 .7-.1 1-.3.3-.2.5-.4.6-.7.1-.3.2-.6.2-.9 0-.4-.1-.8-.2-1.2-.2-.4-.3-.8-.6-1.1-.4-.5-.8-1-1.3-1.4.5 0 .8-.1 1.2-.4.2-.2.4-.4.4-.7.1-.5.1-.9-.1-1.4-.3-.7-.7-1.2-1.4-1.7-.3-.3-.6-.5-1-.7-.5-.3-.9-.5-1.4-.7-1-.5-1.7-1-2.6-1.6-.1-.1-.3 0-.4.1-.1.1-.1.2 0 .3.1.2.1.3.2.5.1.4.1.7.1 1V71.5c0 .4 0 .7-.1 1 0 .2 0 .4-.1.5v.1c-.1.1-.2.3-.1.4l.1.1c.8.7 1.5 1.1 2.4 1.7zm-.4-8.7v-.5c.2.1.3.2.5.3.5.2.8.5 1.2.8.2.2.4.4.6.7.3.4.4.8.3 1.3 0 .1 0 .2-.1.3-.1.1-.2.2-.4.3H31c-.4-.1-.7-.2-1-.4-.3-.1-.5-.3-.8-.4.1-.9.1-1.6.1-2.4zm0 3.5c.2.1.3.2.5.3.6.3 1 .6 1.4 1.1.3.3.5.6.7.9.4.7.5 1.4.3 2.1-.1.2-.2.3-.4.4-.2.1-.4.1-.7 0-.6-.2-1.1-.5-1.6-.9l-.3-.3v-.1-.4c-.1-.7-.1-1.2-.1-1.9v-1.2h.2zm7.6 7.2v-.4c.1-.3.1-.5.3-.8.2-.5.4-.9.7-1.5 1 .3 1.8.6 2.8.9.5 1.4.9 2.6 1.3 4 0 .1.1.2.2.2.5.1 1 .2 1.5.4.2 0 .3-.1.3-.2v-.2c-.2-.3-.3-.5-.4-.8-.6-1.4-1.1-2.6-1.6-4.1-.5-1.6-.9-3-1.4-4.7 0-.1-.1-.2-.2-.2-.6-.2-1.1-.3-1.7-.5-.2 0-.3 0-.4.2v.2c0 .1.1.2.1.3 0 .1 0 .2-.1.2-.3 1.1-.7 1.9-1.2 2.9-.4.8-.8 1.5-1.2 2.3-.3.5-.7.9-1.1 1.3-.1.1-.1.3 0 .4l.1.1c.6.2 1.1.4 1.7.7.1.1.3 0 .4-.2v-.2c-.1 0-.1-.2-.1-.3zm1.4-3.6l1-2.1c.3 1 .6 1.8.9 2.7-.7-.2-1.2-.4-1.9-.6zm9 2.1c.3-.1.5-.2.7-.3.8-.6 1.5-1.1 2.2-1.7.1-.1.3-.3.3-.4v-.2-.2c0-.2.2-.3.3-.2.7.1 1.3.2 2.1.3.1 0 .2.1.2.2.1.1 0 .3-.2.4-.3.2-.6.3-.9.5-1.2.8-2.2 1.5-3.3 2.4.8 1.1 1.5 2.1 2.3 3.2.3.4.5.7.8 1.1.2.3.4.5.7.7.1.1.1.2.1.3 0 .2-.2.3-.3.3-.5-.1-1-.1-1.5-.2-.3 0-.6-.2-.8-.5l-2.7-4.1V80c0 .2 0 .5.1.7 0 .1.1.2.1.3.1.1.1.2.1.2 0 .2-.2.3-.3.2-.7-.1-1.3-.3-2-.4-.1 0-.1-.1-.2-.1-.1-.1-.1-.3.1-.4v-.1c.1-.2.1-.3.1-.5 0-.3.1-.6.1-.9v-.7-3.4-1.2c0-.3 0-.6-.1-.9 0-.1-.1-.2-.1-.3-.1-.1-.1-.2-.1-.2 0-.2.2-.3.3-.2.7.2 1.3.3 2 .4.1 0 .1 0 .2.1s.1.3 0 .4c0 0 0 .1-.1.1-.1.1-.1.3-.1.4 0 .3-.1.5-.1.8v1.5zm9.6 6c0 .1.1.2.1.3.1.1.1.1.1.2 0 .2-.2.3-.3.3-.7-.1-1.3-.2-2.1-.3-.1 0-.1 0-.2-.1s-.1-.3 0-.4c0 0 0-.1.1-.1.1-.2.1-.3.1-.5 0-.3 0-.6.1-.9v-.7-3.3-1.2c0-.3 0-.5-.1-.8 0-.1-.1-.2-.1-.3-.1-.1-.1-.1-.1-.2 0-.2.2-.3.3-.2.7.1 1.3.2 2.1.3.1 0 .1 0 .2.1s.1.3 0 .4l-.1.1c-.1.2-.1.3-.1.5 0 .3-.1.6-.1.9v5.4c0 .1.1.3.1.5zm4.4-5.6v3.4c0 .6 0 1.1.1 1.6 0 .4.1.7.2 1 0 .2.1.3.2.4 0 .1.1.1.1.2 0 .2-.1.3-.3.3-.6 0-1.2-.1-1.8-.1-.1 0-.1 0-.2-.1s-.1-.3 0-.4c.1-.1.1-.2.2-.3.1-.3.2-.6.2-1 .1-1.6.2-3 .1-4.7 0-.5 0-.8-.1-1.3 0-.1-.1-.3-.1-.4 0-.1-.1-.2-.2-.2-.1-.1-.1-.2-.1-.3 0-.2.2-.3.3-.3.6 0 1 .1 1.6.1.2 0 .3.1.5.2s.4.3.5.5c.1.2.3.3.4.5 1.1 1.4 2 2.6 3.1 4l1.2 1.5v-4.1-.9c0-.2-.1-.4-.1-.7 0-.1-.1-.2-.2-.3-.1-.1-.1-.1-.1-.2 0-.2.1-.3.3-.3h1.5c.1 0 .2 0 .2.1.1.1.1.3 0 .4v.1c-.1.2-.1.4-.1.6 0 .3 0 .6-.1 1V83c0 .2-.1.3-.3.3h-1c-.1 0-.2 0-.2-.1-.2-.2-.3-.4-.5-.6l-.6-.5c-1.7-2.1-3.1-3.8-4.7-5.9zm16.2 2.9c0-.1-.1-.1-.1-.2-.1-.1-.1-.1-.1-.2 0-.2.1-.3.3-.3.7 0 1.4-.1 2.1-.1.1 0 .1 0 .2.1s.1.3 0 .4c-.1.2-.2.4-.2.6-.1 1-.1 1.8 0 2.7 0 .2 0 .3.1.5v.1c0 .2-.1.3-.3.3-.7.1-1.3.2-2 .2-.6.1-1 .1-1.6.2h-1.1c-.8 0-1.4-.2-2.1-.5-.3-.1-.6-.3-.9-.5-.8-.6-1.3-1.4-1.4-2.4-.1-.7-.1-1.3.1-1.9.2-1 .8-1.8 1.6-2.4.8-.6 1.5-.9 2.4-1.1.8-.2 1.5-.3 2.3-.3h2.5c.2 0 .3.1.3.3V76c0 .1 0 .1-.1.2s-.3.1-.4 0c-.2-.2-.4-.3-.6-.4-.5-.2-.9-.4-1.4-.4h-.8c-.6 0-1 .1-1.5.3-1.2.4-2 1.4-2.1 2.6v.6c0 .5.1.9.3 1.4.2.4.4.7.8 1 .5.4.9.6 1.5.7.9.2 1.6.2 2.5 0 .1-.8.1-1.5 0-2.3-.2-.2-.2-.4-.3-.6zm16.2-5.9c.4 0 .7 0 1.1-.1.2 0 .3.1.3.3l-.1 1.8c0 .1-.1.2-.2.2-.1.1-.3 0-.4-.1-.2-.5-.6-.8-1.1-.9-.3-.1-.6-.1-.9 0-.3 0-.5.1-.7.1-.6.2-1.2.5-1.6.9-.5.5-.7 1.1-.8 1.8-.1.4 0 .8 0 1.3 0 .2.1.4.2.6.2.6.7 1.1 1.3 1.3.4.2.8.3 1.3.3s.9-.1 1.3-.2c.7-.2 1.2-.5 1.7-1.1.1-.1.2-.1.3-.1.1 0 .2.2.2.4-.2.6-.5 1-.9 1.4-.5.4-1 .7-1.6.9-.7.2-1.4.3-2.1.3-.9 0-1.7-.3-2.4-.9-.5-.4-.8-.9-1.1-1.5-.2-.5-.3-1-.3-1.6 0-.7.1-1.3.4-2 .3-.6.6-1.1 1.1-1.5.6-.5 1.2-.9 1.9-1.2 1.1-.3 2-.4 3.1-.4zm8.4 8.3c.7-.1 1.3-.2 1.9-.5 1-.4 1.8-1.1 2.4-2 .4-.6.6-1.2.8-1.9.1-.7.1-1.2.1-1.9-.1-.6-.2-1.1-.5-1.7-.4-.6-.8-1-1.4-1.2-.3-.1-.6-.2-.9-.2-.7-.1-1.2-.1-1.9 0s-1.3.2-1.9.5c-.8.3-1.3.7-1.9 1.2-.7.8-1.1 1.6-1.3 2.7-.1.6-.1 1.2 0 1.9.1.6.2 1.1.6 1.7.4.6.8.9 1.4 1.2.6.2 1.2.4 1.8.4.2-.1.5-.2.8-.2zm-.8-1.3c-.4-.1-.8-.3-1.1-.6-.3-.3-.5-.7-.6-1.1-.3-1-.3-1.8 0-2.8.3-1.1 1-1.9 2.1-2.3.4-.1.8-.2 1.2-.2.4 0 .7.1 1.1.3.4.2.6.5.8.9.2.4.3.9.4 1.4.1.5.1.9 0 1.4 0 .5-.1.9-.3 1.3-.3.8-.9 1.3-1.7 1.6-.7.2-1.2.2-1.9.1zm15.4-7.3c-1 2.3-1.9 4.3-2.9 6.6 0 .1-.1.1-.1.1-.1.1-.3 0-.4-.1-.9-2.1-1.7-3.8-2.7-5.9v5c0 .3.1.5.2.8l.1.1c0 .2-.1.3-.2.3l-1.6.2c-.1 0-.2 0-.2-.1-.1-.1-.1-.3 0-.4.1-.1.1-.1.1-.2.1-.3.2-.5.2-.8.1-.6.2-1.1.2-1.7.1-1.5.1-2.8.1-4.3 0-.1 0-.3-.1-.4 0-.1-.1-.2-.2-.2s-.1-.1-.1-.2c0-.2.1-.3.3-.3l1.6-.2c.2 0 .3 0 .5.1.1.1.2.2.2.3.8 1.8 1.5 3.3 2.3 5.1.9-2 1.6-3.7 2.5-5.7.1-.3.4-.5.7-.5.5 0 .9-.1 1.3-.1.1 0 .1 0 .2.1s.1.3.1.4c-.1.2-.2.3-.2.6 0 .2-.1.4-.1.7V75c0 .9 0 1.7.2 2.6 0 .3.1.5.2.8 0 .1.1.2.2.3 0 0 .1.1.1.2 0 .2-.1.3-.3.3-.7.1-1.3.1-2 .2h-.2c-.1-.1-.2-.3-.1-.4.1-.2.2-.4.2-.6 0-.2.1-.4.1-.6v-.6l-.2-4.3zm22.2-1.6v3.4c0 .6 0 1.1.1 1.7 0 .4.1.7.2 1 0 .2.1.3.2.4v.2c0 .2-.1.3-.3.3-.6 0-1.1-.1-1.6-.1-.1 0-.1 0-.2-.1s-.1-.3 0-.4c.1-.1.1-.2.2-.3.1-.4.2-.7.2-1 .1-1.7.2-3.2.1-4.9 0-.5 0-.9-.1-1.3 0-.1-.1-.3-.1-.4 0-.1-.1-.2-.2-.3-.1-.1-.1-.1-.1-.3 0-.2.1-.3.3-.3.5 0 1 .1 1.5.1.1 0 .2 0 .3.1.2.1.3.2.5.4.1.2.2.3.4.5.3.5.6.9.9 1.4l2.9 4.8v-2.8-1.8c0-.4 0-.7-.1-1 0-.1-.1-.2-.1-.3 0-.1-.1-.1-.1-.2 0-.2.2-.3.3-.2.4.1.8.1 1.2.2l.1.5s0 .1-.1.1c-.1.2-.1.4-.1.6 0 .6-.1 1.2-.1 1.8V79c0 .2-.2.3-.3.2-.3 0-.5-.1-.8-.1-.1 0-.2-.1-.2-.1-.2-.4-.4-.8-.7-1.2-1.6-2.4-2.8-4.3-4.2-6.5zm11.4 9c0 .3.1.5.2.7v.2c0 .2-.2.2-.4.2-.6-.2-1-.3-1.6-.5h-.1c-.1-.1-.2-.2-.1-.4s.2-.5.2-.7c.2-1.7.1-3.2-.5-4.8-.4-1.3-.8-2.3-1.5-3.4-.2-.3-.3-.5-.5-.8-.1-.1-.1-.2-.1-.2 0-.2.2-.3.3-.2.4.1.7.2 1.1.2.3.1.5.2.7.4.2.3.4.6.5.9.5 1.3.8 2.4 1.1 3.7.3-.5.5-.9.8-1.5.2-.4.4-.7.5-1.1 0-.1.1-.2.1-.3 0-.2-.1-.4-.2-.6 0-.1-.1-.2 0-.2.1-.1.2-.2.4-.2l1.5.6h.1c.1.1.2.3.1.4-.5.7-.9 1.4-1.4 2.1-.3.5-.5.9-.8 1.4-.2.4-.3.8-.4 1.2-.1.8-.1 1.4-.1 2.2 0 .2.1.4.1.7z"/><path d="M138.5 88.7c-.2-.2-.3-.3-.5-.4-.7-.6-2.8-1.1-3.8-1.3-4-.9-7.4-.7-11.5-.2-1.2.2-2.5.4-3.8.6-1.8.4-6.6 1.4-7.1 1.5-.4.1-7.1 1.5-9.5 2-2.1.4-6.2 1.2-8.2 1.4-1.1.1-2.3.2-3.4.4-.9.1-1.9.3-2.9.4-1.2.1-2.8 0-3.4.2-.3.1-1.8-.1-1.7.3 0 .2 5.3 1.6 5.5 1.6.5.1 4.1-.1 4.5-.1 1.2-.2 2.3-.5 3.4-.8.2 0 .4-.1.6-.1.8-.2 6.6-2 7-2.1 2.1-.7 6.9-1.9 6.9-1.9s-1.4.7-2.2 1.2c-1.4.9-1.4 2.3.2 3.3.6.4 1.7.7 2.4.8 2.3.3 4.2-.1 5.5-.3 3-.5 10.9-2.7 13.1-3.5 1.1-.4 3.6-1.6 2-2.8-.4-.3-1.3-.3-1.6-.2-.6.1-1.2.5-1.3 1.1 0 .3.1.5 0 .7-.1.2-.8.7-1.3 1-1.2.7-5.2 1.8-6.3 2h-.2c-.1-.1.2-.6.2-.9 0-.2-.2-.4-.4-.4-.1 0-.3.1-.5.3-1.5 1.2-7.6 3.3-10.6 1.4-1.1-.7.4-1.8 1.2-2.3 1.7-1.1 5.8-2.6 8-3.1 4.4-1 13.2-2.3 17.3-.1.3.2 1 .6 1.2.8.3.3.3.8.7.7.1 0 .3-.1.4-.1h.5c.2 0 .4-.3.4-.4.2-.2-.3-.3-.8-.7zM158.5 67.6c0-.1-.2-.2-.3-.3-4.3-2.7-6.6-3.4-12.6-3.9-3.5-.3-4.5 0-9.9.1-4.8.1-5.8.2-12 1.2-2.3.4-6.3 1.1-8.7 1.4-2.4.3-4.8.5-7.1.9-1.1.2-2.3.4-3.4.6-1 .2-2.1.3-3.1.5-1 .1-1.9.3-2.8.5-1.2.2-9 1.1-10.4 1.2-2.7.2-12.5.6-15.3.6h-1.7c-1.7 0-3.5.1-5.2 0-3.9-.1-14.2-1.3-17.8-2.1-1.3-.3-2.5-.6-4-1-.8-.2-1.8-.5-1.9-.6l-.2-.2c-.1-.1-1.6-.7-2.5-1-.5-.2-.9-.4-1.4-.7-.7-.4-1.6-1.1-2-1.3-.2-.1-.3-.1-.5-.2-1.6-.8-4-3.9-4.7-5.1-.3-.6-1.1-2.1-1.1-2.8v-.5h-.3c-.4 0-.6.4-.9.8-.1.2-.4.5-.4.5h.1v.5c.1 1 1.4 2.7 2 3.5.2.2.4.4.5.6.4.4 3.4 2.8 3.7 2.9l.6.3c.3.2.6.5.9.8 1.2.9 6 2.9 7.2 3.3 1.8.6 5 1.3 6.9 1.7 1.1.2 7.4 1.1 8.6 1.2h1.7c1.3.1 9.9.2 12.3.2 2.9 0 12-.4 13.8-.5 2.5-.2 5.1-.4 7.5-.7.5-.1 7.2-.3 7.5-.5l.1-.1c.1 0 .5-.1.5-.1v.1h.8c1.7 0 3.6-.5 5.2-.8 1.4-.3 16.5-2.5 17.2-2.6.7 0 1.3-.1 2-.1 1.5-.1 3.6-.4 5.7-.6.8-.1 4.4-.2 4.7-.2.2 0 .3.1.5.1 1 .2 6.2.3 7.6.5h.3c1.7.3 3.3.4 4.5.8.6.2 5 2.1 5.7 2.8.3.3.4.4.9.6.2.1.2.1.3 0l.1-.1c.2-.3.7-.9.7-1.2 0-.1-.1-.3 0-.4 0-.2.2-.4.1-.6z"/><path d="M141.1 85.9c-.5-.3-2.5-.9-2.9-1-3.5-1-6.6-1.1-10.1-.9-3.9.2-8.1.5-12.1.8-1.2.1-5.3.6-6.3.7-2.7.3-6.8.6-8.3.9-1.3.2-5.9.7-7.2.9-.6.1-4.1.3-6.2.4-2.8.1-6.8.5-10.2.7-1.4.1-7.9.2-9.3.2-3.1-.1-15-1.1-19.2-1.8-1.1-.2-12.8-2.7-12.8-2.7-3.6-.9-6.2-1.8-9.5-3.4l-.2-.1-.1.1c-.2.3-.3.4-.2.7.1.2 1.4 1.6 1.7 1.8.3.2.6.3 1.2.4 1.7.5 8 2.5 10.4 2.8.2 0 .4.1.7.1.8.1 2.7.6 4.2 1 .7.2 1.5.3 2.3.5-.4.1-.8.3-1.3.4l-4.9 1.9c-.9.3-1.7.5-2.6.7-.6.2-1.1.4-1.7.6-1.1.4-2 .7-3.1 1.1l-.4.3c-.3.1-.5.4-.6.7v.5c-.1.5-.1.8-.2 1.3 4.5-1.4 8.2-2.6 12.5-4.3-1.3.7-2.5 1.3-3.9 2l-4.4 2.4c-.8.4-1.5.7-2.3 1-.6.2-1 .5-1.5.8l-2.8 1.4-.4.2c-.3.2-.5.4-.5.7v.5c0 .5 0 .8-.1 1.3 1.7-.8 3.1-1.4 4.8-2.2-.3.2-.6.3-1 .5-.5.3-.9.5-1.3.9-.8.6-1.5 1-2.4 1.5l-.3.2c-.3.2-.4.5-.4.8v.2l.1.2v.1c0 .4 0 .8.1 1.3 3.9-2.2 7.1-4.2 10.8-6.7 1.5-1 2.7-1.8 4.3-2.8 2.4-1.4 4.4-2.7 6.5-4.4 1.4-.7 2.5-1.4 3.8-2.2 6.3.7 13.3 1.1 16.9 1.3 3.6.2 6 .2 9.8-.2 2.1-.2 3.8-.5 6.8-.7 2.1-.1 5.3-.4 5.6-.4.7 0 5.6-.7 6.1-.7h.2c.2 0 11.2-1.3 13.6-1.7 1-.1 7.6-.7 8.4-.7 2.3 0 7.5-.8 12.1-.3 1.1.1 4.4.8 5.8 1.7.2.1.9.4 1.1.6.9 1.1 2.6.2 3.5.1 1.2-.1-1.9-1.6-2.6-2zm-108 8.6v-.4s0-.1-.1-.1v-.2c0-.1.1-.2.2-.2l.4-.2c.4-.2.8-.3 1.2-.4.7-.2 1.3-.4 1.9-.7.5-.3 1-.4 1.6-.6.9-.2 1.7-.5 2.6-.8l4.9-1.9c.9-.3 1.7-.6 2.5-.9.5.1 1 .1 1.5.2-1.5.5-2.9 1-4.4 1.7-4.2 1.8-7.9 3.1-12.3 4.5zM51 89.6c-.5.3-1 .5-1.5.8 0 0-.1.1-.2.1-.7.6-1.3 1-2 1.5-1.5 1.1-2.8 1.9-4.4 2.8-1.5.9-2.8 1.8-4.3 2.8-3.3 2.3-6.2 4.1-9.7 6.1v-.3l-.1-.1v-.2c0-.1.1-.2.1-.2l.3-.2c.3-.2.6-.4 1-.6.5-.3 1-.6 1.5-1 .4-.3.8-.6 1.2-.8.7-.4 1.4-.7 2.1-1.1l3.8-2.5c2.1-1.3 3.9-2.4 5.9-3.9.1 0 .1-.1.2-.1-1.4.7-2.6 1.3-4 2.1-3.9 2.1-7.2 3.8-11.3 5.6v-.4l-.1-.1v-.2c0-.1.1-.2.2-.2l.4-.2c.4-.2.7-.4 1.1-.5.6-.3 1.1-.5 1.7-.9.5-.3.9-.5 1.4-.7.9-.3 1.6-.6 2.4-1l4.4-2.4c2.5-1.2 4.5-2.2 6.8-3.6.9-.5 1.7-1 2.6-1.5.1 0 .1-.1.2-.1.6.1 1.2.1 1.8.2-.5.3-.9.5-1.5.8z"/><path d="M146.5 85.2c-2.7-1.8-4.9-2.6-8-3-3.4-.4-6.7-.5-10-.4l-4.5.3h-1.8c-4.4.1-10.8.7-14.8 1.2-4.2.5-8.3 1.1-13 1.6-3.4.5-16.3 1.4-17.4 1.5-1.3.2-8 .1-9.2.1-5.7-.1-15.2-1.1-19.7-1.9-4.4-.8-7.7-1.5-11.6-2.6-1.1-.3-4.7-1.7-5.5-2-1.2-.6-3-1.6-4.4-2.3-.3-.2-.6-.3-.9-.6-.4-.4-.8-.7-1.1-.5-.2.2-.1.8.1 1.1.5 1 5 2.7 5.7 3 6.8 2.7 14.2 4.5 21.5 5.3 2.4.2 13.3 1.8 23.6 1.3 4.7-.2 22.8-1.9 24-2.1 13.8-1.4 19.6-2.5 31.4-2.4 4.9 0 7.6.3 11.6 2.4.3.2.7.4 1 .6.8.5 1.4 1.1 2.1.8.2-.1.3-.3.5-.4.3-.2.4-.1.5-.3.4-.3.2-.4-.1-.7zM101.9 64.8c1-.2 1.9-.4 2.9-.5.8-.1 1.6-.2 2.5-.3.6-.3 1.2-.6.9-.6-.3-.1-1.7.5-3.3.6l-2.4.7c-.2 0-.4 0-.6.1z"/><path d="M158.7 64.5c-.1-.3-.1-.7-.2-1.1-.1-1.2-.6-1.6-1.9-1.8-1.5-.3-3.2-.5-4.9-.8-1.1-.2-6.4-.6-7.2-.6-.3 0-.9 0-1.2-.1-.2-.1-.2-.1-.4-.1l-6.2.1h-.4-.2c-.2 0-4.5.1-5.2.2-1.6.3-4.5.7-6 .9l.2-.2.1-.1.8-.6c-.4-.4-.8-.7-1.3-.9.2-.1.3-.1.5-.2.1.3.3.4.5.5.3.2.6.3 1 .3 1.1.2 2.1.2 3.2 0 .5-.1.9-.2 1.4-.5l.8-.5-.1-.1c.3.1.6.2 1 .2 1.1.1 2.1 0 3.1-.3.5-.1.9-.3 1.3-.7l.7-.6c.1 0 .1.1.2.1.3.2.6.3 1 .3 1.1.2 2.1.3 3.2.1.5-.1.9-.2 1.4-.5l.8-.5-.3-.3c.2.1.4.1.6.2 1.1.2 2.1.2 3.2.1.5-.1.9-.2 1.4-.5l.8-.5c-.2-.3-.5-.5-.8-.7.1 0 .3 0 .4-.1.1.4.3.7.7.8.3.1.6.2.9.2 1 .1 1.9 0 2.9-.3.5-.1.8-.3 1.2-.6l.8-.6c-1-.8-2.1-1.2-3.5-1.2l.9-1.1c-1.2-.1-2.2-.1-3.3 0-1 .1-1.8.3-2.8.6-.4.1-.7.3-.9.6-.1.2-.2.3-.2.6h-.5c.1-.2.3-.3.4-.5l.7-1.1c-1.1 0-2.1 0-3.1.2s-1.8.5-2.7 1l-.1.1.3-.6c-1.1.1-2.1.2-3.2.5-1 .3-1.8.6-2.7 1.2-.3.2-.6.5-.8.8-.1.1-.1.3-.1.4h-.7l.2-.2c.2-.3.4-.5.6-.9l.6-1.2h-.2c2.5-.9 4.3-1.5 6.7-2.2l2.3-.7c1.3-.4 1.5-.5 1.4-.9l-.1-.3h-.3c-.5 0-2.1.3-3 .5-1 .2-2 .4-2.9.6-1.1.2-2.2.4-3.4.7-1 .2-2.3.5-3.5.8-2 .5-4 .9-4.7 1l-.4.1c-.4.1-6.1 1.5-9 2.3.1-.1.2-.1.3-.2l.7-.6c.3 0 .5.1.8 0 1.1 0 2-.2 3-.7.5-.2.8-.4 1.2-.8l.6-.6s.1 0 .2.1c.3.1.6.2 1 .2 1.1.1 2 0 3-.3.5-.1.9-.3 1.2-.6l.8-.6-.2-.2h.4c1.1.1 2 0 3-.3.5-.1.8-.3 1.2-.6l.7-.6c-.2-.2-.5-.4-.8-.5.1 0 .2 0 .3-.1.1.4.4.6.8.7.3.1.6.1.9.1 1 0 1.8-.2 2.7-.6.4-.2.8-.4 1.1-.7l.7-.7c-1.1-.7-2.2-.9-3.4-.8l.8-1.1c-1.1 0-2.1.1-3.2.4-.9.2-1.7.5-2.5.9-.3.2-.6.4-.8.7-.1.2-.2.3-.2.6h-.4c.1-.2.2-.3.3-.5l.6-1.2c-1.1.1-2 .3-3 .6-.9.3-1.7.7-2.4 1.2l.2-.6c-1.1.2-2 .5-3 .9-.9.4-1.7.8-2.4 1.5-.3.3-.5.5-.6.9-.1.1-.1.3-.1.4-.2 0-.4 0-.6.1l.1-.1c.2-.3.3-.6.5-.9l.2-.7.6-.3c.5-.3 1.1-.6 1.7-.9.8-.4 1.6-.8 2.5-1.2 1.2-.6 2.4-1.1 3.3-1.7.1-.1.2-.1.3-.2.1-.1.2-.1.3-.1l.1-.1c.5-.2 1-.5 1.3-.7l.3-.3-.1-.3c-.1-.3-.4-.2-.5-.2-.4 0-3.9 1.2-5.8 1.8l.5-.6c-.7-.3-1.4-.5-2.2-.5-.3 0-.6 0-.9.1l.6-1c-1.1.1-2 .3-3 .6-.8.3-1.5.6-2.2 1.1-.3.2-.5.4-.7.7-.1.2-.1.3-.1.5h-.1c0-.1.1-.2.1-.3l.5-1.3c-1 .2-1.8.5-2.8.9-.8.3-1.3.7-2 1.2l.1-.5c-1 .3-1.8.6-2.8 1.1-.8.4-1.4.9-2.1 1.6-.3.3-.6.8-.6 1.2-.1 0-.2 0-.3.1.1-.3.2-.5.3-.8l.3-1.3c-1 .3-1.9.7-2.9 1.2-.9.4-1.5 1-2.2 1.7-.3.3-.4.6-.5.9-.1.2-.1.3 0 .5-.1 0-.2.1-.4.1.1-.1.1-.2.1-.4.1-.3.2-.6.2-.9l.1-1.4c-1 .5-1.8.9-2.7 1.6-.8.6-1.4 1.2-1.9 2-.1.1-.2.3-.2.4v-.2l.1-1c.6-.5 1.2-1 1.7-1.3.1-.1.3-.2.3-.3l.1-.1.4-.2.2-.1c.3-.2.6-.4.9-.7.2-.2.5-.4.7-.6.2-.1.4-.3.6-.4 1.2-.8 1.3-.9 1.4-1.1.2-.2.5-.4.8-.5l.9-.6.1-.1.1-.1h.1c.3-.2.6-.5.9-.8.3-.3.5-.5.8-.7.1 0 .1-.1.2-.1.1-.1.3-.2.5-.3.3-.3.7-.8.7-.8l.9-1.2-1.4.7c-.1 0-2.4 1.2-3.5 1.9-.1.1-.3.2-.4.3l-.1.1c-.5.4-1.2.7-1.8 1.1l-.7.4c-1.9 1.2-4.6 2.9-6.7 4.3-.2-.2-.4-.6-.7-.8-.5-.4-.5-.5-.6-.6-.1-.1-.1-.3-.2-.4-.2-.3-.5-.5-.8-.7-.3-.2-.5-.5-.8-.8-.2-.2-2.1-1.2-3.2-1.8-.2-.1-.2-.1-.3-.1h-.3v-.1H89c-.1 0-.8-.2-1.2-.4-.1 0-.2-.1-.2 0v.1c.1.3.4.6.6 1 .1.2.1.4.2.4 0 0 .1 0 .1.1.1.1.2.2.2.3 0 .1 0 .1-.1.2s0 .3.1.5c.3.6.6 1.6.6 1.6h-.1v.3c0 .3-.1.5-.1.7-.1.6-.1.7-.5.6-.1-.1-.3-.1-.3-.2v-.1c.1-.3-.2-.6-.3-.9-.1-.2-.1-.4-.2-.6-.1-.5-.7-1.5-1-1.8-.1-.1-.2-.1-.3-.2-.7-.3-2.2-.8-2.4-1-.1-.1-.1-.1-.1-.2 0-.4.5-.5.9-.4.3 0 .8.1.8.1v-.1-.1c-.4-.5-1-1.3-1.7-1.4-.4-.1-.6-.1-.6-.2l-.2-.1c-.2-.1-.3-.1-.5-.2l-.9-.3c-.2 0-.5 0-.7-.1-.4-.1-.9-.3-1.3-.3h-.3-.1-.2l-5-.9h-.8v.1s-1.8-.1-2.6 0c-.1 0-.2 0-.3.1-.2.1-.5.2-.6.2h-.1c-.2 0-.8.2-.8.2s.1.1.3.2c.5.4 1.9 1.5 2.1 1.6.5.2.7.2 1.3.1.4 0 2.9.2 3.1.3.3.1.7.2.8.2.1 0 .2-.1.2-.1l.1.1s.1.1.2.1c.8.3 2 .5 2.9.8.3.1.5.2.4.4-.2.5-.4.3-.9.1-.5-.2-4.6-.6-5.4-.5-.6 0-1.4.1-1.4.1s.1 0 .1.1c.8.5.8 1.2 1.4 2.1.2.2.4.5.5.7.5.8.8 2.3.7 3 0 .5-.2 1.3-.2 1.3H75c-.4-.1-.5-.7-.7-1.1-.6-1.3-1.6-1.7-2.5-2.9-.2-.3-.4-.5-.6-.8-.3-.4-2.1-2.1-2.6-2.2-.4-.1-1 0-1.4-.2h-.1c-.3-.1-1.7.1-2.6.1-.2 0-.5-.1-.7-.1-.2 0-.5.1-.7.1-.1 0-.3 0-.4-.1h-.1v-.2c0-.1.1-.2.1-.2.2-.2 1.5-.5 1.5-.5.1 0 .3 0 .5-.1h.6c.2 0 .4-.1.7-.1.4-.1 1-.1 1-.1s-.2-.3-.3-.3c-.2 0-1.1-.8-1.7-1.1-.8-.4-3.2-.6-3.6-.6-.5 0-4.9.5-5.4.6-.8.2-3.6 1-4.3 1.3-.7-.1-1.7.3-1.7.3s.8.3 1.2.6c.2.1.3.2.5.3.4.3.9.5 1.2.5.8 0 2.1-.4 3.1-.4h1.6c1 0 2.8.3 2.8.3v.7s-.6-.1-1.1-.1c-.5 0-1.3.1-1.6.2-.1 0-.2.1-.3.1-.6.2-3 .4-3 .4s.7.8 1.3 1.1c.4.2.7.3 1 .5.3.2.4.3.6.6.1.2.3.4.5.5.1.1.2.1.3.2.2.1.2.2.3.4.3.6 1 1.2 1.4 1.8.2.2.3.4.4.7.1.2.1.3.2.5.1.1.4.7.4 1 0 .1-.1.2 0 .3 0 .1-.3.3-.3.3s-.1 0-.1-.1c-.1-.1-.2-.1-.3-.2-.4-.2-2.1-2.3-2.7-2.7-.3-.2-.6-.4-.9-.5-.3-.1-.7-.3-1-.5-.2-.1-.4-.3-.6-.5-.7-.6-1.4-1-2.3-1.3-.2-.1-.4-.1-.5-.2-.3-.2-.7-.6-1-.5-.1 0-.3.2-.4.1 0 0-.1 0-.1-.1-.4-.2-1.3.2-1.7.2h-.5c-.2 0-2.2.8-2.3 1.1 0 0 0 .1-.1.1h-.1c-.2 0-.4.1-.6.1h-.5s.1-.4.2-.5c.1-.1.3-.2.4-.3.2-.1.3-.2.5-.4.5-.5.9-.9 1.6-1.2.4-.1.9-.2 1.2-.3 0 0 .2-.1.1-.2V49h.1v-.1l-.3.1v.1l-.1-.1.1-.1-.2-.1v-.1c0-.1-.8-.4-.9-.5-.1 0-.2-.1-.2 0v.1h-.1c-.1 0-.2-.1-.3-.1-.1-.1-.3 0-.5 0h-.2s.4-.1.5-.1c.2 0 .5.1.5.1l-.5-.4s-1.3.3-2.1.6c-.5.2-1.6.8-2 1-.5.3-2 1.4-2.2 1.7-.2.3-.4.5-.8 1-.3.2-.6.8-.6.9.1 0 .1 0 .1.1s-.4.5-.6.7c-.1.2-.2.3-.2.5-.4 1.1-.9 2.7-1 3.6 0 .4 0 .8.1 1.2 0 .3.4 1.5.5 1.6V61h.1v.1h.1V61s.1.2.2.3l.1.1c.1.1.1.2.2.2l.1.1c.1.1.4.4.6.7-.7-.4-1.4-.8-2-1.2-1.8-1.4-2.1-1.7-3-4-.2-.5-.5-1.7-.5-2V54h.1l.1-1.4h-.4c-.2 0-1.6.6-1.8.6-.1.1-.3.2-.4.2h-.3c-.2.2.2 1.5.2 1.5.2.8.6 2 .8 2.3.2.3.4.5.5.8.2.4.4.9.7 1.2l.9.9c.2.2.3.4.4.7.2.2.6.6.8.7.1.1.2.1.4.2.4.2.7.7 1.1 1 .3.2.5.4.8.6 1 .6 3 1.7 3.4 1.8.1 0 .3.1.4.1.4.1.8.4 1.2.6 1.3.5 3.7.9 3.8 1.1.1.1.1.1.4.1.2 0 4.1.8 4.7 1 .2.1.4.1.7.2.5.1 7.2 1 8.4 1.1 1.6.1 3.2.2 4.6.3 1.7.1 8.2.3 9.5.3 3.7-.1 8.7-.3 8.7-.3v.1h.1v-.1c0-.1 6.5-.6 8.2-.9.2 0 .3-.1.5-.1 3.1-.7 3.3-.4 7.5-.9l1.8-.3c.6-.1 1.3-.3 1.9-.4 1.8-.3 3.6-.5 5.4-.8 1.3-.2 2.6-.5 3.9-.7l1.8-.3c.5-.1 9.4-1.8 11.7-1.9h.8c.5 0 1-.2 1.6-.3 3.2-.6 11.2-.9 13.7-.8 3.2.1 7.2.6 10.2 1.6 1.8.6 5.7 1.8 5.8 1.8.2 0 .6-.3.6-.6-.2-.3-.3-.4-.3-.5zM123.8 59c-2.3.6 0-2.2 3.8-3.2-.3.9-1.5 2.7-3.8 3.2zm4-2s0-.1.1-.1c.2-.1.4-.2.7-.2-.1.1-.1.2-.2.3-.1.2-.1.4-.1.6h-.8l.3-.6zm-1.6 1.6c2.1-.8 3.9 0 4.5.6-1.6 1.1-6.6.2-4.5-.6zm12.5-2c2.1-.8 3.9.1 4.5.7-1.6 1-6.6 0-4.5-.7zm16.3-1.5c-1.3 1.1-6 .8-4.2-.1 1.9-.8 3.5-.3 4.2.1zm-2.8-1.6c-.5.6-2 1.6-4.2 1.5-2.2-.2.6-1.7 4.2-1.5zm-3.3 2.7c-1.6 1.1-6.6.2-4.5-.6 2-.8 3.8 0 4.5.6zm-3.1-2.5c-.4.7-1.8 2-4 2-2.1 0 .5-1.9 4-2zm-5.6.7c-.4.8-1.7 2.2-3.9 2.4-2.2.3.3-2 3.9-2.4zm-3.5 3.4c-1.4 1.2-6.6 1-4.6-.1 2-1 3.9-.4 4.6.1zm-6.8-.1c-2.4.2.3-2.2 4.3-2.6-.5.9-1.9 2.4-4.3 2.6zm-12.8-3.8c-2.2.5 0-2.1 3.7-3-.3.9-1.4 2.5-3.7 3zm-4.7 2.4c.1-.1.2-.1.3-.2.1.2.3.4.6.4.3.1.6.2 1 .2h1.3c-.8.2-1.5.5-2.3.7l.5-.4c-.5-.3-.9-.5-1.4-.7zm-4.2 1.1c1.8-1.1 3.6-.7 4.4-.2-1.4 1.2-6.2 1.3-4.4.2zm.5 1.5c-.2.1-.5.1-.7.2 0-.1-.1-.2-.1-.3.3.1.5.1.8.1zm-10.8 3.4c0-.1.1-.1.1-.2v-.4c.1.3.3.5.6.6.2.1.4.1.6.1-.1 0-.3.1-.4.1-.8.3-1.5.5-2.2.8.2-.1.4-.2.6-.4.3-.2.5-.4.7-.6zm-1-1c-2.1.7-.2-1.7 3.2-2.9-.3.7-1.2 2.2-3.2 2.9zM99 61c1.6-.7 3-.2 3.6.2-1.6.9-5.2.5-3.6-.2zm2.7-1.6c-2.1.7-.2-1.7 3.2-2.9-.3.7-1.2 2.2-3.2 2.9zm1.3.1c1.8-1.1 3.6-.7 4.4-.2-1.7 1.4-6.2 1.4-4.4.2zm3.2-1.5c-2.1.8-.3-2.1 3.2-3.5-.2.9-1.1 2.7-3.2 3.5zm3.7-1.9s0-.1 0 0c0-.1 0-.1 0 0zm4.9-3.7c-.2.9-1.1 2.7-3.2 3.5-2.2.8-.3-2.1 3.2-3.5zm-1.1 2.8c1.9-1 3.6-.5 4.4 0-1.4 1.2-6.2 1-4.4 0zm1.2-1.1c0-.1 0-.1 0 0 .2-.2.4-.3.6-.4v.3c-.2 0-.4 0-.6.1zm25.7-5.6c-1.1 1.2-5.6 1.5-3.9.4 1.6-1 3.2-.7 3.9-.4zm-2.8-1.2c-.4.6-1.7 1.8-3.8 1.9-2.1.1.4-1.7 3.8-1.9zm-2.9 3c-1.4 1.2-6.2 1-4.4 0 1.9-1.1 3.7-.5 4.4 0zm-3.2-2.1c-.3.7-1.5 2.1-3.5 2.4-2 .3.2-1.9 3.5-2.4zm-2 3.8c-1.4 1.2-6.3.8-4.4-.1 1.9-1 3.7-.4 4.4.1zm-3.2-2.4c-.3.8-1.4 2.3-3.4 2.8-2.1.4 0-2 3.4-2.8zm-2.9 3.6c-1.2 1.3-6.1 1.7-4.3.5 1.8-1.2 3.6-.9 4.3-.5zm5.1-7c-.7.4-1.6.8-2.5 1.2-.9.4-1.7.8-2.5 1.2-.6.3-1.1.6-1.7.9-.4.2-.8.4-1.2.7-.7.2-1.3.4-2 .6-1 .4-1.7.8-2.5 1.5l-.6.3c-.1.1-.3.1-.4.2 0-.1.1-.2.1-.3l.3-1.3c-1.1.4-2 .8-3 1.4-.9.5-1.6 1.1-2.3 1.9-.2.2-.3.4-.4.6 0 0-.1 0-.1.1.1-.2.1-.4.2-.6l.3-1.3c-1.1.4-2 .8-3 1.4-.6.4-1.2.8-1.7 1.3l.2-.6c-1.1.3-1.9.7-2.9 1.2-.8.4-1.4.8-2 1.4l.2-.7-.9.3c.2-.2.4-.3.6-.5l.3-.4c.5-.2.8-.3 1.1-.4l.5-.2c.1 0 .2-.1.2-.1.6-.1 1.1-.2 1.7-.5.4-.2.7-.4 1-.6.6-.3 1.4-.6 2.2-.9.6-.2 1.2-.4 1.8-.7 1-.4 1.9-.8 2.8-1.1.2-.1.4-.2.7-.2.6-.1 1.1-.2 1.7-.4.3-.1.6-.3.9-.5.4-.1.7-.3 1.1-.4 2.6-.9 5.2-1.9 8.1-3 .4-.4 2.1-1 3.7-1.5zM100.8 56c.1 0 .1 0 0 0zm10.2-4.1c0-.1 0-.1 0 0zm.4-1.4c1.6-1 3.3-.7 4-.3-1.2 1.2-5.6 1.4-4 .3zm9.6-2.3h.1c0-.1-.1 0-.1 0zm3.9-2.1c-.9 1.2-4.9 1.9-3.5.8 1.3-1.1 2.9-1 3.5-.8zm-2.7-.8c-.3.6-1.4 1.8-3.3 2.1-1.8.3.3-1.6 3.3-2.1zm-2.3 2.9c-1.1 1.2-5.6 1.5-3.9.4 1.6-1.1 3.2-.7 3.9-.4zm-3.1-1.5c-.2.7-1.1 2-3 2.5-1.7.4.1-1.8 3-2.5zm-4.5 1.7c-.2.7-1 2.2-2.9 2.8-1.8.6-.1-1.8 2.9-2.8zM110 52c-1 1.3-5.4 2.1-3.9.8 1.5-1.3 3.2-1.1 3.9-.8zm-2.7-1.8c-.2.8-1.1 2.4-3.1 3-2 .7-.2-1.9 3.1-3zm-2.1 4.1c-1.1 1.2-5.6 1.5-3.9.4 1.5-1.1 3.2-.8 3.9-.4zm-3.3-2.3c-.1.8-.7 2.5-2.6 3.5-1.9 1-.4-1.9 2.6-3.5zm-1.6 4.6c-1 1.3-5.5 1.8-3.9.6 1.5-1.2 3.2-1 3.9-.6zm-11.9 4.7c1.4-.7 2.7-.5 3.2-.2-1.2 1-4.5.9-3.2.2zm-1.9.4c-1.8.8-.4-1.5 2.6-2.9-.1.7-.8 2.1-2.6 2.9zm6.8-5c-.1.7-.8 2.1-2.6 2.9-1.8.8-.4-1.5 2.6-2.9zm-1.4 2.9c1.5-1.2 3.2-.9 3.9-.6-1.4 1.4-5.4 1.8-3.9.6zm2.7-1.7c-1.9.9-.4-1.9 2.6-3.5 0 .8-.7 2.5-2.6 3.5zm-19.3 9.7h-1.5c1.4-.9 2.8-1.9 4-2.7.4-.3.8-.5 1.1-.8.4-.3.8-.6 1.2-.8.2-.1.3-.2.5-.3.3-.2.5-.3.7-.5.3-.2.5-.4.8-.5.2-.1.3-.2.5-.4.5-.4 1.1-.7 1.7-1.1.3-.2.5-.3.8-.5 1.5-1 3.1-2.1 4.4-3.1 1.3-1 1.4-1 2.4-1.5.5-.2 2.1-1.3 4.1-2.6 2.2-1.4 4.9-3.2 6.9-4.4l.7-.4c.7-.4 1.3-.8 1.9-1.1l.1-.1c.1-.1.2-.2.4-.3.2-.2.5-.3.8-.5-.3.3-.5.5-.8.6-.1 0-.2.1-.3.2l-.2.1c-.2.2-.5.3-.8.5-.3.2-.7.4-.9.6-.1.1-.1.1-.1.2-.1.1-.7.5-1.2.8-.2.2-.5.3-.6.4-.3.2-.5.4-.8.7-.3.3-.5.5-.7.6l-.2.1c-.2.1-.5.2-.6.4l.3.3-.4-.2s-.1.1-.2.1c-.5.3-1.3.9-1.9 1.5-.6.5-1.3 1.1-1.8 1.3h-.1c-.5.3-.9.6-1.1.8l-.1.1s-.1.1-.2.1c-1 .4-1.8.8-2.7 1.4-.6.4-1.1.8-1.6 1.3l.1-.5c-1 .4-1.8.8-2.7 1.4-.8.5-1.3 1-1.9 1.7-.3.3-.5.7-.5 1.1-1.6 1-2.9 1.8-3.2 2l-.6.6c-.4.2-.7.4-1.1.6-.2.1-.6.4-1.1.7-1.1.8-2.3 1.4-3.5 2.1.1 0 0 0 0 0zm1.9 0l-.3.1c.7-.4 1.3-.9 1.9-1.2.3-.2.7-.4.9-.6.8-.5 1.6-1 2.6-1.5l1.9-1.1c1.3-.4 2.4-1.1 2.6-1.1.2 0 0 .2-.3.5-2.6 1.3-6.1 3.1-6.8 3.6-1.1.5-2 1-2.5 1.3zm8.6-3.6c.4-.2.7-.4 1-.7.6-.3 1.1-.6 1.6-.8 1.3.2 2.5-.1 3.6-.8l1-.7h-.1c.9-.1 1.6-.4 2.4-.8.4-.2.6-.4.9-.7.2-.2.3-.5.2-.8.1 0 .2-.1.3-.2h.3c.4 0 .8-.1 1.2-.2-.1 0-.1.1-.2.1-.9.4-1.6.9-2.3 1.6-.3.3-.5.6-.6.9v.1h-.2c-.1 0-.2 0-.3.1-.4.1-.9.4-1.5.7l-.5.2c-.7.3-2.6 1-3.8 1.4-1 .3-5.3 2.2-8.7 3.6 2.2-.9 3.9-1.8 5.7-3zm-3.5 3.4c-.3 0-.6.1-.8.1 2.3-1 5-2.1 6.6-2.8-2 .9-4 1.9-5.8 2.7zm5.5-.6l-.4.2c-.9.1-1.8.2-2.6.2.4-.1.8-.2.7-.2-.3.1-.5.1-.8.2h-.5c2.1-1 5.1-2.3 7.9-3.6l2.2-1c1.5-.3 2.8-.9 3-.9.5.1-1.4 1.1-1.6 1.2-2.6 1.2-4.9 2.2-7.6 3.4-.4.2-.8.3-1.1.5.1.1.5 0 .8 0zm18.5-4.6c-.1.1-.1.3-.1.4-2.3.6-5.5 1.5-6.9 2.2l-.2.1c-.2.1-.4.1-.7.2-2.6.5-6 1.1-7.8 1.4-.2 0-.4.1-.7.1 1.8-.8 4.5-1.9 5.5-2.2 1.1-.4 2.3-.8 3.5-1.2.9-.3 1.7-.6 2.6-.9.3-.1.6-.2 1-.3.4-.1.7-.3 1.1-.4.5-.2 1.1-.4 1.6-.6.5-.1 1-.2 1.5-.5.2-.1.5-.2.7-.4 1.5-.5 6.2-2 9.7-3 1.4-.4 9.8-2.6 10.3-2.6h.4c.8-.1 2.7-.6 4.8-1.1 1.2-.3 2.4-.6 3.5-.8 1.2-.3 2.2-.5 3.4-.7.3-.1.7-.1 1-.2-2.8.9-4.9 1.6-9.3 3.2l-1.1.4c-.6.2-1.1.4-1.7.6l.4-1.2c-1.2.3-2.1.6-3.2 1-1 .4-1.8.9-2.6 1.7-.1.1-.2.2-.3.4-.1 0-.2.1-.3.1.1-.1.1-.3.2-.4l.4-1.3c-1.2.3-2.1.6-3.2 1-.8.3-1.4.7-2 1.2l.3-.6c-1.1.2-2.1.5-3.1.8-.9.3-1.6.7-2.4 1.2l.3-.7c-1.1.2-2.1.4-3.1.8-1 .3-1.7.7-2.6 1.4-.5.3-.8.6-.9.9zm15.3-3.2l.3-.1c.1 0 .2-.1.3-.1v.2h-.6zm-3.7 1.5c-2.3.6 0-2.2 3.8-3.2-.2.9-1.4 2.6-3.8 3.2zm-1.2-1.7c-.3.7-1.4 2.1-3.7 2.6-2.2.5 0-1.8 3.7-2.6zm-8 5zm-.9-1.1c-2.2.5 0-1.8 3.7-2.6-.3.8-1.4 2.2-3.7 2.6zm1 1.1s0-.1.1-.1c.1-.1.1-.3 0-.4h.1c0 .2.1.4.3.5h-.5zm1.7-.3c-.9-.2-1.3-.5-.4-.8 1.4-.4 2.5-.1 3.2.3l-2.8.5zm8.2-1.3l-3.3.5c-1.2-.1-2-.5-.9-1 2-.9 3.8-.2 4.6.3-.2.1-.3.1-.4.2zm1.3-.2c.1 0 .1 0 0 0-.1-.2-.3-.3-.5-.5h.1c.3.1.6.2 1 .3h.2l-.8.2zm.1-1.8c2-.9 3.8-.2 4.6.3-1.5 1.2-6.6.6-4.6-.3z"/></g><path d="M9.4 13.9C6.1 16.5 1 21.8 2 27.5c1.1 6.8 6 9.7 12.2 5.7.1-.1 1.2-1.4 1.2-1.9.1-1-1-.4-1.3-.2-6.5 3.6-9.3-3.3-9.4-7.2 0-.1.5-5.9 6.5-8.9 5.2-2.6 9.5-1.4 9.7-1.3l.2.1v.1H21v.1c0 .1-.1 0-.2 0 0 0-2.1 1.5-2.3 1.8v.8c0 .2.3 5.1.1 5.9-.1 1-.1 15.5 0 18.3.1 8.8-.3 21.7-10.9 23.5-.9.2-3.6 1.2-2.2 2.9.1.1.2.2.4.3 1.1.3 1.3.2 2.5-.5 11-5.8 15.1-16.2 14.6-28.3l.8-24.1h.2c1.4 0 6.1 3.2 6.8 4.1.4.4 5.1 3.7 9 13.7 0 .1.1.2.1.3v.4c-.1 1.8-.2 3.9-.3 5.4 0 .8 1.7 2.9 2.7 1.3.2-.2.1-.7.1-.7l.1-2.6c0-5.7 1.3-22.1 1.8-24.9.1-.7.3-1.6.5-2.1.2-.6.6-1.2.8-1.9.6-1.4 0-2.2-1.5-1.9-1 .2-3.6.8-4.8.5-.1 0-.2-.1-.3-.1-.1 0-.2 0-.3.1-.5.1-2-.3-2.2-.2l-.3.3c-.1.1-.1.1-.1.4.1.4.3.8 1 1 .3.1.8.1 1 .2l.1.1c.2.2.9.2 1.4.4 1.3.4 1.7 1.2 1.8 2.3.4 4.2.1 10.5-.5 14.7 0 0-.7-1.7-1.4-2.9C34 12.1 19.8 5.6 9.4 13.9zm41.5 7.7c.5-3.3 6.3-4.1 6 1.1 0 .5-.1.6-.7.7-5.7.6-9.2 4.2-10.2 7.9-.6 2.3 1 5.9 4.7 6 1.2 0 3.6-1.1 4.3-1.8.4-.4 1.5-1.5 1.5-1.3.2 3 1.9 1.5 2.9 1.3.5-.1 3.4-1.1 3.2-2.1-.2-1.2-2.4 0-2.6-1.4 0-.6 0-3.6.1-5.2 0-1.4.1-2.7.1-4 0-6.9-8.2-5.8-11.2-2.9-.6.6-2 2.4-1.8 3.7.1.9 1.1 1.9 2.1 1.3 1.8-1 1.6-3.2 1.6-3.3zm-.6 10.6c-.1 0-.6-4.3 3.1-6.6.2-.1 3.2-1.3 3.2 1.1 0 1.2.1 4.4-.3 5.3-.5 1-4.4 3.7-5.9.5-.1-.1-.1-.3-.1-.3zM74 16.8s-1.7.1-3.1 1.3c-.7.6-1.9 1.7-1.9 1.7s0-1.3-.1-1.8c-.1-.6-.6-1-1-1-.8-.1-5.4 1.1-5.6 1.4-.3.5-.2.7.4 1.1.4.3 1.5.4 1.9.7.9.7.5 5.2.5 5.9.1 1.8 0 7.5.2 8.3.4 1.8 3.4.9 3.3 0l.3-10.3c.1-.6-.3-3.1 2.7-4.1.7-.2 2.6-.9 3.8 1 1.8 2.8 2.1 11.1-.7 12.6-.9.5-2.6-.1-3.1.6-.2.3.1.9 1.8 1.1 2.8.5 6.3-3.5 6.8-7 .2-3.5.7-12-6.2-11.5zm34 .4c-.2-.7-3.2-.9-3.3.4-.3 3.8.3 9-1.8 11.1-.9.9-2.6 2.3-4.3.3-.8-1-.3-11.6-.2-11.8.1-1.2.1-1.6-1.3-1.1-.5.2-2.7.8-2.7.8-.9-.6-3.2.4-5.8.1l-2.2-.2v-3.3c0-1.3-.9-1.5-1.3-.4-.1.2-1.1 3-3 3.8-.4.1-2.8.5-2.7 1.1.1.9 3.6.7 3.5 1.1 0 0 .1 11.2.1 13v.4c.8 2.9 4 .7 5 .2.8-.4.9-.5 1.8-1 .6-.4.3-1.2-.2-1-3.2 1.1-3.2-1.2-3.2-1.3L86.3 19s4.5.8 5.3.1c.6-.4 1.3-1 2.1-1.4.3-.2.8.2.8.9v6.3c0 .4-.2 6.3 1.1 7.4 2.3 1.9 6.7-.3 8.3-2.8 0-.1.3-.4.3-.4-.1 2.1-.1 5.1 1.9 4.5 0 0 3-1.1 3.9-1.9.2-.1.5-.8-.8-.8-1.7 0-1.2-3.2-1.2-3.2V17.2zm33.6 21.4c.6.9 2.2 2.2 3.4 2.6 4.1 1.2 5.7.5 6.3.3.7-.3 1.3-.4 1.4-1.2.1-.8-.7-.5-1.4-.3-.3.1-3.6.8-6.2-2.1-2.5-2.9-1.7-8.2-1.7-8.3 0-.2.5-1.4.6-1.7.6-.9 1.1-1.3 2-1.7.7-.3 1.4-.4 2.1 0 1.9.9 2 3.3 1.9 3.7-.3 2.8-1.5 4.4-3.2 4-.1 0-1.2-2.6-2.3-1-.6.9.4 1.7 1.3 2.1 1.3.6 3.3.5 4.6-.2 2-1 2.8-2.4 3.1-5.3.4-3.7-2.6-4.9-2.6-4.9-2.2-1.3-5-.1-7.7 1.1-.9.4-2.3 1.5-2.7 2.6-2.1 4.8.1 8.8 1.1 10.3zm-31.5-11.1c.2 4.8 4.4 8.4 9.1 7.7.2 0 4.1-.9 4.9-2.7.2-.5-.6-.8-1.1-.5-6.1 3.4-8.4-2.1-8.4-2.5 0-.1-.2-.3-.2-.4-1.8-6.7 1.9-11.7 4.9-9.5.2.2.5 1.1.5 1.2 0 .1-.1.1-.1.2 0 0-.2.5-.4.7-.5.8.7.9 1 .8.7-.2 3-1.5 2.9-2.2-.3-2.7-3.7-3.9-7.2-2.4l-2.2 1.3c-.5.5-4 3.4-3.7 8.3zm19.4-12c.1-1.2.4-1.8-1.6-1.7-1.1.1-2.5.4-3.5.5-2 .2-1.8-.1-3.7-.8-.4-.2-.8-.5-1.3-.6-2.6-.7-3.7.3-3.6.6.1.5 1.9 0 3.2.8.5.3 2.7 2.1 3.8 2.3.9.2 3-1 2.9.4l.2 18c-.4 1.9 3.4 1.9 3.4.4 0-.8-.2-4.8.2-5.4.3-.5 1.2-1 1.2-1s.5 1.2.7 1.9c.5 1.8 1.3 4 1.8 5.4 1.7 4.7 6.1 6.9 7.9 7.1.4 0 1.5.1 1.7-.4.3-.8-1-.8-1.5-1.2-1.9-1.4-3.2-3.4-5.1-8.3-.7-2-.7-3.5-3.1-6.7 1.1-1.1 3.9-3.8 5.7-3.3.3.1.4.4.6.6.7.7 3.1-1.3 3-1.8-.3-1.7-1.7-3.5-4-1.8-.5.4-9.1 7.1-9.2 7.2.2-.1.3-12 .3-12.2zm27 12.9s-.1 12.5-.1 13c0 .4.1 3.6.5 4 .7.8 1 1.1 2.9.8.7-.1 4.5-1.2 4.7-1.3 1-.9.6-1.1-.1-1.4-.2-.1-.8.1-1.1.1-1.3 0-2.4-.2-2.7-2-.1-.8-.1-11.5-.1-11.5s.5.1.7.2c0 0 1.2.5 1.7.7 2.3.8 6 .1 8.2-.7.5-.2 1.1-1.1-.1-1.2-.2 0-1.8-.1-2.7-.1-2.3-.1-7.4-2-7.4-2s-.2-3.4-.1-3.7c0-.2 0-1.3-.3-1.5-.5-.3-.7.1-1.1.6-1 1.3-1.5 2.7-3 2.7-.8 0-2-.3-2.2.4-.1.5.4.8.9 1.2.2.1 1.4.9 1.5 1.2 0 .2-.1.5-.1.5z" id="name"/></svg>