<svg xmlns="http://www.w3.org/2000/svg" viewBox="0 0 206.7 195.3"><style>.st0{fill:none;stroke:#58b947;stroke-width:.25;stroke-miterlimit:10}</style><g id="Layer_1"><path d="M93.2 51.2c-45.2 0-81.8 19.3-81.8 43.2s36.6 43.2 81.8 43.2c45.2 0 81.8-19.3 81.8-43.2s-36.6-43.2-81.8-43.2zm0 80.4c-41.8 0-75.7-16.7-75.7-37.2 0-20.5 33.9-37.2 75.7-37.2s75.7 16.7 75.7 37.2c0 20.6-33.9 37.2-75.7 37.2z"/><path d="M166.9 94.4c0 9.1-7.5 17.8-21.1 24.5-14 6.9-32.7 10.7-52.6 10.7s-38.6-3.8-52.6-10.7c-13.6-6.7-21.1-15.4-21.1-24.5S27 76.6 40.6 69.9c14-6.9 32.7-10.7 52.6-10.7s38.6 3.8 52.6 10.7c13.7 6.7 21.1 15.4 21.1 24.5zM141 88c-.2 1.4-1.6 1.9-2.1 3.2.8.4 1.8 0 2.5-.3.7-.5 1.9-1.3 1.2-2.3-.1-.8-1-1-1.6-.6zm8.7 2.8c-2 .5-3.5-1.1-5.3 0-4.9 4.2 3 7.1 2.8 11.3.1 1.9-1.5 2.9-3 3.7-1.3.3-2.8.2-3.9-.5-1.6-1.1-1.6-3.6-1.3-5.1h-.5c-.8.8-1.5 1.9-1.4 3.2 0 1 .8 1.7 1.2 2.5 1.3 1.4 3.3 1 5.1 1.1 2.2-.8 5.1-2.3 5.6-5 .4-1.4 0-2.9-.9-4-.9-2.3-4.8-3.7-2.8-6.3 5.2-.8 2.7 6.8 7.6 7 2.5-.2 4.8-1.4 5.8-3.7.3-1.3.4-3.2-1.1-3.9-1-.5-2.3.1-2.8.9.4.3.9-.2 1.4 0 .5.5 1.4.4 1.6 1.2.2.9-.2 1.6-.4 2.5-1.2 1.8-3.3 2.6-5.3 2.3-2.6-.9-1.7-3.9-2.1-6l-.3-1.2zM129 104.4c.7-4.2 5.1-8.9 1.4-12.9-1.6-1-3.8-1-5.7-.7-1.5.5-2.6 1.6-3.5 2.8-.2 2.3-2.1 4-3.9 5.5.1-2.1 1.5-5.4-.5-7.2-1.7-1.4-4.3-1.2-6.2-.2-.8 0-1.1 1.5-1.9.7 1.3-4.8 3.9-9.1 4.6-14.1-4.2.1-6.9 4.1-11.5 2.6-.8-.8-2.1-1.2-1.6-2.6.7-1.3 2-1.9 3.4-2.1-.9-.3-2.1-.3-3 0-1.3.4-1.7 1.8-1.8 3 .8 2.2 3.3 2.4 5.3 3-1.1.9-2.7 1.5-3.3 2.8h.5c.6-.2 1.1.3.9.9-.8 2.2-1.1 4.9-3.2 6.2-.6.4-1.6.2-1.4-.7-.6-.7-1.5-.1-2.1.2-1.1 1-2.6 2.3-3.9 2.6-.1-1 .9-1.6.5-2.6-.3-.2-.4-.7-.9-.5-1.8.3-3.8 1.4-4.6 3 .6.6 1.7-.7 1.9.5l-3.9 10.9v1.8c.7.1 1.3-.1 1.8-.5 2.1-5 4.4-11.3 10.2-13.2.6 1.3 1.8-.3 2.5.7-1.3 4.2-3 8.3-4 12.7H97c1-.6 2.7-1.2 2.8-2.5-.6-.1-1.3.1-1.8-.2.7-3.3 2.3-6.3 3.2-9.5.5-2.3 3.2-1.2 4-3-.1-1.9-1.7.7-2.5-.9.6-2.3 1.7-4.4 2.5-6.5.4-.8-.2-2.2.5-2.6 1.8.5 3-1.6 4.6-.7-2.7 8.5-6.3 16.6-9.2 25v1.4c.7.1 1.3-.1 1.8-.5 2.3-4 2.2-8.9 5.8-12.4 1.4-1.2 3-2.3 4.9-1.6.8.7 1.3 1.4 1.6 2.3.4 4-1.7 8-5.3 9.9-1.2.3-2.7.1-3.7.9-.5.3.1.7.2 1 4 .4 6.8-2.8 9.5-5.8.3.6.2 1.5 0 2.1-.1 1.5.6 2.8 1.9 3.5 2.4.7 4.9-.4 6.9-1.4.1 0 .1-.1.2-.1.3.1.7-.2.9.2-.3 1.3 1.1 2 2.1 1.4.7-.6 2.2-.8 2.1-1.9-.4 0-.7-.4-1-.7zm-3.7-12.5c1.6-.5 3.4 0 4.2 1.4v1c-.9-.3-2.5-.4-3.7-.4-.8.1-1.6.2-2.3.6-.6-1.2 1-2 1.8-2.6zm.2 11.8c-.4.3-.8.6-1.3.8-1.1.5-2.5 1-3.9.7-1.6-.7-1.8-2.4-1.4-3.9 1.2-3 3.6-5.7 6.9-6.1.9.1 2.4.3 2.6 1.2.6 2.9-1.2 5.2-2.9 7.3zm-42.5.5c.7-4.1 4.6-8 2.1-12.4-1.6-1.5-3.9-1.6-6-1.2-1.9.3-3.3 1.8-4.2 3.5-.9 3.6-4.7 5-5.3 8.8-1 0-1.5 1.5-2.6.7 2.6-8 6.1-15.7 8.8-23.6l.4-.3c0-.8.8-1.6 0-2.3-5.8 1-10.3 5-14.5 8.8l-.9-.5c-1-1.3-1.5-3.1-2.8-4.4-2-2-4.3-3.2-6.7-4.2-6.5-2.1-14-.5-18.2 4.7-1.6 2.1-2.1 5.4-1 7.9 2 2.8 4.8 3.9 8.3 3.9.4-.4 1.6.2 1.2-.9-.4-.3-.9-.1-1.4-.2-2.5-.5-4.9-2-5.8-4.6-.5-3.1.6-5.9 2.8-8.1 3.8-2.9 9.3-2.2 13.4-.5 1.2.5 3 1 3.2 2.6-.4.3-.6.8-1.1.9-2.5 5.7-4 11.8-7.6 17.1-2.6 4-6.4 6.1-11.1 5.1-.6.2-.8.8-.7 1.4.8 1.1 2.4.9 3.7.9 9.4-2.5 13.3-12.8 16.4-21 .8-1.1.7-3.1 2.3-3.2 1.8 1.7 3.1 3.8 3.5 6.2-1.7 3.3-4 6.8-3 10.8.3.9 1.4 1.1 2.1.9.6-.5 1.2-1 1.6-1.5C62.1 96.4 62 91.8 62 88l4.6-4.8c1.9-1.2 3.6-3.1 5.8-3v1.2L63.8 104c-.3.8-.9 2-.2 2.8 2.5.3 4.1-1.8 6-2.6l1.2 1.8c1.3 1.4 3.4 1.1 5.1.9.7-.2 1.4-.5 2.4-1.1.4-.2.8-.3 1.1-.5.6 0 .2.7.3 1 .2 1 1.3.4 1.9.5.9-.7 2.5-.7 2.6-1.9 0-.7-.9.1-1.2-.7zm-24.2-5.7c-1.7-.5-.8-3.1-.5-4 .3-.9.8-1.7 1.2-2.5.7 2.1.3 4.7-.7 6.5zm20.7-6.8c1.5-.5 3.1-.1 4 1.4v.9c-1.1-.2-2.4-.2-3.7 0-.6.1-1.6.2-2.2.4-.5-1.4 1.2-1.9 1.9-2.7zm-.2 12c-.5.3-1 .6-1.5.8-1.6.7-2.4.8-3.4.4-.6 0-1.1-.8-1.4-1.2-.7-3.3 1.6-5.7 4.1-7.4.6-.5 2-1 2.9-1.1 1-.1 1.9.2 2.5 1.1.5 2.9-1.3 5.2-3.2 7.4zM45.5 145c-.8 0-1.7 0-2.6.1-.9 0-1.8.1-2.7.1h-1.7c-1.3 0-3.1-.1-4-.1-.3 0-1.3 0-1.3.9 0 .1.1.9 1.1.9h.4c.3 0 .6 0 .9.1.5.1.8.4.8 1.5.1 1.2.1 4 .1 8.1v6.7c0 3.7-.1 6.4-.2 7.9-.2 1.6-.5 1.6-.8 1.7-.3.1-.7.1-1 .1-.9 0-1.2.5-1.2.9 0 .3.2.9 1.2.9.9 0 3.1-.1 4.4-.1H40.6c1.3 0 3.8.1 5.6.1 1.1 0 1.2-.6 1.2-.8 0-.9-.9-.9-1.1-.9h-.2c-.4 0-.9-.1-1.3-.2-.7-.1-.9-.5-1-1.6-.2-1.6-.2-5-.2-8v-14.5-.5c.2 0 .4-.1.9-.1 1.2 0 2.2.5 3 1.4 1.1 1.3 1.6 3.1 1.6 5.9 0 1.6-.4 5.4-3.8 5.4-.8 0-1.3.3-1.3.9 0 .6.5.8.7.9.3.1 1 .1 1.2.1 5 0 10.4-3.3 10.4-9.5 0-3-1.4-4.8-2.1-5.4-1.7-2-4.6-2.9-8.7-2.9zM71.6 173h-.2c-.4 0-.9-.1-1.3-.2-.7-.2-.9-.5-1-1.5-.1-1.6-.2-5.3-.2-8.1v-6.7c0-5.8 0-6.9.1-8.1.1-1.3.4-1.5.9-1.6.3 0 .5-.1.7-.1h.3c1.1 0 1.2-.7 1.2-.9 0-.3-.2-.9-1.3-.9-.9 0-3 .1-4.4.1h-2.3c-1.2 0-3.2-.1-4.2-.1-.3 0-1.3 0-1.3.8 0 .4.3.9 1.1.9.4 0 .8.1 1 .1.2 0 .7.1.8 1.5.1 1.2.1 2.3.1 8.2v6.7c0 3.7-.1 6.4-.2 8-.1 1.4-.4 1.6-.7 1.6-.4.1-.7.1-1 .1-1.1 0-1.2.7-1.2.9 0 .9 1 .9 1.3.9.9 0 3.1-.1 4.3-.1H65.8c1.3 0 3.8.1 5.6.1 1.2 0 1.2-.7 1.2-.9.2-.2-.1-.7-1-.7zM97.8 166.3c-.7 0-.8.7-.9 1-.1.4-.2.7-.3 1.2-.5 1.5-1.6 2.4-5.8 2.4h-6.1c3.4-5.9 8.4-14.5 13.3-23.5.3-.6.5-.9.5-1.3s-.3-.9-1-.9H84.9c-1.6 0-3.2 0-6-.1-.4 0-.7-.1-.9-.2-.2-.1-.4-.1-.5-.1-.5 0-.8.4-.9 1.2 0 .4-.1.9-.2 1.6-.3 2.3-.5 4.2-.5 4.7 0 .4 0 1.2.8 1.2.6 0 .9-.7 1-1.1.4-1.5 1-2.4 1.8-2.8.9-.5 2.1-.7 4.7-.7h5.2c-4 7.2-8.9 15.6-13.5 23.3-.5.8-.7 1.1-.7 1.6 0 .4.3.9 1.1.9 4.4 0 8.3.1 11.6.1 2.9 0 5.6.1 8.4.1 1.1 0 1.3-.9 1.4-1.3.4-1.3 1-4.7 1-5.9-.1-.4-.1-1.4-.9-1.4zM123.1 166.3c-.7 0-.8.7-.9 1-.1.4-.2.7-.3 1.2-.5 1.5-1.6 2.4-5.8 2.4H110c3.4-5.9 8.4-14.5 13.3-23.5.3-.6.5-.9.5-1.3s-.3-.9-1-.9h-12.6c-1.6 0-3.2 0-6-.1-.4 0-.7-.1-.9-.2-.2-.1-.4-.1-.5-.1-.5 0-.8.4-.9 1.2 0 .4-.1.9-.2 1.6-.3 2.3-.5 4.2-.5 4.7 0 .4 0 1.2.8 1.2.6 0 .9-.7 1-1.1.4-1.5 1-2.4 1.8-2.8.9-.5 2.1-.7 4.7-.7h5.2c-4.1 7.2-8.9 15.6-13.5 23.3-.5.8-.7 1.1-.7 1.6 0 .4.3.9 1.1.9 4.4 0 8.3.1 11.6.1 2.9 0 5.6.1 8.4.1 1.1 0 1.3-.9 1.4-1.3.4-1.3 1-4.7 1-5.9-.1-.4-.1-1.4-.9-1.4zM154.4 173h-.3c-.2 0-.5 0-.8-.1-.9-.1-1.6-.8-2.8-3.8-1.1-2.7-3-7.2-4.7-11.5-2.1-5.1-4-9.9-4.5-11-.7-1.5-1-2.2-1.7-2.2s-1.2.8-1.9 2.5l-9.4 23c-.7 1.7-1.3 2.7-2.3 3-.3.1-.7.1-1 .1-1 0-1.2.5-1.2.9 0 .2.1.9 1.2.9 1.2 0 2.7-.1 3.6-.1h.9c1 0 1.8 0 2.5.1.7 0 1.4.1 2.2.1 1 0 1.2-.5 1.2-.9 0-.2-.1-.9-1.1-.9h-.4c-.3 0-.6-.1-.9-.1-.5-.1-.6-.2-.6-.6 0-.4.2-1.3.5-2.3l1.1-3h7.8l2.4 5.9h-.1c-.8.2-.9.7-.9.9 0 .4.2.8 1.3.8h.7c2.4 0 5.9.1 9.1.1.4 0 1.4 0 1.4-.9-.2-.2-.3-.9-1.3-.9zm-14.1-10.1h-5.1l2.5-6.7 2.6 6.7zm.5 0v.5-.5zm-7.1 4v-.5.5z"/></g><g id="Layer_2"><path d="M203.7 146.7c-2 .1-2.6-1.4-3.2-2.9-.5-1.2-1.1-2.2-2.6-2.7s-2.6 0-3.7 1c-.7-.4-1.3-.8-1.8-1.2.5-1.6 1-3.2 1.5-4.9 1-3.8.4-7.2-2.8-9.9-1-.8-2.1-1.5-3.3-2.2.3-.5.7-1 1-1.5 1.6-2.9 3.6-5.6 4.7-8.6 1.8-4.9 3.7-9.9 3.6-15.4-.1-2.6-.2-5.2-.8-7.7-1-3.9-2.4-7.6-3.7-11.4-.2-.5-.7-.9-1.1-1.3-1-1-2.4-1.8-3.1-3-.9-1.5-1.4-3.3-1.9-4.9-1.1-3.2-2.2-6.4-3.2-9.6-.4-1.4-.5-3-.7-4.4 1.2 1.4 2.3 2.9 3.6 4 1.9 1.7 3.6 1.9 5.2.6 1.1-.8 2.1-1.8 2.8-3 1.4-2.2 2.6-4.5 3.8-6.9 1.4-2.9 1.6-6 1.3-9.2-.3-3.7-2-6.8-5.1-9-1.7-1.2-3.7-1.6-5.8-1-1.7.5-3 1.4-3.9 3.1.2-2.7-.9-5-1.7-7.3-.2-.6 0-1.3.2-1.9.3-.9.8-1.8 1.2-2.7.8-1.9 1.4-4 2.9-5.5 2.4.9 3.7.4 5.3-1.6 1.3-1.6 2.6-3.1 3.9-4.7.3-.4.8-.8 0-1.2-.3-.2-.5-.7-.5-1.1 0-1.7 1.9-3.6 3.6-3.8.3 0 .8-.2.8-.5.1-.2-.2-.7-.4-.8-1.1-.9-2.6-1-3.9-.9-3.3.4-5.7 2.2-7 5.3-.2.5-.5 1-.9 1.7-.4-1.3-.7-2.3-1-3.2-3 1.1-3.4 6-.9 10.4-1.3 2.9-2.6 5.8-4 8.9-1.2-1.9-2.3-3.6-3.4-5.3-.2-.3-.5-.5-.8-.8-.2.4-.5.7-.4 1.1.2 2.6-.4 5.1-1.4 7.6-.8 2.1-1.3 4.2-.8 6.4.2.7.4 1.5.7 2.2-1.1-.2-2.3-.9-3.3.2.7 1.7 2.7 2.9 2 5.3-1-.1-2.1-.3-3.1-.4-.5 3-.1 4 2.3 5.6 1 .7 2.3 1.3 2.3 2.9-.8.4-1.7.8-2.6 1.2-1.5.7-2.6 3.1-2.3 4.7 0 .2.2.5.4.5s.6-.1.6-.3c.6-1.2 1.6-1.5 2.8-1.5.3 1.2 1 1.5 2 .8.6-.3 1.2-.6 1.7-.9 3.6 4.3 4.6 9.8 6.3 15-1.2-.8-2.3-1.8-3.5-2.7l-12.3-8.7c-2.9-2-6-3.9-9-5.6-2.3-1.3-4.6-2.4-7-3.4-2.8-1.1-5.7-2-8.6-3-.5-.2-1.1-.2-1.6-.3-.5-.1-1.1-.1-1.6-.1 0-.1 0-.2-.1-.4.2-.2.4-.4.7-.5.7-.4 1.4-.9 1-1.7-.5-1-1.2-.2-1.8 0-1.9.7-4.1 1.1-5.7.2.8-.3 1.4-.5 1.9-.7.3-.1.6-.4.6-.6 0-.2-.2-.6-.4-.7-1.5-1.1-3.4-1.2-4.9-.1-1.5 1-3.1 1.6-5 1.4-.3 0-.7.3-.8.5-.4.7-.9.7-1.6.5-1.6-.3-3.2-.6-4.8-.8-1.8-.2-3.6-.3-5.3-.5-3.9-.4-7.8-1.1-11.6-1.3-5.8-.3-11.7-.5-17.6-.5-5.3.1-10.5.6-15.8 1-2.1.2-4.2.4-6.3.8-3.6.8-7.1 1.8-10.7 2.6l-10.5 2.2-3.1.8-3 1.3c-2.9 1.3-5.8 2.6-8.6 4.1-2 1-3.8 2.4-5.7 3.7-.8.5-1.7 1.3-2.6 1.5-2.6.4-4.6 1.7-6.5 3.4-.2.1-.1.9 0 1 1.1.3.8 1.1.7 1.8-.3 1.7-.4 3.4.2 5 .5 1.2 1.1 2.4 1.6 3.7-2.7-.9-5.3-.2-8.1 1 1 .5 1.9.9 3 1.4-3.1 1.4-3.7 1.3-6.5-.5-.7-.4-1.7-.7-2.4.1-.6.7.1 1.3.6 1.8 1.3 1.4 2.4 3 4.2 3.8 1.3.6 2.6 1.4 4 2.2.1 1.1.3 1.2 1.8 1 .7-.1 1.3-.3 1.9-.5 1.3-.4 2.7-.5 2.8-2.4 0-.4.3-1 .6-1.3 2.4-2.4 3-5.4 2.5-8.6v-.6c.1-1.1.2-2.2.4-3.2h.3l.3 2.1c.5-.1.8-.2.8-.2.5-.8.9-1.4 1.4-2 1-1.5 2.2-2.8 1.4-4.8-.1-.2 0-.4 0-.5-.3-5.7 30.6-15.7 30.6-15.7 23.2-5.8 46.3-6 69.6-.7-.5.7-.7 1.4-1.7 1.5-.9.1-1.6.8-2.4 1.3 0 .1.1.2.1.3.4-.1.8-.2 1.1-.2.3 0 .8.2.9.4.3.7.6 1.5.7 2.2.4 2.1.9 2.7 3 3 .3 0 .6.2.7.2-.4 1.1-1.2 2.2-1.1 3.2.2 1.1 1.3 1.9 2.7 2.1-.1-1.3.3-2.2 1.5-2.6.2-.1.3-.3.4-.5.1-1.1.2-2.1.3-3.2 0-.3.1-.7.2-1.1.3.2.6.3.7.5.3.6.6 1.2.8 1.8.5 1.6 1.2 2 2.8 1.7.2 0 .4.1.6.3.5.4 1 .8 1.4 1.3.8.9 1.7 1.1 2.9.4-.2-.5-.4-1-.7-1.7 3.4 1.8 6.7 1.7 10 1.1 2-.3 4-.4 6.1-.5.6 0 1.1.1 1.7.2 0-.1.1-.2.1-.4-1.7-1-3.3-2-5-3.1-1.7-1.1-3.2-2.3-4.4-4.2.4.1.7.1.9.2 4.6 1.1 8.8 3.4 12.9 5.6 2.7 1.4 5.2 3 7.8 4.6 2.1 1.3 4.2 2.6 6 4.2 2.9 2.4 5.5 5.1 8.3 7.7 1 .9 2 1.8 3.1 2.8-1.1-.1-2.1-.3-3.1-.3-1-.1-2.1 0-3.3 0 .3.6.5 1 .8 1.4-2.9.5-5.3 2.7-6.5 6.2-.6 1.6-.7 3.4.4 4.8 1.7-1.3 3.4-2.5 5.1-3.8-.3.9.1 1.3.8 1.6 2 .8 4 .5 6 0 1.1-.3 2-1.1 3-1.7.6-.4 1.2-.8 1.9-1.2.9 2.3 1.9 4.3 2.5 6.4.7 2.4 1.3 4.9 1.5 7.3.2 2.2 0 4.4-.3 6.6-.2 1.7-.6 3.5-1.2 5.2-1.1 3.4-2 6.8-4 9.9-1.2 1.9-2.3 3.9-3.5 5.8-.2.3-.9.5-1.2.4-2.9-.8-5.9-1.7-9-1.5h-.5c-1.7-.9-3.4-1.8-4.9-2.8-1.9-1.3-3.8-2.3-6.2-1.9-.9.1-1.9 0-2.4 1.1 1.1.8 2.5 1.4 2.3 3.2-1 0-2.1-.3-2.8.1-1.1.7-2.6.4-3.6 1.6-1.2 1.3-3.1 2-4.8 2.9-1.9 1-3.9 1.9-5.7 2.9-1 .6-1.8 1.5-2.7 2.3-1 .9-2.1 1.6-2.9 2.6-1.8 2.4-2.1 4.2.6 6.4 2.4 1.9 5.2 2.4 8.1 2.3 5.7-.3 11.1-1.7 16.3-3.9 3.1-1.3 6.1-2.8 8.9-4.6 3.4-2.3 6.5-5.1 9.2-8.3.3-.4.6-.8.9-1.3 1.5 1 2.9 1.6 3.9 2.6 3.8 4 2.9 8.2.7 13.2-.6-.3-1.1-.6-1.7-.9-.6-.2-1.2-.5-1.8-.6-2.6-.4-3.1-.5-3.4-2.8 0-.2-.4-.5-.6-.6-.1 0-.5.2-.5.4-.2.6-.3 1.3-.5 2-1.4.1-2.9 0-4.3.4-2.1.5-4.3 1.2-6.2 2.2-1.5.7-2.7 2-4 3.1-1.8 1.5-3.1 3.3-4.1 5.4-.6 1.4 0 4.2 1.1 5 1.8 1.3 3.9 1.8 6 1.6 2.3-.2 4.6-.5 6.9-.8-.8.9-1.9 1.7-2.9 2.6-.3.2-.4.7-.4.9 1.7 1.2 3.2.8 4.8.1 0 .3.1.4.1.4-1.4 2.5-2.1 5.2-2.2 8 0 1 0 2.1-.3 3.1-.6 2-1.3 3.9-2 5.8-.1.3 0 .6-.1 1.3 1-.8 1.6-1.3 2.3-1.9.7-.6 1.3-1.2 2-1.7-.3 1.9.4 3.3 1.4 4.5 1.1 1.2 2.5 2 4.3 1.7-2.5.7-2.9 1.7-3.1 3.8-.1 2.1 1.3 4.1 3.1 4.7 2.4.8 3.9-.4 5.1-2.4-.1.4-.3.7-.4 1.1-1 2.8.4 5.6 3.1 6.4 2.2.6 4.2-.4 5-2.6.7-1.7.7-3.4-.3-5-.8-1.3-2-1.9-3.5-2-.5 0-1.3-.6-1.3-1.1-.1-.8.6-.9 1.3-.9 3.2-.3 4.3-2.6 3.9-5.4-.2-1.7-1.2-2.9-3-3.3-2-.5-3.8-.1-5.2 1.3-.3-1-.6-1.9-.8-2.9 1.8.6 3.7 1.4 5.3 0 2.2-1.9 2.7-4.3 1.6-7-.7-1.9-2.1-2.8-4.1-2.7.8-1.3 1.5-2.5 2.3-3.8.1-.2.4-.4.6-.4.8-.1 1.6-.2 2.3-.3 1.7-.2 2.1-1 .9-2.3-1.1-1.2-2-2.3-1.9-4.2.1-1.5-.2-3.1-.3-4.5.3.3.7.6 1.1.9 2 1.5 4.3.8 6.5 1 .1 0 .5-.4.4-.4-.1-1.1-.3-1.5-.5-1.5zM191.6 10.1c.1 0 .2.1.3.1-.5 1.1-1 2.1-1.4 3.2-.1-.1-.2-.1-.3-.2.4-1 .9-2.1 1.4-3.1zM181 34.3v3.8h-.1c-.1-1.2-.2-2.5-.2-3.7 0-.1.1-.1.3-.1zm-1.5 17.5c1.6-.1 1.6-.1 1.8 1.7.1 1.1.3 2.2.5 3.5-1.4-1.5-2.6-3-2.3-5.2zm3.6-10.3c1.7-.8 2-2.4 2-4 0-1.8 1-3.6 2.6-4.2 2.5-1 4.7-.8 6.9 1.1 3.5 3.1 4.1 7 3.6 11.3-.3 2.9-1.1 5.7-2.5 8.2-1.2 2.1-2.6 4-4.5 5.6-1.3 1-2.5 1.1-3.9 0-.9-.6-1.6-1.5-2.6-2.4.9-.2 1.4-.2 1.9-.4.3-.1.7-.3.8-.5.8-1.2 1.7-1.4 3-1 .5.2 1.2.1 1.7 0 .2 0 .4-.9.2-1-1.1-.9-2.2-1.9-3.5-2.6-.7-.4-1.7-.2-2.9-.3-.9-1.3-.9-1.2.3-2.6.3-.4.5-1 .5-1.5.1-1.4.7-1.7 2-1.6 1.9.1 3.3-.8 3.7-2.3 0-.1 0-.3-.1-.7-1.8.9-3-.2-4.4-1-1.7-1-3.9-.2-5.1 1.8-.1.2-.2.5-.4.7-.5-1.3-.4-2.1.7-2.6zM6.9 78.9H14c-2.4.7-4.8.9-7.1 0zm122.5-30.3h7.5c-.9.9-5.6.9-7.5 0zm9 1.3c.1-.1.1-.3.2-.4 2.5 1.4 5.1 2.8 7.6 4.3-2.7-1.1-5.5-2.1-7.8-3.9zm43.7 29.6c2.3-.4 4.4-.6 6.4.6-2.1-.2-4.2-.4-6.4-.6zm3 46.8c-3.6 4.1-7.9 7.5-12.8 10-3 1.5-6.4 2.5-9.6 3.6-3.4 1.2-7 1.8-10.7 1.9-3.1.2-5.9-.8-8.4-2.7-1.1-.9-1.3-2.6-.3-3.8 1.3-1.6 2.7-3.1 4.3-4.3 2.2-1.6 4.7-2.9 7.1-4.2-.6 2.3-2.6 4.5-4.8 5.4-1.1.4-2.2 1-3.2 1.5-.3.2-.4.7-.5 1.1 2.1-.4 3.7-.4 5.6.2 1.8.6 3.9.7 5.8.4 2-.4 3.9-.7 5.9-.7.8 0 1.5-.1 1.5-1.2 0-.3.4-.5.7-.8.2.3.4.5.6.8 1.5-1.3 2.8-2.6 3-4.7.1-1.1.8-1.9 2.3-2l-.3 1.8c0 .3-.1.9 0 .9.3.2.8.2 1.1.1l4.5-2.4c.2-.1.6 0 1 0 .4-.5.4-.5.4-4.5 2.6.6 5.2 1.1 8 1.8-.4.7-.8 1.3-1.2 1.8zm3.8 20.5c-1.1 2.3-2 4.3-3 6.3.6-2.2.9-4.5 3-6.3zm-9.2 24c-.1-.1-.3-.1-.4-.2 1.1-2.2 2.1-4.5 3.2-6.7.1.1.2.1.4.2-1.1 2.2-2.1 4.4-3.2 6.7zm3-24.2c-2.8-.3-4.1 1.8-5.6 3.4-.1.1.2 1 .4 1 1.2.3 1.5 1.2 1.7 2.3-3.3 1.4-6.7 2.1-10.1 1.3-2.4-.6-3.7-1.5-4-3.9-.2-1.6.6-2.8 1.5-3.8 2.5-3.1 5.5-5.6 9.5-6.9 2.4-.8 4.8-.8 7.1-1.1 1 2 1.9 3.7 2.8 5.5-1 .5-3.3-.3-3.3 2.2zm1.7 23c.9-.9 1.8-1.7 2.9-2.7.1 1.3.1 2.3.2 3.3-1.2-.2-2.1-.4-3.1-.6zm6.2 11c.7.9 1.5 1.8 2.3 2.7-.6.8-1.2 1.5-1.7 2.2l-.3-.3c.5-3.8-1-5.4-4.3-5.8.7-.6 1.4-1.1 2.1-1.6.6.9 1.2 1.9 1.9 2.8zm-.6-17.5c-.1-.1-.2-.1-.3-.2.3-.7.5-1.5.9-2.2.7-1.3.8-2.6-.1-3.9-.4-.5-.7-1.2-1-1.8-.5-1-.2-1.9.4-2.8 1.2 1.9 2 4 4.3 4.8-1.2 2.2-2.4 4.4-4.2 6.1zm5.5-12.3c-.2-1.8-.5-3.5-.7-5.3.1 0 .3 0 .4-.1.3 1.7.7 3.5 1 5.2-.2.1-.5.2-.7.2z" id="mtTbf5_2_"/></g><g id="new_leaf"><path d="M59.7 49.7c0-.1-.2 0-.4.1s-1.1-2-1.5-3.1c-.3-1.1-4.1-3.1-4.5-3.5-.4-.3-1.7-3-2-3s-1.2 2.1-1.3 2.5c-.1.3-.4 1.4-1.1 1.3-.7-.1-5.8-3.6-6.1-2.9s-.1 2.4 0 2.7c.1.3-.2.5-.7.5-.4 0-3-1.3-4.3-1-1.3.3-7.3.3-7.9.3-.6 0-2.9-.5-3.5-.6-.6-.1 5.3 6 6.5 7.1l4.6 2.2c.4.2-1.2.3-.7.5l1.5.6c3.2.7 6.9 1.6 8.3 1.9 1.4.3 6.4-.8 5.7.2-.7 1 .1 1.9 3.1 2.5 3.2.7 4.3-8.2 4.3-8.3zM37.5 48.3l7.3-1.4-7.3 1.4z"/></g></svg>