<svg xmlns="http://www.w3.org/2000/svg" viewBox="0 0 214.5 94.5"><path d="M116.5 53.2c.1-.3.3-.8.3-1 0-.4-.3-.5-.6-.6-.3 0-.7.1-.7-.3 0-.3.3-.3.5-.3h2.8c.2 0 .5.1.5.3 0 .3-.4.3-.7.3-.7.1-.9.8-1.2 1.4l-3.5 8c-.1.3-.2.4-.5.4-.5 0-.5-.2-.7-.6l-3.5-7.9c-.1-.3-.3-.7-.5-1-.2-.2-.4-.2-.7-.3-.2 0-.4-.1-.4-.4 0-.3.4-.3.6-.3.8 0 1.6.1 2.4.1.6 0 1.3-.1 2-.1.2 0 .7 0 .7.3 0 .4-.6.3-.9.3-.2 0-.4.2-.4.4s.1.5.2.7l2.3 5.2 2-4.6z"/><path d="M123.3 59c0 1-.1 1.4 1 1.5.2 0 .5.1.5.4 0 .2-.2.3-.4.3-.9 0-1.7-.1-2.6-.1-.8 0-1.6.1-2.4.1-.2 0-.4-.1-.4-.3 0-.3.3-.3.4-.4 1.1-.2 1.1-.5 1.1-1.5v-5.8c0-1 .1-1.4-1-1.6-.2 0-.5 0-.5-.3s.2-.3.4-.3c.9 0 1.7.1 2.6.1.8 0 1.6-.1 2.4-.1.2 0 .4.1.4.3 0 .3-.3.3-.5.3-1.1.2-1.1.5-1.1 1.6V59zM134.6 53.3c0-.3 0-.9-.1-1.2-.2-.4-.5-.5-.9-.6-.3 0-.6.1-.6-.3 0-.3.4-.3.6-.3h3c.3 0 .5.1.5.3 0 .4-.6.3-.9.3-.8.1-.7.9-.7 1.5v7.7c0 .5.1.7-.5.7-.4 0-.6-.3-.9-.6l-6.6-8.1v5.4c0 .4 0 1.2.1 1.6.2.5.5.6 1 .6.2 0 .7 0 .7.3s-.3.3-.5.3c-.5 0-1-.1-1.6-.1-.5 0-1.1.1-1.6.1-.2 0-.5-.1-.5-.3 0-.4.4-.3.7-.3.4 0 .6-.1.7-.5.2-.5.2-1.4.2-1.9V53c0-.6.1-1.4-.8-1.4-.3 0-.7 0-.7-.3s.3-.3.6-.3h3c.7 0 .6 0 1 .5l4.8 5.8v-4zM141.5 54.6c0 .5 0 .8.6.8.4 0 1.1 0 1.4-.1.5-.1.7-.4.8-.9.1-.2.2-.5.5-.5s.3.2.3.4c0 .4 0 .9-.1 1.4 0 .4 0 .9.1 1.4 0 .2-.1.5-.4.5-.8 0-.2-1.6-2-1.6h-.7c-.6 0-.5.3-.5.7v1.9c0 .4 0 1 .3 1.4.3.4.8.5 1.3.5 1.2 0 2.2-.5 2.7-1.5.1-.2.3-.6.6-.6s.4.1.4.4c0 .2-.1.6-.1.7l-.2 1.3c0 .2 0 .3-.3.3-1.2 0-2.5-.1-3.7-.1-1.6 0-3.2.1-4.8.1-.2 0-.4-.1-.4-.3 0-.3.2-.4.5-.4 1.1-.2 1.1-.5 1.1-1.5v-5.8c0-1 .1-1.5-1-1.6-.2 0-.5-.1-.5-.2 0-.3.2-.4.4-.4 1 0 2 .1 3 .1 1.7 0 3.5-.1 5.3-.1.4 0 .3.3.3.6v1.3c0 .2.1.5-.3.5-.3 0-.4-.3-.5-.4-.2-.3-.5-.6-.8-.9-.4-.3-.9-.3-1.3-.3-.3 0-1.2 0-1.5.1-.2.1-.2.6-.2.8v2zM155.7 52.9c.1-.2.3-.5.3-.7 0-.4-.4-.5-.7-.6-.4 0-.8 0-.8-.3s.3-.4.5-.4c.5 0 1 .1 1.5.1.6 0 1.2-.1 1.9-.1.2 0 .5.1.5.4 0 .2-.2.2-.4.2-.3 0-.6.1-.9.3-.5.3-.9 1.1-1.2 1.5l-2.1 2.9V59c0 1-.1 1.4 1 1.5.2 0 .5.1.5.4 0 .2-.2.3-.4.3-.9 0-1.7-.1-2.6-.1-.8 0-1.6.1-2.4.1-.2 0-.4-.1-.4-.3 0-.3.3-.3.5-.4 1.1-.2 1.1-.5 1.1-1.5v-2.2l-3-4.1c-.2-.3-.4-.6-.7-.8-.2-.2-.3-.3-.6-.3s-.6 0-.6-.3.4-.3.6-.3c.7 0 1.4.1 2.2.1.9 0 1.8-.1 2.7-.1.2 0 .6 0 .6.3s-.5.3-.7.3c-.2 0-.6.1-.6.4 0 .2.3.7.5.9l2 2.7 1.7-2.7zM195.2 27.8c.7 1-.6 1.8-1.2 2.3-.7.4-1.6.8-2.5.3.5-1.2 1.9-1.8 2.1-3.2.5-.3 1.4-.1 1.6.6zM202.7 31.1c.4 2.1-.4 5.1 2.1 6 2 .3 4.1-.5 5.3-2.3.1-.8.5-1.5.4-2.5-.2-.8-1.1-.8-1.6-1.2-.5-.2-1 .3-1.4 0 .6-.8 1.8-1.4 2.8-.9 1.5.7 1.3 2.6 1.1 3.9-1.1 2.3-3.3 3.5-5.8 3.7-4.9-.3-2.4-7.9-7.6-7-2 2.6 1.9 4.1 2.8 6.3.9 1.1 1.3 2.6.9 4-.5 2.6-3.4 4.1-5.6 5-1.8-.1-3.8.3-5.1-1.1-.4-.8-1.3-1.5-1.2-2.5 0-1.3.7-2.4 1.4-3.2h.5c-.3 1.6-.3 4 1.3 5.1 1.1.7 2.6.9 3.9.5 1.5-.8 3.1-1.8 3-3.7.1-4.2-7.8-7.1-2.8-11.3 1.8-1.1 3.3.5 5.3 0l.3 1.2zM163.3 56.9h-1c-.2 0-.5.1-.5-.2 0-.1.1-.4.2-.5l1.1-2.7 1.1 2.8c0 .1.2.3.2.4 0 .2-.4.1-.6.1h-.5l-.1.8h.9c.6 0 .6 0 .8.5l.5 1.3c.1.2.2.4.2.6 0 .6-1.2.1-1.2.7 0 .3.3.3.5.3.8 0 1.6-.1 2.5-.1.7 0 1.3.1 2.1.1.2 0 .6 0 .6-.3 0-.4-.3-.3-.6-.3s-.5-.1-.7-.4c-.2-.2-.3-.6-.4-.8l-3.5-7.9c-.2-.5-.2-.7-.7-.7-.7 0-.7.3-.9.8l-2 4.5-.9 2.3c-.2.5-.5 1.3-.7 1.7-.3.4-.4.5-.9.6-.2 0-.5.1-.5.3 0 .3.3.3.5.3h3.2c.2 0 .6-.1.6-.3 0-.7-1.7 0-1.7-1.2 0-.5.2-1 .4-1.5s.2-.5.7-.5h1.5l-.2-.7z"/><path d="M174.1 54v-1.3-.8c.1-.2.5-.3.8-.3 1.2 0 1.8 1 1.8 2 0 .6-.3 1.2-.8 1.6-.4.3-1 .4-1.5.4s-.4-.3-.4-.7v-1.1l-2.8-.2V59c0 1.1 0 1.3-1.1 1.5-.2 0-.5.1-.5.4 0 .2.2.3.4.3.8 0 1.6-.1 2.4-.1.9 0 1.7.1 2.6.1.2 0 .4-.1.4-.3 0-.3-.3-.3-.5-.4-1.1-.2-1-.6-1-1.5v-2.2c0-.3-.1-.5.2-.5.2 0 .4 0 .6.2.3.2.6.9.8 1.2l1.6 3c.2.3.2.5.6.5h2.8c.2 0 .5 0 .5-.3 0-.2-.1-.3-.4-.3-.7-.1-.8-.5-1.1-1.1l-1.1-2.1c-.4-.8-.8-1.4-1.7-1.4 1.4-.1 2.9-.8 2.9-2.4 0-.8-.4-1.5-1-2-.6-.4-1.4-.5-2.1-.5-1.3 0-2.6.1-3.9.1-.8 0-1.5-.1-2.3-.1-.3 0-.4.1-.4.3 0 .3.3.3.5.3 1 .2.9.6.9 2.2l2.8.1zM185.3 55.7v2.8c0 1.1-.1 2.1 1.3 2.1 1.1 0 2.1-.7 2.7-1.5.6-.9.9-2.1.9-3.1 0-2.2-1.2-4.5-3.7-4.5-1.2 0-1.2.3-1.2 1.4v3l-2.8-.1v-2.5c0-.8 0-1.4-.9-1.3-.2 0-.6.1-.6-.3 0-.8 4.6-.9 5.3-.9 1.6 0 3.1.2 4.5 1.1 1.5.9 2.4 2.3 2.4 4 0 3.4-3.4 5.4-6.5 5.4-1.4 0-2.8-.1-4.2-.1-.3 0-.6.1-1 .1-.2 0-.4-.1-.4-.4 0-.3.3-.3.5-.3 1.1-.2 1-.5 1-1.6v-3.3h2.7zM181.7 43.7c-1.1.6-2.6 1-4 .8-1.6-.7-1.8-2.4-1.4-3.9 1.2-3 3.7-5.7 7-6.2v-1.3c-.9.1-1.7.2-2.4.6-.6-1.2 1-2 1.8-2.6 1.6-.5 3.4 0 4.2 1.4v1c-.9-.3-2.5-.4-3.7-.4v1.3c.9.2 2.4.3 2.7 1.2.5 2.8-1.3 5.1-3 7.2-.4.3-.8.6-1.3.8l.4 1c.1-.1.2-.1.4-.2.3.1.7-.2.9.2-.3 1.3 1.1 2 2.1 1.4.7-.6 2.2-.8 2.1-1.9-.5.2-.7-.2-1.1-.5.7-4.2 5.1-8.9 1.4-12.9-1.6-1-3.8-1-5.7-.7-1.5.5-2.6 1.6-3.5 2.8-.2 2.3-2.1 4-3.9 5.5.1-2.1 1.5-5.4-.5-7.2-1.7-1.4-4.3-1.2-6.2-.2-.8 0-1.1 1.5-1.9.7 1.3-4.8 3.9-9.1 4.6-14.1-4.2.1-6.9 4.1-11.5 2.6-.8-.8-2.1-1.2-1.6-2.6.7-1.3 2-1.9 3.4-2.1-.9-.3-2.1-.3-3 0-1.3.4-1.7 1.8-1.8 3 .8 2.2 3.3 2.4 5.3 3-1.1.9-2.7 1.5-3.3 2.8h.5c.6-.2 1.1.3.9.9-.8 2.2-1.1 4.9-3.2 6.2-.6.4-1.6.2-1.4-.7-.6-.7-1.5-.1-2.1.2-1.1 1-2.6 2.3-3.9 2.6-.1-1 .9-1.6.5-2.6-.3-.2-.4-.7-.9-.5-1.8.3-3.8 1.4-4.6 3 .6.6 1.7-.7 1.9.5L142 44.7v1.8c.7.1 1.3-.1 1.8-.5 2.1-5 4.4-11.3 10.2-13.2.6 1.3 1.8-.3 2.5.7-1.3 4.2-3 8.3-4 12.7h1.8c1-.6 2.7-1.2 2.8-2.5-.6-.1-1.3.1-1.8-.2.7-3.3 2.3-6.3 3.2-9.5.5-2.3 3.2-1.2 4-3-.1-1.9-1.7.7-2.5-.9.6-2.3 1.7-4.4 2.5-6.5.4-.8-.2-2.2.5-2.6 1.8.5 3-1.6 4.6-.7-2.7 8.5-6.3 16.6-9.2 25v1.4c.7.1 1.3-.1 1.8-.5 2.3-4 2.2-8.9 5.8-12.4 1.4-1.2 3-2.3 4.9-1.6.8.7 1.3 1.4 1.6 2.3.4 4-1.7 8-5.3 9.9-1.2.3-2.7.1-3.7.9-.5.3.1.7.2 1 4 .4 6.8-2.8 9.5-5.8.3.6.2 1.5 0 2.1-.1 1.5.6 2.8 1.9 3.5 2.4.7 4.9-.4 6.8-1.4l-.2-1zM117.3 38.8c2.2-3.1 2.2-7.7 2.1-11.5l4.6-4.8c1.9-1.2 3.6-3.1 5.8-3v1.2l-8.6 22.5c-.3.8-.9 2-.2 2.8 2.5.3 4.1-1.8 6-2.6l1.2 1.8c1.3 1.3 3.4 1.1 5.1.9.7-.2 1.4-.5 2.4-1.1l-.6-1.3c-1.6.7-2.4.8-3.4.4-.6 0-1.1-.8-1.4-1.2-.7-3.3 1.6-5.7 4.1-7.4.7-.5 2-1 3-1.1l-.1-1.2c-.6.1-1.6.2-2.2.4-.7-1.3 1-1.8 1.8-2.6 1.5-.5 3.1-.1 4 1.4v.9c-1.1-.2-2.4-.2-3.7 0v1.2c1-.1 2 .2 2.6 1.1.5 2.9-1.3 5.3-3.2 7.4-.6.3-1.1.6-1.7.9l.6 1.3c.4-.2.9-.4 1.3-.6.6 0 .2.7.3 1 .2 1 1.3.4 1.9.5.9-.7 2.5-.7 2.6-1.9-.3-.8-1.2.1-1.4-.7.7-4.1 4.6-8 2.1-12.4-1.6-1.5-3.9-1.6-6-1.2-1.9.3-3.3 1.8-4.2 3.5-.9 3.6-4.7 5-5.3 8.8-1 0-1.5 1.5-2.6.7 2.6-8 6.1-15.7 8.8-23.6l.4-.3c0-.8.8-1.6 0-2.3-5.8 1-10.3 5-14.5 8.8l-.9-.5c-1-1.3-1.5-3.1-2.8-4.4-2-2-4.3-3.2-6.7-4.2-6.5-2.1-14-.5-18.2 4.7-1.6 2.1-2.1 5.4-1 7.9 2 2.8 4.8 3.9 8.3 3.9.4-.4 1.6.2 1.2-.9-.4-.3-.9-.1-1.4-.2-2.5-.5-4.9-2-5.8-4.6-.5-3.1.6-5.9 2.8-8.1 3.8-2.9 9.3-2.2 13.4-.5 1.2.5 3 1 3.2 2.6-.4.3-.6.8-1.1.9-2.5 5.7-4 11.8-7.6 17.1-2.6 4-6.4 6.1-11.1 5.1-.6.2-.8.8-.7 1.4.8 1.1 2.4.9 3.7.9 9.4-2.5 13.3-12.8 16.4-21 .8-1.1.7-3.1 2.3-3.2 1.8 1.7 3.1 3.8 3.5 6.2-1.7 3.3-4 6.8-3 10.8.3.9 1.4 1.1 2.1.9.8-.5 1.4-1 1.8-1.5l-1.1-1c-1.8-.4-.8-3.2-.5-4 .3-.9.8-1.7 1.2-2.5.7 2 .2 4.8-.8 6.6l1.2.9zM195.6 59.2c0-1.1.8-1.9 1.9-1.9 1 0 1.8.8 1.8 1.9 0 1.1-.8 1.9-1.8 1.9s-1.9-.8-1.9-1.9zm1.9 2.3c1.2 0 2.3-1 2.3-2.3 0-1.3-1.1-2.3-2.3-2.3-1.3 0-2.3 1-2.3 2.3 0 1.3 1 2.3 2.3 2.3z"/><path d="M197 60.5h-.4v-2.6h1c.6 0 .9.2.9.7 0 .5-.3.7-.7.7l.7 1.2h-.4l-.7-1.1h-.4v1.1zm.5-1.5c.3 0 .6 0 .6-.4 0-.3-.3-.4-.6-.4h-.5v.8h.5z"/><g><path d="M88.9 69h122.7v.8H88.9z"/></g><g><path d="M88.9 75.6h.8l.8 3.1 1-3.1h.8l1 3.1.9-3.1h.8L93.7 80H93l-1-3.3-1 3.3h-.7l-1.4-4.4zM95.6 75.6h.8V80h-.8v-4.4zM97.5 75.6h1l2.1 3.2v-3.2h.8V80h-1l-2.2-3.3V80h-.8v-4.4zM102.6 75.6h2.9v.7h-2.1v1.1h2v.6h-2v1.2h2.2v.7h-3v-4.3zM108.5 75.6h1.2l1.2 3.1 1.2-3.1h1.2V80h-.7v-3.6l-1.3 3.6h-.5l-1.3-3.6V80h-.7v-4.4zM114.4 75.6h2.9v.7h-2.1v1.1h2v.6h-2v1.2h2.2v.7h-3v-4.3zM118.3 75.6h1.5c.2 0 .4 0 .6.1.2 0 .4.1.5.2.2.1.3.2.4.4.1.2.1.4.1.6 0 .3-.1.6-.3.8s-.4.3-.7.4l1.2 1.9h-.9l-1-1.8h-.6V80h-.8v-4.4zm1.4 1.8h.3c.1 0 .2 0 .3-.1.1 0 .2-.1.2-.2.1-.1.1-.2.1-.3 0-.1 0-.2-.1-.3l-.2-.2c-.1 0-.2-.1-.3-.1h-1v1.2h.7zM125.4 76.6c-.2-.2-.3-.3-.5-.3s-.3-.1-.5-.1-.4 0-.6.1c-.2.1-.3.2-.5.3-.1.1-.2.3-.3.5-.1.2-.1.4-.1.6 0 .2 0 .4.1.6.1.2.2.4.3.5.1.1.3.3.5.3.2.1.4.1.6.1.2 0 .3 0 .5-.1s.3-.2.5-.4l.6.5c-.2.3-.4.5-.7.6-.3.1-.6.2-.9.2-.3 0-.6-.1-.9-.2s-.5-.3-.7-.5c-.2-.2-.4-.4-.5-.7-.1-.3-.2-.6-.2-.9 0-.3.1-.7.2-1 .1-.3.3-.5.5-.7.2-.2.4-.4.7-.5s.6-.2.9-.2c.3 0 .6.1.8.2s.5.3.7.5l-.5.6zM126.8 75.6h.8v1.7h2v-1.7h.8V80h-.8v-2h-2v1.9h-.8v-4.3zM132.9 75.6h.7l1.9 4.4h-.9l-.4-1h-1.9l-.4 1h-.9l1.9-4.4zm1 2.7l-.7-1.8-.7 1.8h1.4zM136.1 75.6h1l2.1 3.2v-3.2h.8V80h-1l-2.2-3.3V80h-.8v-4.4zM142.1 76.3h-1.3v-.7h3.4v.7h-1.3V80h-.8v-3.7zM146.8 78.5c0-.1 0-.2.1-.3 0-.1.1-.2.2-.2l.2-.2c.1 0 .2-.1.3-.1s.2 0 .3.1c.1 0 .2.1.2.2l.2.2c0 .1.1.2.1.3 0 .1 0 .2-.1.3 0 .1-.1.2-.2.2l-.2.2c-.1 0-.2.1-.3.1s-.2 0-.3-.1c-.1 0-.2-.1-.2-.2l-.2-.2c-.1-.1-.1-.2-.1-.3zM155 79.6c-.5.3-1.1.4-1.8.4-.3 0-.6-.1-.9-.2-.3-.1-.5-.3-.7-.5-.2-.2-.4-.4-.5-.7-.1-.3-.2-.6-.2-.9 0-.3.1-.7.2-1 .1-.3.3-.5.5-.7.2-.2.4-.4.7-.5.3-.1.6-.2.9-.2.3 0 .6 0 .9.1.3.1.6.2.8.4l-.6.6c-.1-.1-.3-.2-.5-.3-.2-.1-.4-.1-.6-.1-.2 0-.4 0-.6.1-.2.1-.3.2-.5.3-.1.1-.2.3-.3.5-.1.2-.1.4-.1.6 0 .2 0 .4.1.6.1.2.2.4.3.5.1.1.3.3.5.3.2.1.4.1.6.1.2 0 .4 0 .6-.1.2 0 .3-.1.5-.2v-1h-.9V77h1.7v2.6zM155.9 77.8c0-.3.1-.7.2-1 .1-.3.3-.5.5-.7.2-.2.4-.4.7-.5.3-.1.6-.2.9-.2.3 0 .7 0 .9.2.3.1.5.3.7.5.2.2.4.4.5.7.1.3.2.6.2.9 0 .3-.1.6-.2.9-.1.3-.3.5-.5.7-.2.2-.4.4-.7.5-.3.1-.6.2-.9.2-.3 0-.6-.1-.9-.2-.3-.1-.5-.3-.7-.5-.2-.2-.4-.4-.5-.7-.2-.2-.2-.5-.2-.8zm.8-.1c0 .2 0 .4.1.6.1.2.2.4.3.5.1.1.3.3.5.3.2.1.4.1.6.1.2 0 .4 0 .6-.1.2-.1.3-.2.5-.3.1-.1.2-.3.3-.5.1-.2.1-.4.1-.6 0-.2 0-.4-.1-.6s-.2-.4-.3-.5c-.1-.1-.3-.3-.5-.3-.2-.1-.4-.1-.6-.1-.2 0-.4 0-.6.1-.2.1-.3.2-.5.3-.1.1-.2.3-.3.5-.1.2-.1.4-.1.6zM164.9 78.3c0 .3 0 .5-.1.7-.1.2-.2.4-.4.5-.2.1-.3.3-.6.3-.2.1-.4.1-.7.1-.3 0-.5 0-.7-.1l-.6-.3c-.2-.1-.3-.3-.4-.5-.1-.2-.1-.4-.1-.7v-2.8h.8v3c0 .1.1.2.2.3.1.1.2.2.3.2.1.1.3.1.5.1s.3 0 .5-.1c.1-.1.2-.1.3-.2.1-.1.1-.2.2-.3v-3h.8v2.8zM166 75.6h1.5c.2 0 .4 0 .6.1.2 0 .4.1.5.2.2.1.3.2.4.4.1.2.1.4.1.6 0 .3-.1.6-.3.8-.2.2-.4.3-.7.4l1.2 1.9h-.9l-1-1.8h-.6V80h-.8v-4.4zm1.4 1.8h.3c.1 0 .2 0 .3-.1.1 0 .2-.1.2-.2.1-.1.1-.2.1-.3 0-.1 0-.2-.1-.3l-.2-.2c-.1 0-.2-.1-.3-.1h-1v1.2h.7zM170.1 75.6h1.2l1.2 3.1 1.2-3.1h1.2V80h-.7v-3.6l-1.3 3.6h-.5l-1.3-3.6V80h-.7v-4.4zM176 75.6h2.9v.7h-2.1v1.1h2v.6h-2v1.2h2.2v.7h-3v-4.3zM180.8 76.3h-1.3v-.7h3.4v.7h-1.3V80h-.8v-3.7zM189.5 79.6c-.5.3-1.1.4-1.8.4-.3 0-.6-.1-.9-.2s-.5-.3-.7-.5c-.2-.2-.4-.4-.5-.7-.1-.3-.2-.6-.2-.9 0-.3.1-.7.2-1 .1-.3.3-.5.5-.7.2-.2.4-.4.7-.5s.6-.2.9-.2c.3 0 .6 0 .9.1.3.1.6.2.8.4l-.6.6c-.1-.1-.3-.2-.5-.3-.2-.1-.4-.1-.6-.1-.2 0-.4 0-.6.1-.2.1-.3.2-.5.3-.1.1-.2.3-.3.5-.1.2-.1.4-.1.6 0 .2 0 .4.1.6.1.2.2.4.3.5.1.1.3.3.5.3.2.1.4.1.6.1.2 0 .4 0 .6-.1.2 0 .3-.1.5-.2v-1h-.9V77h1.7v2.6zM190.6 75.6h1.5c.2 0 .4 0 .6.1.2 0 .4.1.5.2.2.1.3.2.4.4.1.2.1.4.1.6 0 .3-.1.6-.3.8-.2.2-.4.3-.7.4l1.2 1.9h-.9l-1-1.8h-.6V80h-.8v-4.4zm1.4 1.8h.3c.1 0 .2 0 .3-.1.1 0 .2-.1.2-.2.1-.1.1-.2.1-.3 0-.1 0-.2-.1-.3l-.2-.2c-.1 0-.2-.1-.3-.1h-1v1.2h.7zM194.4 77.8c0-.3.1-.7.2-1 .1-.3.3-.5.5-.7.2-.2.4-.4.7-.5s.6-.2.9-.2c.3 0 .7 0 .9.2.3.1.5.3.7.5.2.2.4.4.5.7.1.3.2.6.2.9 0 .3-.1.6-.2.9-.1.3-.3.5-.5.7-.2.2-.4.4-.7.5-.3.1-.6.2-.9.2-.3 0-.6-.1-.9-.2s-.5-.3-.7-.5c-.2-.2-.4-.4-.5-.7-.1-.2-.2-.5-.2-.8zm.8-.1c0 .2 0 .4.1.6.1.2.2.4.3.5.1.1.3.3.5.3.2.1.4.1.6.1.2 0 .4 0 .6-.1.2-.1.3-.2.5-.3.1-.1.2-.3.3-.5.1-.2.1-.4.1-.6 0-.2 0-.4-.1-.6s-.2-.4-.3-.5c-.1-.1-.3-.3-.5-.3-.2-.1-.4-.1-.6-.1-.2 0-.4 0-.6.1-.2.1-.3.2-.5.3-.1.1-.2.3-.3.5 0 .2-.1.4-.1.6zM202.9 76.6c-.2-.2-.3-.3-.5-.3-.1-.1-.3-.1-.5-.1s-.4 0-.6.1c-.2.1-.3.2-.5.3-.1.1-.2.3-.3.5-.1.2-.1.4-.1.6 0 .2 0 .4.1.6.1.2.2.4.3.5.1.1.3.3.5.3.2.1.4.1.6.1.2 0 .3 0 .5-.1s.3-.2.5-.4l.6.5c-.2.3-.4.5-.7.6-.3.1-.6.2-.9.2-.3 0-.6-.1-.9-.2-.3-.1-.5-.3-.7-.5-.2-.2-.4-.4-.5-.7-.1-.3-.2-.6-.2-.9 0-.3.1-.7.2-1 .1-.3.3-.5.5-.7.2-.2.4-.4.7-.5.3-.1.6-.2.9-.2.3 0 .6.1.8.2s.5.3.7.5l-.5.6zM204.4 75.6h2.9v.7h-2.1v1.1h2v.6h-2v1.2h2.2v.7h-3v-4.3zM208.3 75.6h1.5c.2 0 .4 0 .6.1.2 0 .4.1.5.2.2.1.3.2.4.4.1.2.1.4.1.6 0 .3-.1.6-.3.8-.2.2-.4.3-.7.4l1.2 1.9h-.9l-1-1.8h-.6V80h-.8v-4.4zm1.4 1.8h.3c.1 0 .2 0 .3-.1.1 0 .2-.1.2-.2.1-.1.1-.2.1-.3 0-.1 0-.2-.1-.3l-.2-.2c-.1 0-.2-.1-.3-.1h-1v1.2h.7z"/></g><path d="M27.2 91.7c-1.6 1.2-2.2 1.6-2.4 0-.1-3.5 2.9-5.9 5.6-7.6.8-.5 1.9-.5 2.4-1.4.3-.9 0-1.9-.3-2.8-.4-.8-1.3-1.1-2.1-.9-.5.1-.7.9-1.4.6-3.4 3.1-6.2 6.1-9.9 9-1.9.5-3.2 2.4-5.4 2.4-.9-.1-2 .3-2.6-.4-.6 0-.9-.8-1.4-1.1-1-.9-.7-2.4-1.3-3.5 0-1.7.5-3.3 1-4.8-1.7-.4-3.2-1.3-4.8-2-.6-.4-.3-1.5-1.3-1.4-.9-.8.7-.5.6-1.3.3-1.3.6-3.1 2.3-3.4.6.2 1.5 0 1.8.9.2.9.3 1.6-.1 2.4-.5.8-1.6 1.2-2.6 1.4-.1 1 1 1.1 1.5 1.5 2.3.4 3.5-2.3 4.6-3.9l.1.1c.3-.8 1-1.4 1.3-2.3.3-.2.3-.5.5-.8l.4.4c-.1-.9 1.4-.5.9-1.5.9-1.1 1.6-2.1 2.3-3.4.1 0 .2-.1.3-.1 0 .2-.1.4.1.5.4-.1.2-.8.6-1-.2-.1-.3-.3-.5-.3l-.4.7c-1-.3-2.3-.7-2.8-1.8-.1-.5.2-.8.4-1.1.9-.2 1.4-1.2 2.4-1.5.9-1.3 2.7-2 3.6-3.3-1.6.3-2.8 1-4.4 1.8-.1 1-1.3.7-1.8 1.3-1.1.9-2.5 2.3-4.1 2.5-.8-.8-2.3-1.5-1.9-2.9 1.2-.8 2.6-1.7 4.3-1.9.3-.8 1.2-.1 1.3-.8 1.5-.3 2.9-1.4 4.4-1.5l.6-.5-.9-.4c-2.2.2-4.6.1-6.6.6-.3-.2 0-1-.6-.8-.3.4-.7.6-1.1.8 0-.4.6-1 1.1-1.1.9.4 1.4 0 2.3-.1.1-.1.2-.1.1-.2-.5-.3-.9.2-1.4.2.5-.9 1.8-.7 2.6-1.4 1.5-.3 3.1-1 4.6-.9-.2-.3-.1-.8-.1-1.2 1.1-.7 2.4-1 3.8-.8 1.2.5 2.2 1.3 3 2.1 0 .5.5.9.9.5.9-.4.2-1.8 1.5-1.6.3.1 0 .6.4.5.6-.2-.2-.5.2-.7.7-.2.6-1.6 1.5-1.1.6-.7.8-1.5 1.4-2.4 1.6.2 1.2-2 2.5-2.4.6-.4.9-1.2 1.4-1.7 1.1-1 2.2-1.5 3.1-2.6.9-.5 1.7-1.1 2.5-1.8.8-.4 1.5-1 2.4-1.3.2-.4.1-.8.8-.6.2-.7 1.2-.6 1-1.5.6 0 .6-.8 1.3-.9 1-.2 1-1.6 2.1-1.8.9-1 1.7-1.5 2.5-2.4.5-.1.7-.7 1.3-1.1-.4-.5-.6.4-1 .2-.8 1.1-2.2 1.7-3 2.5l-.4.4c-.4-.8.8-.6.9-1.4.9.2.7-.7 1.4-.9.6-.8 1.4-1.4 2.1-1.9 1.3-1.4 3-2.9 4.3-4.4 1.8-1.8 3.6-3.3 5.3-5 1.7-1.3 3.2-3.5 5-4.9.7-1.1 1.8-2 2.5-3.1 2-2.6 4.1-5.5 4.1-9.2-.4-.9-1.5-.2-2-.7-2.5.2-4.9.5-7.6.7-1.4.2-2.6.9-3.9 1.1-1.6.4-2.8 1.7-4.5 2-.5.6-1.3.8-2 1.1-1.5.9-3 1.7-4.3 2.9-.3-.1-.6.1-.6.4-.7.7-2.3.9-2 2.3 0 .4-.7.5-.5 1 .4.5.9.9 1.5 1 1.1-.6 1.6-2.7 3.1-2.3.5.9 1.5 1.7 1.3 2.9l-2.6 2.9c.1.4.6 1 1 1.1 1.2-.1 1.3-1.5 2.6-1.5.6-.4 1.3-.8 2.1-.6.8.3.9 1.3 1.4 2 .1 2.2.1 4.7-2.1 5.9-3.3 3.1-6.4 5.4-10 8.5.4.6.6 1.5.1 2.1v.3c-.4.4-.8 1.3-1.4 1.4-2.5 2.2-5 4.3-7.9 5.4-2.1 1.9-4.1 3.7-6.8 5-1.7-.4-3.7.3-4.6-1.6-.5-.1-.8.6-1.4.4-.7-.4-.7-1.3-.5-1.9 1.7-2 3.9-3.3 5.9-4.8-.4 1-.4 2 0 3 .4.2.9.3 1-.3-.8-2 .8-3.2 1.5-4.6-.6 0-.8-1-1.5-.6-1.2.8-2 1.7-3.3 2.3-.7.6-1.7.9-2.4 1.6-1.2.6-1.2-.8-2-1.4-.2-.4-.7-.6-.5-1.3.2 0 .5 0 .6.3.7-.5-.3-.8-.1-1.4-.3-1.6.8-2.8 1.9-3.8.7 0 .7-.7 1.3-1-.5-.7-1 .2-1.5.3-1.4.8-2.5 2.3-2.5 4 .1.5.3 1.5-.4 1.6-.6.3-1.3.6-2 .3-.3-1.5-1.6-.4-2.4-1.3-.8 0-1.1-1-1.4-1.6.2-.7 1.3-.8 1.9-1.3-.2.7.3 1.2.7 1.6.3-.1.4.3.8.1.4-.8-.3-1.9.1-2.9 2.4-2.8 5.4-4.5 7.5-6.9h.4c1.4-1.8 3.6-3.3 5-5.1-.6.1-1.3.7-1.9 1-.9.3-1.5 1.1-2.3 1.6-.6-.9-2.1-1-2.5-2.3-.9-.4-.8-1.6-.6-2.4 1.1-2.5 3.6-3.5 5.8-5.3 1.3-.6 2.5-1.5 4-1.1.7.5 1.7 1.5 2.3 2.3v-.2l.1.1c.8-1.3 2.7-1.7 2.6-3.4-.9-1.7-2.5-2.5-4.5-2.3l-.5-.4c2.2-.2 4.2.6 5.4 2.3.8-.8 1.6-1.8 2.9-1.2.4.5.9.7 1.5.6.3-.6.8-1.1 1.4-1.4 1.1 0 1.7.9 2.5 1.5.8-.4 1.7-.8 2.1-1.6 1.2-.6 2.9-1.3 3.8-2.4 1 0 1.9-.9 2.9-1.1 1.1-.9 2.5-1.1 3.6-1.9 2-.3 3.3-1.8 5.5-1.8.6-.4 1.5 0 2.1-.5.5-.1.9.3 1.1-.3 2.3-.2 4.8-.4 6.6 1 2 2.6.1 6-1.3 8.4-2.2 2.8-4.2 5.2-6.9 7.5-.3 0-.5 0-.6.2.2 1.1-1.4.4-1 1.5-1.5.1-1.7 1.9-3.1 2.1-.5.2-.1.6-.1.9-.8 1.3-2.8 1.9-3.6 3.4-.7-.3-.3.6-.6.9L56.1 30c1-.1 2.2-.8 3.4-.9 1.2-.2 2.3-.5 2.9-1.8.4-.6.7-1.3 1.1-1.9 1.9-1.8 3.4-3.4 5.9-4.5-.1.4.1 1-.3 1.3.9.1 1.2-1.1 2.3-1 .9-1.1 2.2-1 3.3-1.6-.9.5-2 1.3-3 1.8-1.1.4-1.6 1.4-2.6 1.8-1.2 1.2-2.8 2.1-3.5 3.6 1.2.2 2.2-.9 3.4-1 1.2-.8 2.8-.9 4-1.6 3.4-1.1 6.4-1.6 10-2.3.6-.5 1.4-.6 2.1-.9-.2.9.6 2.6-.7 2.8-2.1-.2-.2 2.3-1.6 2.9-1.3.3-.5 2-1.6 2.3-2 .9-4.3 1.1-6.5 1.5v.1c-1.3-.1-3.1-.9-4.1.1h-7.5l.4-.4c-.8-.5-1.3.8-2.1.5-.6.3-1.2.9-1.9.5-.1-.6.7-.3 1-.6.5-.6 1.4-.4 1.8-1.1-1.3 0-2.8.4-4 1.1-1.3.2-2.5 1-3.8 1.4 0-.1-.1-.2-.1-.3-1.1 1.1-2.5 2.4-3.9 3.3-1.2 1.5-3.1 2.6-4.6 4.1.6.8 1.2-.6 1.9.3.8-.1.9.6 1.5.9.4-.7 1.7-1 1.6-2.1 1.5-.4.3-2.4 1.8-2.6 1 .6 1.7 1.7 2.1 2.8.8 3.1-4.8 3.2-2.6 6.4.5-.2 1 .3 1.5.6.6 1 1.4 2 .9 3.3-.3.7-1.5 1.1-.9 2 .4.4.3 1.2.1 1.6-.3.9-.9 1-1.5 1.8 1.1.4 1.4 1.6 2.1 2.3.6.8 1.7 2.1 1.1 3.5-1.9 3.3-5.3 5.5-8.3 7.4.1 1.2.5 2.5-.4 3.5-1.4 1.8-3.2 3.2-5.3 3.1-1.9-.9-1.8-3-2.5-4.5.2-1.2 1.7-1.8 1.5-3.1.4.3.9 0 1.3-.3.1-.8-.7-1.8-.2-2.8-.2-2 4.2-3.2 1-4.9-.5-.5-1.1.3-1.6.5-1.7.6-1.7-3.4-3.1-.9-.4.1-.7.3-1 .5-1.1-.7-1.9-1.9-1.6-3.1.5-1.3 2-1.2 2.5-2.4-.9.1-1.6-.1-2.3-.6-.6-.3-.3-1.1-1.1-.8-1 1.5-2.6 3.2-3.8 4.5.6 0 1.3.3 1.5.9-.5.9-1.3-.1-2 .4-1.5 0-1 2.5-2.5 1.9-1.4 1.6-1.2 4.2-2.6 5.9-.8.7-1.2 1.5-2 2.1-.4-.3-1.3 0-1.4-.6-2.7 3.4-5 6.3-7 10.4-.3 1.3-1.7 2.2-1.8 3.6-2 2.2-3.1 5.5-2 8.4.4.6.8 1 1.4 1.3 1.7.4 2.8-.7 4.3-.9.2-.7 1.2-.1 1.4-1 .7-.2 1.1-.5 1.5-.9.7-.9 2.1-1.1 2.8-2.3 1.5.6.6-1.4 1.9-1.4.5-1.1 1.4-1.4 1.9-2.4.8-1 1.9-1.6 2.4-2.8.2.1.3-.1.5-.3-.4-.6.4-1 .6-1.4 1-1.7 2.1-3.8 1.1-5.9-1-.6-2.4-.6-2.3-2 .9-.5 1.9.3 2.8.8.7.8 1.6 1.3 1.8 2.4.6 2.5-1.3 4-2.3 5.9.5.7 1.2-.2 1.8.3.4.2 1.1.6 1.4 1 .4 1 .5 2.2.2 3.3l.3.3c1.6-.3 3.4-.2 4.3 1.4-.1 1 1.9 2.1.3 2.6-.7.1-1-.5-1.4-1 .2-.8.3-2-.6-2.4l-3 .1c-1.8 2.9-4.2 5.7-6.7 7.9zm51.1-71.9c-1.9 1-4.1 1.6-5.8 2.9-.6.5-1.6.2-1.9 1.1 1.1-.3 2.2-.8 3-1.5 2.4-.5 5-1.4 7.5-2.1.3-.5 1.4 0 1-1-.8-2.1-2.4.5-3.8.6zm-47.9-8.6h-.5l-.3.3.8-.3zm-7.1 4.2h.2c.4-.5.7-.5 1-1.1-.7 0-.5 1-1.2 1.1zm-1.1.8c-.3 0-.4.5-.4.5.2-.2.2-.4.4-.5zm-.9.8c-.1.4-.7.6-.6 1 .2 0 .3-.2.4-.3 0-.2.4-.5.2-.7zm-1.1 2.2H20l-.1.4.3-.4zm-1.7 2.2l-.8 2c.4-.5.9-1.3.8-2zM53.7 8.5c-.8.9-3 1.7-4.3 2.9m15.1 24.8c0 .6-.1 1.3.1 1.8 1.9-.4 3.6-1.2 5.6-1.3.4.6.5 1.4.3 2.1-.4 1.1-1.7.6-2.5.9-.1.5.4.4.6.6.8-.2 1.5 1.2 2.3.1 1-.3 2.1-.4 3-.9.5.4.6 1.2.4 1.8-.2.5-.6.9-1 1.3-.8-.5-2 0-2.8-.5-.2 2 3.1 2.4 2.3 4.5-1.7.7-3.1-1.1-4.8-1.4-.4.9-1 2.1-2.1 2.3-.6-.1-1.1-1-1.4-1.5l-.9-1.4c-.3.3-.4.9-.9.6-.7-.4-.5-2-1.6-1.4-.3.8-1.3 1.1-2 .7-1.5-1.1-3.5-1.8-2.9-4.3 1-1.3 2.2-2 3.3-3.3.7.3.9-.6 1.5-.5 1-.5 2-1.2 3.3-1l.2.8zM61.7 39v.3h.2c.1-.1.2-.1.1-.3h-.3zm3.4 1.9c.6.8 1.8.7 2.3 1.6.4.7 1.6.6 1.5 1.6.3.8 1.2.6 1.9.7.3.5.9.6 1.4.4-1.4-1.8-3.4-2.5-5-3.9-.6.2-.9-.3-1.3-.5h-.8zM15 43.1c.9 1.1.7 3.1 2.3 3.5.5.5 1.7 1.1 1.4 1.9-1.2.5-.8-1.4-1.9-1.4 0-.7-.8-.2-1.1-.5l-.1.1c.3.1.1.3.4.5 0 .7-.3 1.6-1 1.9-2-.4-3.8.7-5.6.6-.5-.7-.8-1.7-1.9-1.1-.6.3-1.2.4-1.9.5.5-1.7 2.4-2.1 3.8-2.6-2.5-.3-4.2 1.3-5.9 2.9-.3-.2.1-.9-.5-.7-.6-1.6 1.3-2.1 2.3-2.9-.4-.2-.4-.6-.4-1 1-1.2 3.2-.2 3.9-1.8.8-.3 1.9-.6 2.8-.1.9-1 2.6-.7 3.4.2zM6.3 45c-.1.1-.8.5-.4.4 1.6-.5 3.5-.2 4.8-.1-1.2-.7-3-.4-4.4-.3zm31.9-29.6l-2.1 2.3c.2.6 1 1.3 1.3 1.9.9-.4 1.1-1.5 1.6-2.3.6-.8-.5-1.2-.8-1.9zm4.8-1.1c-.9.6-1.9 1.4-2.4 2.5-.2.5-.3 1.4.1 1.6.5-.7.6-1.6.9-2.4.6-1.2 1.9-1.4 3.1-1.3-.2-.3-1-.2-1.7-.4zm-.2 2.4c.5-.1 1.6-.2 1.3-.9-.7-.1-1.5.2-1.3.9zM39.2 18c.3.1.4-.3.5-.5-.2-.4-.5.2-.5.5zm-1.5 2.2l-.8.8c-.1.4.1 1.1.4 1.5.4-.1.8-.4 1.1-.3.9-.8-.6-1.2-.7-2zm12.4.6c-1.5.4-3.4.6-4.1 2.3-.1.4-1.2.9-.2 1.3.7-2.1 2.7-2.9 4.5-3.4l-.2-.2zM40 23.1c-.7.2-1.3.8-2 1-.5.4-1 .8-1.5 1.1-2.8 1.2-4.5 4.2-6 5.9 1.3-.6 2.2-1.5 3.3-2.4.3 0 .7 0 .7-.4.3.1.6-.1.8.1l-.6.8c-.9.6-1.6 1.5-2 2.4-.2 1-.2 2.3.5 2.9l.2-.3c-.6-1.4-.2-3 .9-4 .6-1.3 2.4-1.3 3-1.8-.2-.5-.8-.2-1-.6 1.4-1.3 3-2.7 4.4-4.1 0-.4-.5-.4-.7-.6zm6.6 2.4c.1.4.4.5.8.5.2-.7.6-1.3.6-2-1.1-.3-1.1.8-1.4 1.5zm-16-9.9c-.3 0-.4.6-.9.4-.7.3-1.4 1-1.8 1.7-.1.7-.4 1.9.4 2.3.2-.6.1-1.3.1-2 .6-1.1 1.5-2 2.2-2.4zm-6 5.6c.7-.2.2-1.4.9-1.9-.7.3-1.1 1.2-.9 1.9zm19.7 10.7c0 .2-.5.4-.1.6 1.4-1 3-1.9 4-3.4-1.5.6-2.4 2.1-3.9 2.8zM36 30l-.9.9h.1c.2-.5 1.3-.2.8-.9zm7.1 3.1c-.4.4-1 .3-1.3.9l.8-.1c.4-.1.5-.5.5-.8zm-13.1.4l-.5.5h.1c.1-.2.4-.3.4-.5zm11 3.9c-.9.4-1.5 1.4-2.4 1.6-.8.5-1.9.9-2.4 1.6.3.2.2.7.8.5 1.4-1.2 3.4-2.1 4-3.7zm-6.6.9l-.6.4c.3.3.5.2.7-.1-.1-.2-.2-.2-.1-.3zm-3.7 1.8c-.2.3-.7.9-.1 1l.9-.8c.3-.4 1-.2.9-.9-.6.3-1.2.4-1.7.7zM26 34.6c.7-.8-2.4.8-2.6 1.8m50.7-12.1c.9.1 1.9-.1 2.5-.5-1.1-.3-1.6.1-2.5.5zm-1.3 1.3c.5.6-.4.6-.6.9h5.9c-1.8-.1-3.5-.8-5.3-.9zm-6.5 1.6c.5 1.2 1.1-.6 1.8-.6-.7.1-1.3.3-1.8.6zm3.1-.6l.6.6c1.8.7 4.2 1.2 6 1-1-.2-1.9-.6-3-.6-.4-.5-1.6.2-1.6-.9.1-.1.1-.2.2-.1-.6.5-1.4 0-2.2 0zm-5.3 2.1h.4c.4.2.2.7.3 1 .8.2.3-.7.6-1-.3-.9-1.1-.6-1.3 0zm-9.9 1.7c-.6.1-1.3.8-1.5 1.3l1.5-1.3zm-30.9 6c.9-.1 1.9-1 2.6-1.8-1-.5-2.3.8-2.6 1.8zm21.3 6.4c-1.4.8-3 1.6-4 2.9h.4c.1-.3.4-.5.8-.6 1.2-.2 2.3-1.4 3.1-2.3h-.3zm-8.9 3.6c-.3.9-1.1 1.8-.6 2.9h.3c.5-1.3.9-2.7 2-3.8-.7-.1-1.1.6-1.7.9zm2.8-.3c-.6.2-1 .6-1.3 1.3.2.5.5.1.7 0 .4-.2.9-.9.6-1.3zm6.6.3c-1.7.8-2.9 2.1-3.1 4 .1.5.2 1 .8 1.1.1-2.1 1-3.7 2.9-4.5.4-.3 1.2.1 1.4-.4-.6-.4-1.3-.1-2-.2zm.8 1.9c-.5.3-1.3.4-1.3 1.1.8.1 1.1-.7 1.9-.6.2-.5-.5-.3-.6-.5zm-5.6 12.6c.5.5.8 1.2.5 1.9-1.5 1.2-1.2 3.9-3.8 3.6-.4.6-1.3.2-1.4 1.1.1.5.7 1 1.1 1.3-1 .5-1.2-2.1-2.4-.8-1.8.6-2-1-2.9-1.9-.2-.4-.1-.9-.1-1.4 1.6-1.3 2.7-3.4 4.6-4.1 1.1-.3 1.9-1.5 3.3-.9l1.1 1.2zm-17.3-5c.2.3.4.8.8.5.2-.2 1.1 0 .9-.4-.3-.6-1.5-.7-1.7-.1zm-8.7.4l.3-.2-.6.2h.3zm10.9.6c-.1 1-1.2.6-1.5 1.4.1.2.5.3.4.6-.4.8-.6 1.7-1 2.4.8-1.4 1.9-2.9 2.9-4.3-.3-.5-.4.1-.8-.1zm19.9 2.5c-1.1.8-2.1 1.9-1.9 3.4.1.3.3.7.7.5v-1.4c.2-1.2 1.3-1.6 2.1-2.3.8-.3 1.7-.1 2.4.4.2 0 .6.1.6-.1-.2-.3-.6-1-1.1-.9-.8-.5-1.9 0-2.8.4zm-10 2.4c-.6.9-.9 1.9-.8 3 .2.5.5.8 1 .9.6-.8-.3-1.6 0-2.6.4-.9.9-1.5 1.6-2.1-.7-.2-1.2.4-1.8.8zm10.8-.2c.1.2.2.1.4.1.3-.2.9-.4.6-.8-.4.2-.9.1-1 .7zm-23.4.5l.3-.3-.1-.1-.2.4zm15-.3c-.3.5-1.3.7-.8 1.5l.3-.2c.2-.5.8-.8.5-1.3zm5.3 4.9c-.8.3-1.9.8-2.1 1.8-.2.4-.2 1.1.2 1.3 1.1-.6.9-2.5 2.5-2.6.1-.4-.4-.6-.6-.5zm.6 2.2c.5 0 .6-.7.9-1-.3.2-.9.6-.9 1zM6.4 74c-.7.7-1.2 1.8-1 2.8.6-.2 1.7-.1 2-.9.2-.8-.2-2.1-1-1.9zm19.5 17.7c2.2-.8 4-3.3 5.4-5.3.1-.8.7-1.4.9-2.3-2 .5-3.4 2.1-4.9 3.4-1.3 1.1-2.1 2.6-1.9 4.1.1.3.2.2.5.1z"/></svg>