<svg id="Layer_1" xmlns="http://www.w3.org/2000/svg" viewBox="0 0 216 108"><style>.st0{stroke:#000;stroke-width:3e-2}.st1{font-family:&apos;TrajanPro-Bold&apos;}.st2{font-size:7px}</style><path d="M48.1 37.4c.2 1.5 1.2 2.8 3 3.1 2.5.4 4.6-.5 5.5-1.1.9-.6 1.3-1 1.3-.5-.1.5-.3 1.3.3 1.6.6.3 3-.6 4.1-1.3 1.1-.8.1-1.1-.5-1-.6.1-.8-.5-.2-1.8.6-1.3 2-5.2 2.3-6.1.3-.8 1.3-5.5-3-6.1-4.2-.6-5.8.9-6.8 2.1-1 1.2-1.1 2.4-1.3 3-.3.5-.9 1-1.8 1.9-.8.8-2 1.9-2.8 4.1-.1.4-.2.8-.2 1.2-.2 0-.5 0-.7.2-.5.4-.9.8-1.6.5-.7-.3 1.8-6 4.1-11.8 2.4-5.8 5.7-13.1 4.7-13.7-1.2-.8-5.7 1.1-9.1 3.6C42 17.8 40 20 40 20l-.2-.8c-2.4-6.3-9.6-9.4-17-8.8-7.3.6-12.5 4.6-12.5 10.5 0 5.8 7.5 6.7 9.7 6.4.7-.1.8-.8.3-1-.5-.2-1.8.8-5.2-2-3.5-2.8-1.9-9.8 3.5-11.6 5.3-1.9 11.7 1.2 12.5 1.5.8.3 2.1 1 1.3 1.7s-1.7 1.4-3.1 5.6c-1.4 4.2-4.7 12.7-8.5 15.4-2.8 2-6.8 1.9-7.7 1.5-.8-.4-2.1 1.4-.3 2.2 3 1.3 6.8-.8 10.4-3.8 4.5-3.8 7.8-13 8.8-15.9 1-3 2-4.1 2.4-4.2.3-.2 1.4 1.1 2.3 2.7.8 1.6 1.4 3.9 1.2 4.2-.3.3-1.7 2.3-2.4 3.7-.7 1.4-1.7 5.6.2 7.2 1.9 1.6 4-3 4.6-5.3.6-2.3.4-6.5.4-6.5l-.1-.8c.1-.3 2.1-2.3 4.2-4.2 2.1-1.9 5.2-3.7 5.8-3.2.6.5-3.6 10.3-4.9 13.5-1.3 3.2-5.2 12-3.6 12.6 1.7.5 5-2.4 6-3.2zm8-9.4c-.3 0-.1-.6.4-1.4.5-.8 2.2-1.5 3.5-1.2 1.3.3 2 1.9 1.8 2.2-.3.3-.8.1-2.2-.1-1.4-.2-3.2.5-3.5.5zm3.9 1.5c1.8 1.2-.3 5.4-1.8 6.8-2.4 2.3-4.7 2.7-6.1 1.8-1.3-.9-1.2-3.3.5-5.8s5.7-4 7.4-2.8zM37.7 27l.8-.8s.3 1.6-.1 3.9c-.3 2.3-1.6 2.5-1.8.9-.2-1.7.6-3.1 1.1-4z"/><path d="M83.3 16.1c1-.2 2-.5 2.7-.8 1.5-.7 1.9-.7 1.7.1-.3.8-2.4 6.9-3.8 10.3-1.3 3.4-4.6 11.8-5.1 13.2-.5 1.4-.3 2.1.5 2.1s1.3-.1 1.6-.6c.3-.5.5-1.4 2.1-5.6 1.6-4.3 2.9-6.7 5.5-7.8 2.6-1 3.1-.1 3.9 1 .8 1.1-.1 6.2-1.6 7.9-1.5 1.8-3.1 2.8-4.9 2.9-1.8.1-2.3.7-2.3 1.2s.8 1.5 4.9-.4c4-1.9 6.7-7.3 6.9-9.9.1-1.3.3-4.6-2.8-5-3.1-.4-4.1.5-5.1 1.1-1 .6-1 .3-.6-.8.4-1.2 3.3-9.1 3.9-11 .6-1.9-.2-2-1.1-1.8-.9.3-4 1.9-6.3 2.8-2.4.9-4.7-.2-5.1-1.8-.4-1.6 1.3-2.1 2.3-2.4.9-.3.8-.7-.1-.8-.9-.1-2.4 0-3.3.9-.9.9-1.2 2.9.6 4.3 1 .8 2.4 1.1 3.9 1-.5.2-1 .5-1.4.8-1.2.8-2.1 1.7-1.8 2 .3.3 1.6-.2 1.5.3-.1.6-.3 1.5-.8 2.9s-1.3 2.9-2.8 3.8c-.2.1-.3.2-.4.3V26c0-1.9-1-1.8-1.9-1.4-.9.3-2.5 2-3.1 2.5-.6.5-.9.6-1 .2-.1-.4.9-1.9.3-2.5-.6-.7-2.4-.1-3.4.6s-2 1.7-1.9 2.5c.1.8 1.4-.4 1.8-.2.3.3-1 3.4-1.9 5.4-.8 2-1.4 4.6-1.8 5.6-.3 1.1-.7 1.3 0 1.4.7.1 1.5.3 1.7-.2.2-.5.8-2 2.4-5.1 1.7-3.1 3.8-5.6 5.6-6.9 1.9-1.3 1.4-.6 1.9-.3.3.2.7.2 1-.3h.2c.8 0 1.1 0 .9.4-.2.4-.6 1.8-1.7 4.7-1.1 3-2.1 6.2-2.2 7-.1.8.7 1.2 1.5.9.8-.3 2.3-1.1 3-1.9.7-.8.1-1-.7-1s-1-.1-.5-1.1 2.5-7.2 3-8.3c.5-1.2 1-1.4 1.9-1.6.9-.2.9 0 1.5-1.2s-.7-.6-1.4-.6-1.2.1-1-.3c.2-.4.5-1.2 1.3-3.1.8-1.9 1.5-3.7 1.7-5 .2.1.2 0 .1-.1z"/><path d="M98 29.3c-.3.5-.9 1-1.8 1.9-.8.8-2 1.9-2.8 4.1-.8 2.3.3 4.7 2.8 5.1 2.5.4 4.5-.5 5.5-1.1.9-.6 1.4-1 1.3-.5-.1.5-.3 1.3.3 1.6.6.3 3-.6 4.1-1.3 1.1-.8.1-1.1-.5-1-.6.1-.8-.5-.2-1.8.6-1.3 2-5.2 2.3-6.1.3-.8 1.3-5.5-2.9-6.1-4.2-.6-5.8.9-6.8 2.1-1 1.3-1.1 2.5-1.3 3.1zm3.2-1.3c-.3 0-.1-.6.4-1.4.5-.8 2.2-1.5 3.5-1.2 1.3.3 2 1.9 1.8 2.2-.3.3-.8.1-2.2-.1-1.4-.2-3.1.5-3.5.5zm4 1.5c1.8 1.2-.3 5.4-1.8 6.8-2.3 2.3-4.7 2.7-6.1 1.8-1.4-.9-1.2-3.3.5-5.8s5.6-4 7.4-2.8zM114.9 25.8c-1 1.5-.5 2.8.1 3.7.6.9 3.5 3.8 3.8 5.1.3 1.3.4 2.8-1.5 4-1.9 1.2-3.7.7-5-.4-1.3-1.1-.9-3.1-.7-4.2.3-1.1-1.2-.3-1.9 1-.8 1.3-.9 3.3 1.3 4.6 2.5 1.6 6.7.7 9.1-1.6 2.4-2.3 1.7-5.6 0-7.4-1.3-1.5-2.9-2.6-2.9-4.3 0-1.8 2.6-1.5 3.1-.1s.2 4.4 3.4 5.6c4.1 1.5 5.6-.8 6.5-1.6.9-.8 1.8-3.5.9-4.8-.8-1.3-2.6-1.5-3.6-.8s-1.1 1.3-.6 1.2c.5-.2 1.3-.3 2.1.6.8.9.8 2.4-.4 3.8-1.3 1.4-3.5 1.3-5.1.3-1.5-1-.9-3.7-.9-4.9 0-1.2-1-1.2-3.1-1.5-2.1-.3-3.5.2-4.6 1.7zM112.9 22.4c0 .7-.2.8-.7 1.3-.5.5-1.2.9-1.2 1.3s1.6.2 2.7-.5 2.2-2.3 1.2-2.9c-1-.6-2 .2-2 .8zM37.6 45.7v3.5h-.3c-.2-.9-.7-1.6-1.3-2.1-.6-.5-1.3-.7-2.1-.7-.7 0-1.3.2-1.8.5-.6.4-1 .8-1.2 1.4-.3.7-.5 1.6-.5 2.5 0 .9.1 1.7.4 2.4.2.7.6 1.3 1.1 1.7.5.4 1.2.6 2 .6.7 0 1.3-.1 1.8-.4.6-.3 1.1-.8 1.8-1.4v.9c-.6.6-1.2 1-1.9 1.3-.6.3-1.4.4-2.3.4-1.1 0-2.1-.2-3-.6-.9-.4-1.6-1-2-1.8-.5-.8-.7-1.7-.7-2.6 0-1 .3-1.9.8-2.7.5-.9 1.2-1.5 2.1-2 .9-.5 1.9-.7 2.9-.7.7 0 1.5.2 2.4.5.5.2.8.3.9.3.2 0 .3-.1.4-.2.1-.1.2-.3.2-.5h.3zm6.5 7.4h-3.8l-.4 1c-.1.3-.2.6-.2.8 0 .3.1.5.4.6.1.1.5.1 1 .2v.3h-3.8v-.3c.4-.1.7-.2.9-.4.2-.2.5-.7.9-1.5l3.8-8h.4l3.8 8.2c.4.8.7 1.3.9 1.5.2.2.4.2.8.3v.3h-5.1v-.3h.2c.4 0 .7-.1.9-.2.1-.1.2-.2.2-.3V55s-.1-.2-.2-.6l-.7-1.3zm-.3-.7l-1.5-3.3-1.6 3.3h3.1zm13.9-6.5v2.7h-.3c-.2-.6-.4-1.1-.6-1.3-.2-.3-.5-.5-.8-.7-.2-.1-.5-.1-1-.1h-.8v7.7c0 .5 0 .8.1 1 .1.1.2.2.4.3.2.1.4.1.7.1h.4v.3h-5.6v-.3h.4c.3 0 .6-.1.7-.2.1-.1.2-.2.3-.4.1-.1.1-.4.1-.9v-7.7h-.8c-.7 0-1.2.1-1.6.4-.5.4-.7 1-.9 1.7h-.3v-2.7h9.6zm5.4.6v4.1h.2c.7 0 1.2-.2 1.5-.6.3-.4.5-1 .6-1.8h.3v5.2h-.3c-.1-.6-.2-1-.4-1.4-.2-.4-.4-.6-.7-.7-.3-.1-.7-.2-1.2-.2v2.8c0 .6 0 .9.1 1 0 .1.1.2.3.3.1.1.4.1.7.1h.6c1 0 1.8-.2 2.4-.7.6-.4 1-1.1 1.3-2h.3l-.5 3.2h-9.2v-.3h.4c.3 0 .6-.1.7-.2.1-.1.2-.2.3-.4.1-.1.1-.4.1-.9v-6.6-.8c-.1-.2-.1-.3-.3-.4-.2-.1-.5-.2-.8-.2h-.4v-.3H68v3h-.3c-.2-.7-.4-1.2-.6-1.6-.3-.3-.7-.5-1.2-.7-.3-.1-.8-.1-1.6-.1h-1.2zm11.1 4.9v2.7c0 .5 0 .9.1 1 .1.1.2.3.4.3.2.1.5.1 1 .1v.3h-5.4v-.3c.5 0 .8 0 1-.1.2-.1.3-.2.4-.3.1-.1.1-.5.1-1v-6.5c0-.5 0-.9-.1-1-.1-.1-.2-.3-.4-.3-.2-.1-.5-.1-1-.1v-.3h4.9c1.3 0 2.2.1 2.8.3.6.2 1.1.5 1.5.9.4.4.6 1 .6 1.6 0 .7-.3 1.3-.8 1.8-.4.3-.9.5-1.5.7l2.6 3.4c.3.4.6.7.7.8.2.2.5.2.7.2v.3h-3.3l-3.4-4.5h-.9zm0-4.9v4.4h.4c.7 0 1.3-.1 1.6-.2.4-.1.6-.4.9-.7.2-.3.3-.8.3-1.3 0-.8-.2-1.3-.6-1.7-.4-.4-1-.5-1.8-.5h-.8zm13.6 9.2v.3h-5.6v-.3h.4c.3 0 .6-.1.7-.2.1-.1.2-.2.3-.4.1-.1.1-.4.1-.9v-6.6c0-.5 0-.8-.1-1l-.3-.3c-.2-.1-.4-.1-.7-.1h-.4v-.3h5.6v.3h-.4c-.3 0-.6.1-.7.2-.1.1-.2.2-.3.4-.1.1-.1.4-.1.9v6.6c0 .5 0 .8.1 1 .1.1.2.2.4.3.2.1.4.1.7.1h.3zm5.5-9.8l5.7 6.2v-4.3c0-.6-.1-1-.3-1.2-.3-.3-.7-.4-1.3-.4v-.3h3.7v.3c-.4.1-.8.1-.9.2-.2.1-.3.2-.4.4-.1.2-.1.5-.1 1v8.3h-.5l-7.6-8.3v6.4c0 .6.1 1 .4 1.2.3.2.6.3 1 .3h.3v.3h-4v-.3c.6 0 1-.1 1.2-.3.2-.2.3-.6.3-1.1v-7.1l-.2-.3c-.2-.3-.4-.4-.6-.5-.2-.1-.4-.1-.7-.1V46h4zm19-.2v3.5h-.3c-.4-1-.9-1.7-1.6-2.2-.7-.5-1.5-.8-2.3-.8-.8 0-1.5.2-2 .6-.5.4-.9 1-1.1 1.8-.2.8-.3 1.5-.3 2.3 0 1 .1 1.8.4 2.5.2.7.6 1.3 1.2 1.6.5.3 1.2.5 1.9.5.3 0 .5 0 .8-.1.3-.1.5-.1.8-.2v-2.1c0-.4 0-.6-.1-.8-.1-.1-.2-.2-.4-.3-.2-.1-.4-.1-.7-.1h-.3v-.3h5.2v.4c-.4 0-.7.1-.8.1-.2.1-.3.2-.4.4 0 .1-.1.3-.1.7v2.1c-.7.3-1.4.5-2.1.6-.7.1-1.5.2-2.3.2-1 0-1.8-.1-2.5-.4-.7-.3-1.3-.6-1.8-1s-.9-.9-1.2-1.4c-.4-.7-.5-1.4-.5-2.3 0-1.5.6-2.8 1.7-3.8s2.5-1.6 4.2-1.6c.5 0 1 0 1.4.1.2 0 .6.2 1.1.3.5.2.8.3.9.3.1 0 .3 0 .4-.2.1-.1.2-.3.3-.6h.5zM121.2 69.8C112.2 63 89 59.3 71 64.1c-30.2 8.2-45.4-.3-53.2.5l4.9-2.8c2.8-.7 14.3 8.3 49.2-.3 20.3-5 41.2.6 49.6 5.2l-.3 3.1z"/><g><path d="M209.9 68.5c-.1-.2-.9-1.4-1.7-2.5-1-1.2-1.3-1.7-2.7-2.6-1.4-.9-3.1-.9-3.1-.9-.1 0 1.2.3 2.2.7 1 .4 1.8 1.1 2.9 2.2 1 1.1 2.3 2.9 2.4 3.1zm.6-1c.6 1.7.6 3.2-.3 2.4-.9-.7-1.9-1.9-2.9-3s-1.5-1.7-2.8-2.5c-1.3-.7-1.5-1-2-1.4-.2-.2-.6-.5-.9-.5-.2 0-.6.1-.8.2.2-.1.3-.2.4-.3.2-.1.4-.1.6-.2.5-.1 3-.4 4.7.6 1.7 1.1 3.5 3 4 4.7zM209.1 50.3c-.2.2-1.5 1.7-2.6 3.2-1.1 1.5-1.6 3.3-2.1 4.4-.4.8-.8 2.1-1 2.5-.2.2-.4.4-.5.6 0-.7-.1-3.3 1.5-6.2 1.8-3.4 3.3-4.6 4.7-5.5 1.4-.9 1.5-.4.8.9-.8 1.3-2.1 2.9-3 5.2-.9 2.3-2.3 4.7-2.8 5.3-.4.4-.8.5-1 .6.1-.1.3-.3.5-.6.7-.9 1.4-2.2 1.5-2.3 0 .1-.2.3-.6.9-.2.3-.6.8-1.1 1.3.1-.3.6-1.4 1.4-3.1 1-2.1 1.5-3.3 2.6-4.8 1-1.5 1.6-2.2 1.7-2.4z"/><path d="M203.4 60.5zm0-.1s.1 0 0 0c.5-.5.9-1 1.1-1.3.4-.6.6-.8.6-.9-.1.2-.9 1.5-1.5 2.3-.2.3-.4.5-.5.6h-.1l.3-.3s-.2.1-.3.3V61c.1-.2.3-.4.4-.6.1 0 0 0 0 0zM203.7 67.5c1.4 1.5 1.8 3.5 1 5-.2.4-.4.6-.6.8l-.1-.4-.4.4.1.2c-.8.4-1.9.2-3.2-.7-1.8-1.3-2.1-4.4-1.7-5.5.3-.8.8-1 1.1-1.1.3.5.4.8.4.8l.4-.1s-.2-.4-.5-.8c.6-.3 1.7-.5 3.5 1.4z"/><path d="M204.1 73.3l.1.8-.5-.6c.2 0 .3-.1.4-.2z"/><path d="M204 72.9l.1.4c-.1.1-.2.1-.3.2l-.1-.2.3-.4zM203.5 60.4s-.1 0 0 0c-.1 0 0 0 0 0zM203.4 60.5zM201.6 59.1v0zm0 0c0-.4.1-1.3 0-2.7-.1-1.7.9-5.8 1-6.1-.1.2-.8 2.6-1 4.1-.2 1.4-.1 4 0 4.7zm.8-10c.8-1.2 1.2-1.3.9 2.6-.3 3.9-.7 4.4-.7 6 0 1.5-.7 3.2-1.3 3.9-.6.6-1 1.3-1.2 1.5-.1.1-.2.1-.3.2.2-.3 1.2-1.9 1.3-2.1.1-.3-.1-3.1-.4-5.3-.5-2.2.9-5.6 1.7-6.8zM203.3 60.8l-.3.3.3-.3zM202.9 61.1h.1c-.3.3-.4.3-.5.3l-.3.2c.4-.1.6-.3.7-.5z"/><path d="M202.9 61.1c-.2.1-.4.3-.6.5l-.1.1c0-.1.1-.2.3-.3.2-.1.3-.2.4-.3z"/><path d="M202.9 61v.1c-.1.1-.3.2-.4.3l.4-.4zM202.2 61.7c-.2.2-.6.5-1 .8l-.6.2s-.2.1 0 .1h.2c-.7.5-1.6 1-2.6 1.5h-.2l-.6.3.2-.2c.7-.3 1.4-.7 2.1-1.1l.3-.2c1-.6 1.9-1.2 2.5-1.7-.1.2-.2.3-.3.3z"/><path d="M200.6 62.7l.6-.2c-.1.1-.3.2-.4.3-.1 0-.2 0-.2-.1-.2.1 0 0 0 0zM200.9 66.9l-.4.1s-.1-.3-.4-.8h.2s0-.1.2-.1l.4.8zM200.4 66c-.1.1-.2.1-.2.1h-.2c-.1-.2-.3-.5-.5-.7-.5-.6-1.5-.8-2-.9l.6-.3c.2.1.6.2 1.2.6.4.3.8.8 1.1 1.2zM200 63.1l-.4.2c.2-.1.3-.2.4-.2zM198.2 62.7c0 .3-.1.5-.1.5 0-.1.1-.3.1-.5zm0-.1v-.4c0-.4.2-2.1-1.9-4.7s-6-3-4.9-2.7c1.2.3 3.4 1.3 5.2 3.4 1.4 1.5 1.6 3.5 1.6 4.4zm.8-1.2c0 1.4-.3 1.4-.9 2.3-.2.3-.4.5-.5.6-.1.1-.2.1-.4.2 0 0 .4-.4.6-.7.2-.3.1-1.2-.2-2.4-.3-1.2-1-2.2-2.1-3.5-1.1-1.3-3.1-2.6-5.1-3-1.9-.4-1-.6-.2-.7.8-.1 2.6-.3 5 1 2.3 1.5 3.7 3.5 3.8 6.2z"/><path d="M197.9 64.3h.2l-.6.3h-.2l.6-.3z"/><path d="M197.6 64.4l-.2.2s-.1 0-.1.1l-.1-.1c.1-.1.3-.2.4-.2z"/><path d="M197.4 64.6h.2c-.8.4-1.6.7-2.5.9 0 0-.1-.1-.1-.2.8-.2 1.5-.5 2.3-.8l.1.1c-.1 0-.1 0 0 0zM195.1 65.5c1.6 1.8 1.9 3.4 1.1 1.8-.3-.7-.7-1.3-1.1-1.8-.1 0-.1 0 0 0z"/><path d="M195.1 65.5c-.1 0-.1 0 0 0-.1 0-.2-.1-.2-.1h.1l.1.1zM194.9 72.6c.5 1.7.6 3.9 0 3.6-.5-.3-1.1-1-1.7-2.2.3-.3.6-.6.9-1 .4.9.6 1.5.5 1.1-.1-.3-.2-.8-.4-1.2.2-.2.4-.5.6-.7 0 .1 0 .3.1.4zM194.8 72.2l1.2-1.5-1.2 1.5z"/><path d="M194.8 65.3l.2.2c-.2 0-.4.1-.5.1-1.8.4-3.8.3-6-.1l-.4-.4v.2l.2.2c-2-.3-4.1-.9-6.4-1.3 0 0-.1 0-.1-.1-.5-.2-1.2-.5-1.2-.5s-.2-.1-.1.1c.1.1.4.2.6.3-.7-.1-1.3-.3-2-.4.8-.2 1.5-.3 2.2-.4 4.2.9 8.6 2 11.3 2.3.6.1 1.4 0 2.2-.2zM194.9 65.3h-.1c-1.6-1.6-4.3-2.5-9.3-2.6-1.2 0-2.7.1-4.2.4-.5-.1-1-.2-1.4-.3 3.7-.8 7.3-1.1 10.1-.5 2.2.6 3.8 1.9 4.9 3zM194.8 72.2c-.2.2-.4.5-.6.7.2-.3.4-.5.6-.7z"/><path d="M194.8 72.2c-.2.2-.4.5-.6.7-.8-2.1-2.4-5.1-4.6-6.1l-.4.1c-.1-.3-.3-.5-.3-.7-.1-.2-.2-.3-.3-.4-.1-.1-.3-.3-.5-.4h.2l.4.4c.1.1.3.3.5.4.2.1.5.2.8.4.8.3 1.9.9 2.6 1.6.9.8 1.6 2.4 2.2 4zM194.2 72.9c-.1 0-.1 0 0 0-.1.1-.1.1 0 0-.1 0-.1 0 0 0zM194.1 73c-.3.4-.6.7-.9 1 .3-.4.6-.7.9-1z"/><path d="M194.1 73c-.3.3-.6.6-.9 1 0-.1-.1-.2-.1-.3-.7-1.4-1.6-3.7-2.5-4.7-.5-.6-1-1.4-1.3-2l.4-.1c2.1 1.3 3.6 4.3 4.4 6.1z"/><path d="M193.2 73.9c-3.6 3.8-7.8 6.4-12.3 8-.2 0-.3 0-.5-.1 4.6-1.5 9-4.1 12.8-7.9zM188.4 65.5h-.2l-.2-.2v-.2l.4.4zM184.3 57.7c-.5.1-1.6.3-3.1.3-2.2.1-5.8.7-5.8.7s4.3-.4 5.2-.4c.8 0 2.8-.4 3.7-.6zm.2 0zm1.6-1.1c1.8-.5 3.8-.6 1.5.9-2.2 1.5-5.3 2.1-8 2-2.7-.1-6 0-6.7.2-.4.1-1.1.4-1.5.5l.1-.1.1-.1 1.1-.7s.3-.5 1.4-1c1.1-.5 3.1-.8 5.2-1 2.1-.2 5-.2 6.8-.7zM183.2 74.1c0-.2.3-1.6.5-3 .2-1.5.3-2.1-.1-3.7s-1.7-2.8-1.7-2.8c0 .1.7 1.1 1.1 2 .4.9.5 1.9.5 3.5.1 1.6-.3 3.8-.3 4zm1.5-6.4c.5 1.9.4 4.4-.3 6.1-.8 1.6-1.8 2.7-2 1.5-.1-1.1-.1-2.7 0-4.2s.1-2.3-.3-3.7c-.4-1.4-.4-1.7-.5-2.3 0-.3-.1-.8-.3-.9-.1-.1-.2-.1-.3-.2.3 0 .5.1.8.2.6.3 2.4 1.7 2.9 3.5zM182.7 90.9c-.2-.1-2.6-1.6-4.9-2.7-2.3-1.1-4.9-1.2-6.4-1.7-1.1-.3-2.7-.5-3.4-.6-.3-.2-.8-.3-1.3-.6.6-.2 4.4-1 9 .4 5 1.6 7 3.3 8.5 4.9 1.5 1.6.7 2.3-1.2 1.5-1.9-.7-4.3-2.4-7.6-3-3.3-.7-6.9-1.8-7.8-2.4-.6-.3-.8-.8-1-1.1.1 0 .2.1.3.1 1.6.6 1.7.4 1.7.4s-.2-.1-.7-.3c.7.1 2.1.4 4.2 1 3 .8 4.9 1.1 7.1 2.3 2.2 1.1 3.3 1.7 3.5 1.8z"/><path d="M181.2 47.9c.2-.2.4-.3.5-.4-.1.1-.3.2-.5.4zm.5-.4zM171 60.4l.4-.2-1.9 2.3c-.3.1-.5.1-.8.2l2.5-2.7s.4-5.1 3.7-8.7c3.3-3.7 5.2-4.5 7.6-5 2.5-.6.8 1.1-.4 2.1-1.2 1.1-3.5 3.7-4.8 4.9-1.3 1.3-3.5 4.1-4 4.8-.5.6-1.4 1.6-1.7 1.9l-.6.4zm10.1-12.5c-1.1.8-3.4 2.5-4.6 4.2-1.6 2.3-4.3 6.4-4.2 6.4 0 0 3.7-5.4 6-7.9 1.3-1.5 2.3-2.3 2.8-2.7zM180 32.9c-.2 0-3 .5-5.7 1.3-2.9.8-4 1-6.5 2.9s-3.7 4.8-3.7 4.8c-.1.1 1.4-1.9 2.8-3.3 1.3-1.4 3.1-2.3 5.9-3.5 2.7-1.1 6.9-2.2 7.2-2.2zm-1.4-1.7c3.5.2 6.1 1.2 4.1 2.2-1.9 1.1-4.7 2.1-7.4 3-.4.1-.8.3-1.2.4-2 .7-3.3 1.3-5.2 2.7-2.2 1.7-2.8 1.9-3.8 2.5-.4.2-1.3.7-1.5 1.2-.1.4-.2 1.5-.2 1.8-.1-.1-.1-.2-.2-.3 0-.4-.1-1.3 0-2.1.1-1 1.2-5.4 4.2-7.7 3.2-2.2 7.7-3.9 11.2-3.7zM181.7 64.1s.1 0 .1.1c-.2-.1-.5-.1-.8-.2-.2-.1-.5-.2-.6-.3-.2-.1.1 0 .1-.1 0 0 .7.3 1.2.5zM180.8 81.9c-.1.1-.3.1-.4.2-.2 0-.4 0-.5-.1.2-.1.3-.1.5-.2.1.1.3.1.4.1z"/><path d="M179.9 82c.2 0 .4 0 .5.1-5.5 1.9-11.4 2.3-17.2 1.5-.3-.2-.7-.4-1-.5 1.4.2 2.8.4 4.2.5h-.1.6c4.4.2 8.8-.3 13-1.6zM179.8 62.9c.5.1 1 .2 1.4.3-.7.1-1.5.3-2.2.4-.5-.1-1-.2-1.5-.2.8-.2 1.6-.3 2.3-.5zM178 23.3c1.9.7 2.3 1.4-1.8 2.1-4.1.7-8.5 2.6-12.5 5.2s-5.7 4.2-6.4 5.1c-.8.9-.9 1-.9 1s-.6-1.7 3.5-5.2 7.9-5.9 11.8-7.1c3.9-1.2-4.3.4-8 3.3s-5.3 4.8-6.3 5.8c-.9 1.1-1.6 2.2-1.1 4.2.2.9.3 1.4.4 1.6l-.6-.3c-.1-.4-.5-2-.2-3.3.3-1.5 2.4-7.4 8.8-10.8 6.4-3.2 11.4-2.3 13.3-1.6zM161.4 76.8zm.1 0c.5-.2 2.9-1.1 5.7-3.4 3.1-2.6 3.7-3.9 5.5-4.9 1.5-.9 2.2-1.1 2.5-1.2-.5.2-3.1 1-5.2 2.9-2.3 2.2-3.6 3.6-4.9 4.5-1.2.7-3.2 1.8-3.6 2.1zm16.3-11.2c3.4.2 1.8.8-.8 2.1s-6 4.2-8.3 6.2c-2.3 2-5.4 3.2-6.6 3.4-1.2.2-3.2.9-3.2.9l-2.9.6c-.2-.1-.3-.2-.5-.3.7-.1 2.1-.2 2.7-.3.9-.2 2.3-1 2.3-1s1.9-3.3 4.9-6.1c2.9-2.7 9-5.7 12.4-5.5z"/><path d="M177.6 63.4c.5.1 1 .1 1.5.2-5.5 1.2-12.5 3.7-19.1 6.4l.5-.5c2.8-1.2 5.4-2.4 7.5-3.2 2.7-.9 6.1-2 9.6-2.9z"/><path d="M179.8 62.9c-.7.2-1.5.3-2.2.5-.7-.1-1.5-.2-2.3-.3-5.5-.5-10.8 2.8-13.5 4.9.9-1.1 1.7-2.3 2.4-3.6.9-.4 2.5-1.2 4.5-1.7l-.3.3.7-.1.3-.4c1.5-.3 3.1-.5 4.8-.4 1.7.1 3.6.4 5.6.8zM175.9 36.5v.6c-.3 2-.3 5.2-3.5 11.3-3.1 6.1-4.6 5.6-4.6 5.6l-1.3 2.5c0-.5.1-1 .1-1.4.2-.5.5-1.3.6-1.9l.6.1s4.1-8.2 5.2-11.8c.5-1.5.7-3 .9-4.4.1 0 .2-.1.2-.1.8-.3 1.4-.4 1.8-.5zM174.9 30c.1.3.2.7.4 1.2-.6.1-1.3.2-1.9.4.7-1.7 1.2-2.2 1.5-1.6zM167.7 89.6c-.1 0-.1 0 0 0-.1 0-.1 0 0 0zm.1.2c0-.1 0-.1 0 0 0-.1 0-.1 0 0zm.8.7l.1.1c-.1 0-.1 0-.1-.1zm3.6 2c1.6 1.1 1.9 1.4 1.8 1.8 0 0-1.5.7-3.8-1.3-1.1-1-2.2-2.5-2.9-3.7-.1-.3-.5-1.2-1-2.2.5.3 1.9 1.2 2.5 2.1.9 1 1.9 2.2 3.4 3.3z"/><path d="M173.6 37.2c-.5 2.6-1.2 5.8-2.2 7.9-1.8 4-3.4 7.8-3.5 8.1l-.6-.1c0-.2.1-.3.1-.4.1-1.1.9-3.1 1.5-6.1.5-2.6.6-3.7 1.9-7.8.9-.8 1.9-1.3 2.8-1.6zM171 60.4l.6-.4-.1.1-.1.1c-.2.1-.3.1-.4.2zM169.5 62.5l-.3.4-.7.1.3-.3c.2-.1.4-.1.7-.2zM167.7 85.8c.1 0 .2 0 .4.1.4.2.7.3.7.3s-.1.2-1.7-.4c-.1 0-.2-.1-.3-.1-.1-.2-.1-.3-.1-.3h.1c.5.2.9.4 1.3.6-.2-.1-.3-.1-.4-.2zm0 0h-.1.1zM168 85.9h-.3.3zM167.6 85.8h.1-.1zM167.3 89.3c.1.1.1.1 0 0 0 .1-.1-.1-.2-.4.1.2.2.3.2.4z"/><path d="M167.3 89.3c-.1-.1-.1-.2-.2-.4 0 0-.1-.1-.1-.2-.1-.2-.2-.4-.4-.7 0-.1-.1-.1-.1-.2-.3-.5-.4-.9-.4-.9s.1 0 .2.1c.5 1.1.9 2 1 2.3zM163.6 87.5v-.2c-.1 0-.1.1 0 .2zm0 .1c0 1 .2 4.6.7 6.3.5 1.9 1.9 5 2 5.4-.2-.5-2.1-5.8-2.3-8-.1-1.9-.4-3.2-.4-3.7zm3.3 9.7c1.1 5.2.5 5.1-.7 3.6-1.2-1.5-3.7-5.8-3.6-8.9.1-3-.2-6.8-.3-7.2-.1-.2-.7-1-1.3-1.7.2 0 .4.1.5.1.3.3.6.7 1 1 1 .8 2.1 3 2.4 5 .4 2.3.9 3 2 8.1zM166.9 83.6h-.6.1c.1-.1.3-.1.5 0z"/><path d="M166.7 88.1c.2.3.3.5.4.7-.2-.3-.4-.7-.5-.9 0 0 .1.1.1.2zM166.7 85.3s-.1 0 0 0c-.1 0-.1.1 0 .3-.5-.2-.9-.3-1.6-.6-.4-.5-.5-.5-.5-.5l-.7-.4c.1.1.2.3.4.5-.6-.3-1.4-.7-2.5-1.4.5.1.9.2 1.4.2 1.3.9 2.5 1.5 3.5 1.9zM160 69.6c.1-.1.7-.7 1.9-1.6-.4.5-.9 1.1-1.4 1.6-1.7.7-3.5 1.5-5.4 2.2.7-.4 1.4-.9 2-1.4 1.2-.9 2.3-2 3.3-3.2 0 .5-.1.8-.1.8h.2s.3-.6.3-1.4c2.5-3.3 4.1-7.4 4.4-11.4.1.1 0-.2.1-.2v-.1c.2-2.8-.2-5.5-1.4-7.9-2-3.9-6.5-6.8-10.2-8.6v-.1l-.2-.1c-2.8-1.4-5.2-2.1-5.5-2.2 0 0 0-.1-.1-.1h.1l.1.1.4-.1-.1-.1h.2c.2.2.4.3.5.3.1 0 0-.1-.2-.2 1.1.4 4.1 1.5 7.2 3v.1l.6.5v-.3c2.1 1.1 4.1 2.4 5.4 3.9l1.2 1.5v.2s0 .4.2.1c2.1 3 3.1 6.5 3.1 10-.1.3-.2.5-.2.5l-.3 1.8.4-.8c-.2 2.7-1 5.4-2.3 7.9-.4.2-.7.4-.7.4l-3.5 4.9z"/><path d="M166.6 55c0 .5 0 1-.1 1.4l-.4.8.3-1.8c0 .1 0-.1.2-.4zM166.3 87.1c-.1-.1-.2-.1-.2-.1s.1.3.4.9c-.5-.9-1.7-2.3-2.3-3.1.3.2.6.3.8.4.2.2.3.5.6.9.3.2.5.6.7 1zM165.4 55s0 .3-.1.2v-.3c.1 0 .1.1.1.1z"/><path d="M165.4 54.8v.3l-.1-.1c-.2-.2-.6-1.4-.9-1.7-.4-.4-1.5-.6-2-.7-1.2-.3-1.9-.3-4.2-1.1.3-.7.4-1.4.5-2.1.3.1.5.2.8.4 1.9 1 4.3 2.5 4.2 2.4 0 0-1.9-2.1-4.9-3.3 0-.7-.2-1.3-.4-2 3.7 1.6 6.1 5.1 6.5 5.9.1.7.4 1.7.5 2zM165.1 85.1c-.2-.1-.5-.2-.8-.4-.2-.2-.3-.4-.4-.5l.7.4s.1-.1.5.5zM163.5 64.8s.2-.1.7-.4c-.7 1.3-1.4 2.5-2.4 3.6-1.1.9-1.8 1.5-1.9 1.6l3.6-4.8zM163.5 45c-.1.4-.1 0-.2 0v-.2l.2.2zM163.2 83.6c-.5-.1-.9-.1-1.4-.2-.1-.1-.2-.1-.3-.2-.1-.1-.2-.2-.2-.3.3.1.6.1 1 .2.2.1.5.3.9.5zM154.2 78.5s.1.2.3.5c-3-1.4-5.9-1.8-8.1-1.9-.2-.1-.4-.2-.5-.3 1.2-.2 2.3-.5 3.4-.8.7.1 3.4.7 6.3 2.5h-.4l.4.4.4-.1c.5.3.9.6 1.4 1 1.4 1.1 3.1 2.2 4.8 3.2-.3 0-.6-.1-1-.2-.2-.3-.4-.5-.4-.5l-.7-.1s.1.2.4.4c-.9-.6-2-1.3-3.3-2.1-.7-.5-1.4-.8-2.1-1.2-.1-.3-.2-.4-.2-.4l-.7-.4z"/><path d="M161.8 83.4h-.2c0-.1-.1-.1-.1-.2.1 0 .2.1.3.2z"/><path d="M161.6 83.3c-.2 0-.3-.1-.5-.1-.1-.2-.3-.3-.4-.5h.1c.2.1.5.3.7.4 0 .1 0 .2.1.2zM159.1 14.3s-.1.1-.3.2c.1-.1.3-.2.3-.2zm-.3.2c-1.2.9-5.6 4.4-7.2 8.2-1.9 4.4-2.3 7.3-2.6 9 1.6-4.8 2.2-9.3 5.8-13.2 2.4-2.6 3.5-3.6 4-4zm2.7-1.7c.9.3.1 1-1.4 2.1-5.9 4.3-6.8 12.3-10.6 17.8-.2.3-.4.5-.6.8-.4.5-.6 1.2-.3 1.8.1.3.3.5.4.7-.1 0-.2-.1-.3-.1-.2-.2-.5-.5-.5-.9-.1-.7-.3-1.2-.2-1.4-.3-1.9 0-1.3 0-3.9 0-2.6 2.4-10 5.1-12.9 2.7-2.9 7.5-4.3 8.4-4z"/><path d="M161.2 82.9c.1.1.1.2.2.3-.2-.1-.4-.3-.7-.4.2 0 .4 0 .5.1z"/><path d="M161.2 82.9c-.1 0-.3-.1-.4-.1-.1 0-.2-.1-.2-.1-.2-.3-.4-.4-.4-.4l.7.1c0-.1.1.1.3.5zM157.7 61.7c3.1 1.2 3.4 3.4 3.2 4.9-.2.2-.3.4-.5.6 0-.7 0-1.6-.2-1.9-.4-.5-1.3-1-3.6-1.3-2.3-.3-4.5 0-7.5.9-1.5.4-3.1 1.2-4.6 2.2-1.6 1.1-3.1 2.4-4.2 3.9-.5.7-.8 1.1-1.1 1.3-.2-.1-.4-.2-.5-.3 0-.3.2-.8.3-1.2.4-1.3 1.5-4.5 5.5-7.3 3.9-2.9 8.4-3.7 13.2-1.8z"/><path d="M160.8 82.8h-.1l-.1-.1s.1 0 .2.1zM160.6 82.7c.1.1.3.3.4.5-2-.4-3.9-.9-5.8-1.5 0-.1.1-.3.1-.4 1.7.6 3.5 1.1 5.3 1.4zM160.4 67.2c.2-.2.3-.4.5-.6-.1.8-.3 1.4-.3 1.4h-.2c-.1 0 0-.4 0-.8zM160.4 69.6l-.5.5c-1.8.7-3.5 1.5-5.2 2.2-.9.4-1.8.7-2.6 1 1-.5 2-1 3-1.6 1.8-.6 3.6-1.4 5.3-2.1zM157.9 46.9c.8 2.4.1 4.8-1.4 6.2-.4.4-.8.6-1.2.7l.1-.5s-.6.3-.7.3l.1.3c-1.1.1-2.2-.5-3.1-1.8-.1-.2-.3-.4-.4-.6-1.6-2.5-.3-6.4.7-7.6.5-.5 1-.7 1.3-.8.1.1.1.2.1.2l.7.1s-.1-.1-.2-.3h.2c-.1-.1 2.1-.8 3.6 3.3.1.1.2.3.2.5z"/><path d="M159.9 70.1c-1.1 1-2.2 1.9-3.5 2.7-2 1.2-4.5 2.4-7.2 3.2h-.2l-3.4.7-1.8-1.2c2.9-.3 5.7-1 8.2-2.2.9-.3 1.8-.6 2.6-1 1.8-.8 3.6-1.5 5.3-2.2zM156.7 39.4c.1.3 0 .3 0 .3l-.6-.5v-.1l.6.3zM156 78.9l-.4.1-.4-.4h.4c.1 0 .3.1.4.3zM154.9 82.8c.5.3 1.7 1.3.9 4.6-.6 2.7-2.6 4.6-4.8 4.9-.5.1-1 .1-1.4 0l.4-.4-.7-.1-.1.3c-1.1-.6-1.7-1.9-1.6-3.9.1-2.9 3.4-5.6 4.9-6 1.1-.3 1.8.1 2 .3-.3.7-.6 1-.6 1l.4.4c0 .1.3-.4.6-1.1zM155.5 53.3l-.1.5c-.2.1-.3.1-.5.1l-.1-.3.7-.3z"/><path d="M155.4 53.8l-.2 1.1-.3-1c.1 0 .3 0 .5-.1zM155.3 80.8v.5c-.1 0-.3-.1-.4-.1.1-.8-.2-1.6-.4-2.1l.6.3c.1.2.2.7.2 1.4z"/><path d="M155.3 81.3c0 .1 0 .3-.1.4-.1 0-.3-.1-.4-.1v-.1c0-.1.1-.2.1-.3.1 0 .3.1.4.1zM155 78.9s.1.1.2.4l-.6-.3c-.1-.3-.3-.5-.3-.5l.7.4z"/><path d="M155.2 81.7c-.1.4-.2.8-.4 1.1-.2-.1-.3-.1-.3-.1s0-.1-.2-.2c.1-.3.3-.6.4-1 .3.1.4.2.5.2z"/><path d="M154.9 81.2c0 .1 0 .2-.1.3v.1c-3.3-1.1-6.4-2.6-9.2-4.4h.8c2.6 1.6 5.5 2.9 8.5 4zM154.6 82.7s.1 0 .3.1c-.3.7-.6 1.2-.6 1.2l-.4-.4s.3-.3.6-1c0 .1.1.1.1.1zM154.2 43.4l-.7-.1s-.1-.1-.1-.2h.6c.1.2.2.3.2.3z"/><path d="M154 43.1h-.6c-.2-.3-.4-.9-.3-1.9.1-1.4.4-2.5.4-2.5s-.3.2-1 1.3c-.6.9-.7 2.3-.8 2.8-.1-.1-.3-.1-.5-.2.1-.4.2-1.2.6-2 .5-1 1.6-2.3 1.7-2.4.1 0 .2.1.2.1 0 .2-.1.9-.3 2.3-.1 1.2.3 2.1.6 2.5z"/><path d="M153.5 38.3l.2.1v.1c0-.2-.1-.2-.2-.2zM150.1 58.4c-.1.1-1.2 1.1-2.2 2.7-.7.2-1.4.5-2 .9.5-1.3 1.2-2.5 2.2-3.5 2.8-2.8 4.9-3.8 4.9-2.7 0 1.1-1.4 2.7-2.1 3.7-.2.2-.4.6-.6 1-.6.1-1.3.3-2.1.5.8-1.1 1.8-2.4 1.9-2.6zM152.2 43.2c.1 0 .1 0 0 0 0 .1 0 .1 0 0zM152.2 43.2c.1-.1.1 0 0 0zM155.1 71.7c-1 .6-2 1.1-3 1.6-2.7.9-5.3 1.4-7.8 1.5l.3-.3c.1-.1.2-.2.2-.3 3.3-.2 6.8-1.2 10.3-2.5zM151.8 52.8zM151.7 42.9c.2.1.4.2.5.3-.1.1-.3.3-.6.7-1.2 1.2-2.4 5.2-.7 7.6.3.4.5.7.6.9 0 0 0 .1.1.1-.6.4-1.4.6-2.2.4l.1-.5s-.6.3-.7.3v.1c-.5-.2-1-.5-1.4-.9-1.7-1.6-.6-6.2 1.6-8.2.9-.9 1.7-1 2.3-.9v.2l.5.1c-.1-.1-.1-.1-.1-.2z"/><path d="M151.7 42.9v.2l-.5-.1v-.2c.2-.1.3 0 .5.1zM151.6 52.5c.1.2.2.3.2.3s-.2-.2-.2-.3zM151.6 52.4s-.1 0 0 0c-.1 0-.1 0 0 0-.1 0 0 0 0 0zM149.9 92l-.4.4c-.2 0-.3-.1-.5-.2l.1-.3c.1-.1.8.1.8.1z"/><path d="M149.5 92.3l-.8.8.3-1c.2.1.4.2.5.2zM149.4 52.4l-.1.5c-.2 0-.4-.1-.6-.1v-.1c.1 0 .7-.3.7-.3z"/><path d="M149.3 52.9l-.2 1.1-.3-1.2c.1 0 .3.1.5.1zM148.9 36.1c.1.2.2.3.2.2-.1 0-.3-.1-.5-.3.1 0 .2 0 .3.1zM149.1 76h.2c-1.1.3-2.2.6-3.4.8-.1 0-.1-.1-.2-.1l3.4-.7zM148.5 36l-.4.1-.1-.1c.1-.1.3-.1.5 0z"/><path d="M146.9 34.5c-.2-.2-.6-.5-1.1-.9-.4-.2-1-.5-1.6-.7-1.5-.6-3.7-1.8-5.2-3.3-1.5-1.5-3-5.4-4-8.9s-1.1-8-.1-7.5c1 .6 2.4 2.4 3.7 5.3 1.3 2.9 3 7.6 4.8 9.7 1.5 1.7 2.8 4.6 3.2 5.6.2.3.4.6.5.8.3.4 1 .9 1.2 1.1 0 .1-.1.3 0 .4-.1-.4-.9-1.2-1.4-1.6zm-11.3-17c1.2 4.2 4.7 12.6 9.8 15.1-6.6-4.6-10.4-17.1-9.8-15.1zM148 36.1s0-.1 0 0c-.1-.1-.1-.1 0 0 0-.1 0-.1 0 0z"/><path d="M130.1 48.9c.1-.1.6-.8 1.4-1.8 3.3-3.4 10.3-7.8 13.4-9.7.4-.2.7-.3 1-.4l.6-.4c.3-.2-.3.1-1.6.9-2.9 1.3-7.2 3.7-9.7 5.9-1.4 1.2-2.8 2.7-3.7 3.8-.6.6-1.1 1.2-1.4 1.7zM148 36s0 .1 0 0c0 .1 0 .1 0 0-.2.2-.6.4-.9.6-1.3 1.3-7 6.6-9.7 8.7-3 2.4-7.8 5.7-10 6.5-2.2.8-1.2-.5-.1-1.8 1.1-1.4 2.4-2.9 4.3-5.7 1.9-2.8 4.5-5.2 7.5-6.5 5.7-2.3 8.4-2.1 8.9-1.8-.1 0-.1 0 0 0zM147.8 65.7c-.7 1.6-.9 2.7-1.2 3.8-.3 1.2-1.1 2.8-1.1 2.8s-.3 1.2-.7 2h-.4c.1-.2.2-.4.2-.6.2-1.1.1-1.5.1-1.5s-.6-2-.3-3.9c0-.3.1-.6.1-.9.4-.3.9-.6 1.4-.8-.3 1.3-.5 2.5-.6 3.1 0 .2-.1.4-.1.4s0-.1.1-.4c.1-.6.4-1.9.8-3.3.7-.3 1.2-.6 1.7-.7zM147.3 45.3c-.4.7-.7 1.5-.9 2.3-1.6.1-1.5 0-3.5.2h3.4c-.2.7-.2 1.4-.2 2-2.2-.1-4.3-.3-6-.7-2.5-.5.1-2.2 3.8-3.3 1.1-.2 2.2-.4 3.4-.5zM145.9 76.8c.2.1.3.2.5.3h-.8c-.1-.1-.2-.1-.3-.2.2 0 .4 0 .6-.1z"/><path d="M145.7 76.7c.1 0 .1.1.2.1-.2 0-.4.1-.6.1-.1 0-.1-.1-.2-.1l.6-.1z"/><path d="M145.7 76.7l-.6.1c-.6-.4-1.2-.8-1.8-1.3H143.9l1.8 1.2zM145.3 76.9c.1.1.2.1.3.2-1.5 0-2.7.2-3.2.3l1.1-.2 1.8-.3zM145.1 76.8s.1.1.2.1c-.6.1-1.2.2-1.8.2l1.6-.3z"/><path d="M145.1 76.8l-1.6.3c-4 .4-8.7.7-13.1-1.3-4.4-2.1-7.3-4.7-9.2-6.1l.3-2.3c.5.1 1 .1 1.5.2.5.6 1.1 1.2 1.6 1.8-.5.1-.9.1-.9.1l-.1.6s.7-.1 1.5-.3c1.6 1.5 3.4 2.8 5.4 3.6 4.1 1.7 8.4 2.4 12.5 2.1l-.1.1.5-.1c.5.5 1.1.9 1.7 1.3zM144.8 74.2c-.1.1-.1.2-.2.3l-.3.3h-.4c.2-.2.4-.4.5-.6h.4z"/><path d="M142.5 74.2c.6.1 1.2.1 1.9 0-.1.2-.3.4-.5.6h-.8c-.1-.1-.2-.2-.4-.3-.2-.2-.4-.3-.6-.5.1.1.3.2.4.2zM143.8 74.8h.4c-.2.3-.4.4-.5.5-.1-.1-.2-.1-.3-.2.2 0 .3-.1.4-.3zM143.7 75.4l.1.1h-.4.1c.1 0 .1 0 .2-.1z"/><path d="M143.5 75.2c.1.1.2.1.3.2l-.1.1H143.4l-.1-.1c-.1 0 0-.1.2-.2zM143.5 75.5h-.2.2zM143 74.9c.1.1.3.2.4.3-.1.1-.2.2-.3.2-.1-.1-.3-.2-.4-.3-.1-.1-.2-.2-.4-.3.3.1.5.1.7.1zM143.3 75.5l-.5.1s.1 0 .1-.1h.4zM143.1 75.4l.1.1h-.3c.1 0 .1 0 .2-.1z"/><path d="M143 74.9h-.7c-.4-.3-.8-.6-1.2-.8.3 0 .6 0 .8.1.2.2.4.3.6.5.3 0 .4.1.5.2z"/><path d="M141.2 74.1c.4.3.8.5 1.2.8-6-.1-11.3-2.1-14.9-4.8-.3-.2-.6-.5-1-.8.2-.1.4-.2.6-.4 4.2 3.9 8.8 4.7 14.1 5.2zM142.1 74.1c-.3 0-.6 0-.8-.1-.8-.5-1.7-1-2.5-1.5.1.1.2 0 .5-.2.9.6 1.8 1.2 2.8 1.8z"/><path d="M138.6 72c.2.1.4.2.5.3-.2.2-.4.3-.5.2V72z"/><path d="M138.7 72.5c-3.6-1.9-7.5-3.1-11.3-4l.5-.5c3.6.9 7.3 2.2 10.7 4 0 .3 0 .5.1.5zM137.3 50.2c.2.2.1 1-.2 1.9l-1-.1c-4 3.4-6 8.5-7.6 13.6h-.9c.3-2.2.7-5.2 2.6-8.4 3-5.1 6.6-7.6 7.1-7z"/><path d="M136.2 51.9l1 .1c-.4 1.3-1.2 2.9-1.8 4-1.1 1.9-4.5 7.5-5.4 9.2-.5 1-1.2 2-1.9 2.7-.2-.1-.4-.1-.7-.2.2-.5.3-1.4.4-2.4h.9c.2-.4 2.7-6.1 3.8-8.3.9-1.9 3.4-4.7 3.7-5.1zM127.9 68c-.2.2-.3.4-.5.5-.2 0-.4-.1-.5-.1.1-.1.2-.2.2-.3.1-.1.1-.2.2-.3.2.1.4.2.6.2z"/><path d="M126.9 68.4c.2 0 .4.1.5.1l-.3.3-.3-.3.1-.1zM127.2 67.8c0 .1-.1.2-.2.3-.1.1-.1.2-.2.3-.1 0-.2 0-.3-.1l-.8-.8c.6.1 1.1.2 1.5.3zM126.7 68.5l.3.3c-.2.2-.4.3-.6.4l-.3-.3c.3-.1.5-.2.6-.4z"/><path d="M126.6 68.3l.2.2c-.2.1-.4.3-.6.4-.2-.3-.5-.5-.7-.8.3.1.7.2 1.1.2z"/><path d="M126.5 69.2c-.4.2-1 .4-1.5.6l-.4-.4c.5-.1 1.1-.3 1.6-.5l.3.3zM126.6 68.3c-.4-.1-.8-.2-1.2-.2-.2-.3-.5-.5-.7-.8.3.1.7.1 1 .2.3.3.6.6.9.8zM124.6 69.4l.4.4c-.8.2-1.5.3-1.5.3l.1-.6c0 .1.4 0 1-.1z"/><path d="M124.7 67.3c.2.3.4.6.7.8-.8-.2-1.7-.3-2.5-.4-.2-.3-.5-.5-.7-.8.8.1 1.7.2 2.5.4z"/><path d="M122.2 66.8c.2.3.4.5.7.8-.5-.1-1.1-.1-1.5-.2l.1-.7c.3.1.5.1.7.1zM133.8 87.2c1.9-3.1-3-5.9-6.2-3.4-3.2 2.5-1.4 7.5 1.6 9.2 3 1.6 7 1.9 9.8-4.1 2.4-5.3-3.5-12.6-3.5-12.6l-6-1s8 4.3 8.7 8.7c.8 4.4-2.3 8.4-4.8 9-2.4.6-5.2-1.2-6.1-2.8-.9-1.6-2-5.7 1.6-6.7s4.5.7 4.7 1c.2.3 0 2.4-.7 1.9-.7-.4-.8-1.6-2.3-1-1.5.6-1.4 2.7-1.4 2.7s1.1-2.2 2.1-1.5c1 .7 1.3.9 1.8.9.4.2.7-.3.7-.3zM146.9 45.5zM146.9 45.5zM146.9 45.5zM146.9 45.5zM146.9 45.5zM146.9 45.5zM146.9 45.5zM146.9 45.5zM146.9 45.5zM146.9 45.5zM146.9 45.5zM146.9 45.5zM146.9 45.5zM146.9 45.5zM146.9 45.5zM146.9 45.5zM146.9 45.5zM146.9 45.5zM146.9 45.5zM146.9 45.5zM146.9 45.5zM146.9 45.5zM146.9 45.5zM146.9 45.5zM146.9 45.5zM146.9 45.5zM146.9 45.5zM146.9 45.5zM146.9 45.5zM146.9 45.5zM146.9 45.5zM146.9 45.5zM146.9 45.5zM146.9 45.5zM146.9 45.5zM146.9 45.5zM146.9 45.5zM146.9 45.5zM146.9 45.5zM146.9 45.5zM146.9 45.5zM146.9 45.5zM146.9 45.5zM146.9 45.5zM146.9 45.5zM146.9 45.5zM146.9 45.5zM146.9 45.5zM146.9 45.5zM146.9 45.5zM146.9 45.5zM146.9 45.5zM146.9 45.5zM146.9 45.5zM146.9 45.5zM146.9 45.5zM146.9 45.5zM146.9 45.5zM146.9 45.5zM146.9 45.5zM146.9 45.5zM146.9 45.5zM146.9 45.5zM146.9 45.5zM146.9 45.5zM146.9 45.5zM146.9 45.5zM146.9 45.5zM146.9 45.5zM146.9 45.5zM146.9 45.5zM146.9 45.5zM146.9 45.5zM146.9 45.5zM146.9 45.5zM146.9 45.5zM146.9 45.5zM146.9 45.5zM146.9 45.5zM146.9 45.5zM146.9 45.5zM146.9 45.5zM146.9 45.5zM146.9 45.5zM146.9 45.5zM146.9 45.5zM146.9 45.5zM146.9 45.5zM146.9 45.5zM146.9 45.5zM146.9 45.5zM146.9 45.5zM146.9 45.5zM146.9 45.5zM146.9 45.5zM146.9 45.5zM146.9 45.5zM146.9 45.5zM146.9 45.5zM146.9 45.5zM146.9 45.5zM146.9 45.5zM146.9 45.5zM146.9 45.5zM146.9 45.5zM146.9 45.5zM146.9 45.5zM146.9 45.5zM146.9 45.5zM146.9 45.5zM146.9 45.5zM146.9 45.5zM146.9 45.5zM146.9 45.5zM146.9 45.5zM146.9 45.5zM146.9 45.5zM146.9 45.5zM146.9 45.5zM146.9 45.5zM146.9 45.5zM146.9 45.5zM146.9 45.5zM146.9 45.5zM146.9 45.5zM146.9 45.5zM146.9 45.5zM146.9 45.5zM146.9 45.5zM146.9 45.5zM146.9 45.5zM146.9 45.5zM146.9 45.5zM146.9 45.5zM146.9 45.5zM146.9 45.5zM146.9 45.5zM146.9 45.5zM146.9 45.5zM146.9 45.5zM146.9 45.5zM146.9 45.5zM146.9 45.5zM146.9 45.5zM146.9 45.5zM146.9 45.5zM146.9 45.5zM146.9 45.5zM146.9 45.5zM146.9 45.5zM146.9 45.5zM146.9 45.5zM146.9 45.5zM146.9 45.5zM146.9 45.5zM146.9 45.5zM146.9 45.5zM146.9 45.5zM146.9 45.5zM146.9 45.5zM146.9 45.5zM146.9 45.5zM146.9 45.5zM146.9 45.5zM146.9 45.5zM146.9 45.5zM146.9 45.5zM146.9 45.5zM146.9 45.5zM146.9 45.5zM146.9 45.5zM146.9 45.5zM146.9 45.5zM146.9 45.5zM146.9 45.5zM146.9 45.5zM146.9 45.5zM146.9 45.5zM146.9 45.5zM146.9 45.5zM146.9 45.5zM146.9 45.5zM146.9 45.5zM146.9 45.5zM146.9 45.5zM146.9 45.5zM146.9 45.5zM146.9 45.5zM146.9 45.5zM146.9 45.5zM146.9 45.5zM146.9 45.5zM146.9 45.5zM146.9 45.5zM146.9 45.5zM146.9 45.5zM146.9 45.5zM146.9 45.5zM146.9 45.5zM146.9 45.5zM146.9 45.5zM146.9 45.5zM146.9 45.5zM146.9 45.5zM146.9 45.5zM146.9 45.5zM146.9 45.5zM146.9 45.5zM146.9 45.5zM146.9 45.5zM146.9 45.5zM146.9 45.5zM146.9 45.5zM146.9 45.5zM146.9 45.5zM146.9 45.5zM146.9 45.5zM146.9 45.5zM146.9 45.5zM146.9 45.5zM146.9 45.5zM146.9 45.5zM146.9 45.5zM146.9 45.5zM146.9 45.5zM146.9 45.5zM146.9 45.5zM146.9 45.5zM146.9 45.5zM146.9 45.5zM146.9 45.5zM146.9 45.5zM146.9 45.5zM146.9 45.5zM146.9 45.5zM146.9 45.5zM146.9 45.5zM146.9 45.5zM146.9 45.5zM146.9 45.5zM146.9 45.5zM146.9 45.5zM146.9 45.5zM146.9 45.5zM146.9 45.5zM146.9 45.5zM146.9 45.5zM146.9 45.5zM146.9 45.5zM146.9 45.5zM146.9 45.5zM146.9 45.5zM146.9 45.5zM146.9 45.5zM146.9 45.5zM146.9 45.5zM146.9 45.5zM146.9 45.5zM146.9 45.5zM146.9 45.5zM146.9 45.5zM146.9 45.5zM146.9 45.5zM146.9 45.5zM146.9 45.5zM146.9 45.5zM146.9 45.5zM146.9 45.5zM146.9 45.5zM146.9 45.5zM146.9 45.5zM146.9 45.5zM146.9 45.5zM146.9 45.5zM146.9 45.5zM146.9 45.5zM146.9 45.5zM146.9 45.5zM146.9 45.5zM146.9 45.5zM146.9 45.5zM146.9 45.5zM146.9 45.5zM146.9 45.5zM146.9 45.5zM146.9 45.5zM146.9 45.5zM146.9 45.5zM146.9 45.5zM146.9 45.5zM146.9 45.5zM146.9 45.5zM146.9 45.5zM146.9 45.5zM146.9 45.5zM146.9 45.5zM146.9 45.5zM146.9 45.5zM146.9 45.5zM146.9 45.5zM146.9 45.5zM146.9 45.5zM146.9 45.5zM146.9 45.5zM146.9 45.5zM146.9 45.5zM146.9 45.5zM146.9 45.5zM146.9 45.5zM146.9 45.5zM146.9 45.5zM146.9 45.5zM146.9 45.5zM146.9 45.5zM146.9 45.5zM146.9 45.5zM146.9 45.5zM146.9 45.5zM146.9 45.5zM146.9 45.5zM146.9 45.5zM146.9 45.5zM146.9 45.5zM146.9 45.5zM146.9 45.5zM146.9 45.5zM146.9 45.5zM146.9 45.5zM146.9 45.5zM146.9 45.5zM146.9 45.5zM146.9 45.5zM146.9 45.5zM146.9 45.5zM146.9 45.5zM146.9 45.5zM146.9 45.5zM146.9 45.5zM146.9 45.5zM146.9 45.5zM146.9 45.5zM146.9 45.5zM146.9 45.5zM146.9 45.5zM146.9 45.5zM146.9 45.5zM146.9 45.5zM146.9 45.5zM146.9 45.5zM146.9 45.5zM146.9 45.5zM146.9 45.5zM146.9 45.5zM146.9 45.5zM146.9 45.5zM146.9 45.5zM146.9 45.5zM146.9 45.5zM146.9 45.5zM146.9 45.5zM146.9 45.5zM146.9 45.5zM146.9 45.5zM146.9 45.5zM146.9 45.5zM146.9 45.5zM146.9 45.5zM146.9 45.5zM146.9 45.5zM146.9 45.5zM146.9 45.5zM146.9 45.5zM146.9 45.5zM146.9 45.5zM146.9 45.5zM146.9 45.5zM146.9 45.5zM146.9 45.5zM146.9 45.5zM146.9 45.5zM146.9 45.5zM146.9 45.5zM146.9 45.5zM146.9 45.5zM146.9 45.5zM146.9 45.5zM146.9 45.5zM146.9 45.5zM146.9 45.5zM146.9 45.5zM146.9 45.5zM146.9 45.5zM146.9 45.5zM146.9 45.5zM146.9 45.5zM146.9 45.5zM146.9 45.5zM146.9 45.5zM146.9 45.5zM146.9 45.5zM146.9 45.5zM146.9 45.5zM146.9 45.5zM146.9 45.5zM146.9 45.5zM146.9 45.5zM146.9 45.5zM146.9 45.5zM146.9 45.5zM146.9 45.5zM146.9 45.5zM146.9 45.5zM146.9 45.5zM146.9 45.5zM146.9 45.5zM146.9 45.5zM146.9 45.5zM146.9 45.5zM146.9 45.5zM146.9 45.5zM146.9 45.5zM146.9 45.5zM146.9 45.5zM146.9 45.5zM146.9 45.5zM146.9 45.5zM146.9 45.5zM146.9 45.5zM146.9 45.5zM146.9 45.5zM146.9 45.5zM146.9 45.5zM146.9 45.5zM146.9 45.5zM146.9 45.5zM146.9 45.5zM146.9 45.5zM146.9 45.5zM146.9 45.5zM146.9 45.5zM146.9 45.5zM146.9 45.5zM146.9 45.5zM146.9 45.5zM146.9 45.5zM146.9 45.5zM146.9 45.5zM146.9 45.5zM146.9 45.5zM146.9 45.5zM146.9 45.5zM146.9 45.5zM146.9 45.5zM146.9 45.5zM146.9 45.5zM146.9 45.5zM146.9 45.5zM146.9 45.5zM146.9 45.5zM146.9 45.5zM146.9 45.5zM146.9 45.5zM146.9 45.5zM146.9 45.5zM146.9 45.5zM146.9 45.5zM146.9 45.5zM146.9 45.5zM146.9 45.5zM146.9 45.5zM146.9 45.5zM146.9 45.5zM146.9 45.5zM146.9 45.5zM146.9 45.5zM146.9 45.5zM146.9 45.5zM146.9 45.5zM146.9 45.5zM146.9 45.5zM146.9 45.5zM146.9 45.5zM146.9 45.5zM146.9 45.5zM146.9 45.5zM146.9 45.5zM146.9 45.5zM146.9 45.5zM146.9 45.5zM146.9 45.5zM146.9 45.5zM146.9 45.5zM146.9 45.5zM146.9 45.5zM146.9 45.5zM146.9 45.5zM146.9 45.5zM146.9 45.5zM146.9 45.5zM146.9 45.5zM146.9 45.5zM146.9 45.5zM146.9 45.5zM146.9 45.5zM146.9 45.5zM146.9 45.5zM146.9 45.5zM146.9 45.5zM146.9 45.5zM146.9 45.5zM146.9 45.5zM146.9 45.5zM146.9 45.5zM146.9 45.5zM146.9 45.5zM146.9 45.5zM146.9 45.5zM146.9 45.5zM146.9 45.5zM146.9 45.5zM146.9 45.5zM146.9 45.5zM146.9 45.5zM146.9 45.5zM146.9 45.5zM146.9 45.5zM146.9 45.5zM146.9 45.5zM146.9 45.5zM146.9 45.5zM146.9 45.5zM146.9 45.5zM146.9 45.5zM146.9 45.5zM146.9 45.5zM146.9 45.5zM146.9 45.5zM146.9 45.5zM146.9 45.5zM146.9 45.5zM146.9 45.5zM146.9 45.5zM146.9 45.5zM146.9 45.5zM146.9 45.5zM146.9 45.5zM146.9 45.5zM146.9 45.5zM146.9 45.5zM146.9 45.5zM146.9 45.5zM146.9 45.5zM146.9 45.5zM146.9 45.5zM146.9 45.5zM146.9 45.5zM146.9 45.5zM146.9 45.5zM146.9 45.5zM146.9 45.5zM146.9 45.5zM146.9 45.5zM146.9 45.5zM146.9 45.5zM146.9 45.5zM146.9 45.5zM146.9 45.5zM146.9 45.5zM146.9 45.5zM146.9 45.5zM146.9 45.5zM146.9 45.5zM146.9 45.5zM146.9 45.5zM146.9 45.5zM146.9 45.5zM146.9 45.5zM146.9 45.5zM146.9 45.5zM146.9 45.5zM146.9 45.5zM146.9 45.5zM146.9 45.5zM146.9 45.5zM146.9 45.5zM146.9 45.5zM146.9 45.5zM146.9 45.5zM146.9 45.5zM146.9 45.5zM146.9 45.5zM146.9 45.5zM146.9 45.5zM146.9 45.5zM146.9 45.5zM146.9 45.5zM146.9 45.5zM146.9 45.5zM146.9 45.5zM146.9 45.5zM146.9 45.5zM146.9 45.5zM146.9 45.5zM146.9 45.5zM146.9 45.5zM146.9 45.5zM146.9 45.5zM146.9 45.5zM146.9 45.5zM146.9 45.5zM146.9 45.5zM146.9 45.5zM146.9 45.5zM146.9 45.5zM146.9 45.5zM146.9 45.5zM146.9 45.5zM146.9 45.5zM146.9 45.5zM146.9 45.5zM146.9 45.5zM146.9 45.5zM146.9 45.5zM146.9 45.5zM146.9 45.5zM146.9 45.5zM146.9 45.5zM146.9 45.5zM146.9 45.5zM146.9 45.5zM146.9 45.5zM146.9 45.5zM146.9 45.5zM146.9 45.5zM146.9 45.5zM146.9 45.5zM146.9 45.5zM146.9 45.5zM146.9 45.5zM146.9 45.5zM146.9 45.5zM146.9 45.5zM146.9 45.5zM146.9 45.5zM146.9 45.5zM146.9 45.5zM146.9 45.5zM146.9 45.5zM146.9 45.5zM146.9 45.5zM146.9 45.5zM146.9 45.5zM146.9 45.5zM146.9 45.5zM146.9 45.5zM146.9 45.5zM146.9 45.5zM146.9 45.5zM146.9 45.5zM146.9 45.5zM146.9 45.5zM146.9 45.5zM146.9 45.5zM146.9 45.5z"/><g><path d="M152.7 15.7zM152.7 15.7zM152.7 15.7zM152.7 15.7zM152.7 15.7zM152.7 15.7zM152.7 15.7zM152.7 15.7zM152.7 15.7zM152.7 15.7zM152.7 15.7zM152.7 15.7zM152.7 15.7zM152.7 15.7zM152.7 15.7zM152.7 15.7zM152.7 15.7zM152.7 15.7zM152.7 15.7zM152.7 15.7zM152.7 15.7zM152.7 15.7zM152.7 15.7zM152.7 15.7zM152.7 15.7zM152.7 15.7zM152.7 15.7zM152.7 15.7zM152.7 15.7zM152.7 15.7zM152.7 15.7zM152.7 15.7zM152.7 15.7zM152.7 15.7zM152.7 15.7zM152.7 15.7zM152.7 15.7zM152.7 15.7zM152.7 15.7zM152.7 15.7zM152.7 15.7zM152.7 15.7zM152.7 15.7zM152.7 15.7zM152.7 15.7zM152.7 15.7zM152.7 15.7zM152.7 15.7zM152.7 15.7zM152.7 15.7zM152.7 15.7zM152.7 15.7zM152.7 15.7zM152.7 15.7zM152.7 15.7zM152.7 15.7zM152.7 15.7zM152.7 15.7zM152.7 15.7zM152.7 15.7zM152.7 15.7zM152.7 15.7zM152.7 15.7zM152.7 15.7zM152.7 15.7zM152.7 15.7zM152.7 15.7zM152.7 15.7zM152.7 15.7zM152.7 15.7zM152.7 15.7zM152.7 15.7zM152.7 15.7zM152.7 15.7zM152.7 15.7zM152.7 15.7zM152.7 15.7zM152.7 15.7zM152.7 15.7zM152.7 15.7zM152.7 15.7zM152.7 15.7zM152.7 15.7zM152.7 15.7zM152.7 15.7zM152.7 15.7zM152.7 15.7zM152.7 15.7zM152.7 15.7zM152.7 15.7zM152.7 15.7zM152.7 15.7zM152.7 15.7zM152.7 15.7zM152.7 15.7zM152.7 15.7zM152.7 15.7zM152.7 15.7zM152.7 15.7zM152.7 15.7zM152.7 15.7zM152.7 15.7zM152.7 15.7zM152.7 15.7zM152.7 15.7zM152.7 15.7zM152.7 15.7zM152.7 15.7zM152.7 15.7zM152.7 15.7zM152.7 15.7zM152.7 15.7zM152.7 15.7zM152.7 15.7zM152.7 15.7zM152.7 15.7zM152.7 15.7zM152.7 15.7zM152.7 15.7zM152.7 15.7zM152.7 15.7zM152.7 15.7zM152.7 15.7zM152.7 15.7zM152.7 15.7zM152.7 15.7zM152.7 15.7zM152.7 15.7zM152.7 15.7zM152.7 15.7zM152.7 15.7zM152.7 15.7zM152.7 15.7zM152.7 15.7zM152.7 15.7zM152.7 15.7zM152.7 15.7zM152.7 15.7zM152.7 15.7zM152.7 15.7zM152.7 15.7zM152.7 15.7zM152.7 15.7zM152.7 15.7zM152.7 15.7zM152.7 15.7zM152.7 15.7zM152.7 15.7zM152.7 15.7zM152.7 15.7zM152.7 15.7zM152.7 15.7zM152.7 15.7zM152.7 15.7zM152.7 15.7zM152.7 15.7zM152.7 15.7zM152.7 15.7zM152.7 15.7zM152.7 15.7zM152.7 15.7zM152.7 15.7zM152.7 15.7zM152.7 15.7zM152.7 15.7zM152.7 15.7zM152.7 15.7zM152.7 15.7zM152.7 15.7zM152.7 15.7zM152.7 15.7zM152.7 15.7zM152.7 15.7zM152.7 15.7zM152.7 15.7zM152.7 15.7zM152.7 15.7zM152.7 15.7zM152.7 15.7zM152.7 15.7zM152.7 15.7zM152.7 15.7zM152.7 15.7zM152.7 15.7zM152.7 15.7zM152.7 15.7zM152.7 15.7zM152.7 15.7zM152.7 15.7zM152.7 15.7zM152.7 15.7zM152.7 15.7zM152.7 15.7zM152.7 15.7zM152.7 15.7zM152.7 15.7zM152.7 15.7zM152.7 15.7zM152.7 15.7zM152.7 15.7zM152.7 15.7zM152.7 15.7zM152.7 15.7zM152.7 15.7zM152.7 15.7zM152.7 15.7zM152.7 15.7zM152.7 15.7zM152.7 15.7zM152.7 15.7zM152.7 15.7zM152.7 15.7zM152.7 15.7zM152.7 15.7zM152.7 15.7zM152.7 15.7zM152.7 15.7zM152.7 15.7zM152.7 15.7zM152.7 15.7zM152.7 15.7zM152.7 15.7zM152.7 15.7zM152.7 15.7zM152.7 15.7zM152.7 15.7zM152.7 15.7zM152.7 15.7zM152.7 15.7zM152.7 15.7zM152.7 15.7zM152.7 15.7zM152.7 15.7zM152.7 15.7zM152.7 15.7zM152.7 15.7zM152.7 15.7zM152.7 15.7zM152.7 15.7zM152.7 15.7zM152.7 15.7zM152.7 15.7zM152.7 15.7zM152.7 15.7zM152.7 15.7zM152.7 15.7zM152.7 15.7zM152.7 15.7zM152.7 15.7zM152.7 15.7zM152.7 15.7zM152.7 15.7zM152.7 15.7zM152.7 15.7zM152.7 15.7zM152.7 15.7zM152.7 15.7zM152.7 15.7zM152.7 15.7zM152.7 15.7zM152.7 15.7zM152.7 15.7zM152.7 15.7zM152.7 15.7zM152.7 15.7zM152.7 15.7zM152.7 15.7zM152.7 15.7zM152.7 15.7zM152.7 15.7zM152.7 15.7zM152.7 15.7zM152.7 15.7zM152.7 15.7zM152.7 15.7zM152.7 15.7zM152.7 15.7zM152.7 15.7zM152.7 15.7zM152.7 15.7zM152.7 15.7zM152.7 15.7zM152.7 15.7zM152.7 15.7zM152.7 15.7zM152.7 15.7zM152.7 15.7zM152.7 15.7zM152.7 15.7zM152.7 15.7zM152.7 15.7zM152.7 15.7zM152.7 15.7zM152.7 15.7zM152.7 15.7zM152.7 15.7zM152.7 15.7zM152.7 15.7zM152.7 15.7zM152.7 15.7zM152.7 15.7zM152.7 15.7zM152.7 15.7zM152.7 15.7zM152.7 15.7zM152.7 15.7zM152.7 15.7zM152.7 15.7zM152.7 15.7zM152.7 15.7zM152.7 15.7zM152.7 15.7zM152.7 15.7zM152.7 15.7zM152.7 15.7zM152.7 15.7zM152.7 15.7zM152.7 15.7zM152.7 15.7zM152.7 15.7zM152.7 15.7zM152.7 15.7zM152.7 15.7zM152.7 15.7zM152.7 15.7zM152.7 15.7zM152.7 15.7zM152.7 15.7zM152.7 15.7zM152.7 15.7zM152.7 15.7zM152.7 15.7zM152.7 15.7zM152.7 15.7zM152.7 15.7zM152.7 15.7zM152.7 15.7zM152.7 15.7zM152.7 15.7zM152.7 15.7zM152.7 15.7zM152.7 15.7zM152.7 15.7zM152.7 15.7zM152.7 15.7zM152.7 15.7zM152.7 15.7zM152.7 15.7zM152.7 15.7zM152.7 15.7zM152.7 15.7zM152.7 15.7zM152.7 15.7zM152.7 15.7zM152.7 15.7zM152.7 15.7zM152.7 15.7zM152.7 15.7zM152.7 15.7zM152.7 15.7zM152.7 15.7zM152.7 15.7zM152.7 15.7zM152.7 15.7zM152.7 15.7zM152.7 15.7zM152.7 15.7zM152.7 15.7zM152.7 15.7zM152.7 15.7zM152.7 15.7zM152.7 15.7zM152.7 15.7zM152.7 15.7zM152.7 15.7zM152.7 15.7zM152.7 15.7zM152.7 15.7zM152.7 15.7zM152.7 15.7zM152.7 15.7zM152.7 15.7zM152.7 15.7zM152.7 15.7zM152.7 15.7zM152.7 15.7zM152.7 15.7zM152.7 15.7zM152.7 15.7zM152.7 15.7zM152.7 15.7zM152.7 15.7zM152.7 15.7zM152.7 15.7zM152.7 15.7zM152.7 15.7zM152.7 15.7zM152.7 15.7zM152.7 15.7zM152.7 15.7zM152.7 15.7zM152.7 15.7zM152.7 15.7zM152.7 15.7zM152.7 15.7zM152.7 15.7zM152.7 15.7zM152.7 15.7zM152.7 15.7zM152.7 15.7zM152.7 15.7zM152.7 15.7zM152.7 15.7zM152.7 15.7zM152.7 15.7zM152.7 15.7zM152.7 15.7zM152.7 15.7zM152.7 15.7zM152.7 15.7zM152.7 15.7zM152.7 15.7zM152.7 15.7zM152.7 15.7zM152.7 15.7zM152.7 15.7zM152.7 15.7zM152.7 15.7zM152.7 15.7zM152.7 15.7zM152.7 15.7zM152.7 15.7zM152.7 15.7zM152.7 15.7zM152.7 15.7zM152.7 15.7zM152.7 15.7zM152.7 15.7zM152.7 15.7zM152.7 15.7zM152.7 15.7zM152.7 15.7zM152.7 15.7zM152.7 15.7zM152.7 15.7zM152.7 15.7zM152.7 15.7zM152.7 15.7zM152.7 15.7zM152.7 15.7zM152.7 15.7zM152.7 15.7zM152.7 15.7zM152.7 15.7zM152.7 15.7zM152.7 15.7zM152.7 15.7zM152.7 15.7zM152.7 15.7zM152.7 15.7zM152.7 15.7zM152.7 15.7zM152.7 15.7zM152.7 15.7zM152.7 15.7zM152.7 15.7zM152.7 15.7zM152.7 15.7zM152.7 15.7zM152.7 15.7zM152.7 15.7zM152.7 15.7zM152.7 15.7zM152.7 15.7zM152.7 15.7zM152.7 15.7zM152.7 15.7zM152.7 15.7zM152.7 15.7zM152.7 15.7zM152.7 15.7zM152.7 15.7zM152.7 15.7zM152.7 15.7zM152.7 15.7zM152.7 15.7zM152.7 15.7zM152.7 15.7zM152.7 15.7zM152.7 15.7zM152.7 15.7zM152.7 15.7zM152.7 15.7zM152.7 15.7zM152.7 15.7zM152.7 15.7zM152.7 15.7zM152.7 15.7zM152.7 15.7zM152.7 15.7zM152.7 15.7zM152.7 15.7zM152.7 15.7zM152.7 15.7zM152.7 15.7zM152.7 15.7zM152.7 15.7zM152.7 15.7zM152.7 15.7zM152.7 15.7zM152.7 15.7zM152.7 15.7zM152.7 15.7zM152.7 15.7zM152.7 15.7zM152.7 15.7zM152.7 15.7zM152.7 15.7zM152.7 15.7zM152.7 15.7zM152.7 15.7zM152.7 15.7zM152.7 15.7zM152.7 15.7zM152.7 15.7zM152.7 15.7zM152.7 15.7zM152.7 15.7zM152.7 15.7zM152.7 15.7zM152.7 15.7zM152.7 15.7zM152.7 15.7zM152.7 15.7zM152.7 15.7zM152.7 15.7zM152.7 15.7zM152.7 15.7zM152.7 15.7zM152.7 15.7zM152.7 15.7zM152.7 15.7zM152.7 15.7zM152.7 15.7zM152.7 15.7zM152.7 15.7zM152.7 15.7zM152.7 15.7zM152.7 15.7zM152.7 15.7zM152.7 15.7zM152.7 15.7zM152.7 15.7zM152.7 15.7zM152.7 15.7zM152.7 15.7zM152.7 15.7zM152.7 15.7zM152.7 15.7zM152.7 15.7zM152.7 15.7zM152.7 15.7zM152.7 15.7zM152.7 15.7zM152.7 15.7zM152.7 15.7zM152.7 15.7zM152.7 15.7zM152.7 15.7zM152.7 15.7zM152.7 15.7zM152.7 15.7zM152.7 15.7zM152.7 15.7zM152.7 15.7zM152.7 15.7zM152.7 15.7zM152.7 15.7zM152.7 15.7zM152.7 15.7zM152.7 15.7zM152.7 15.7zM152.7 15.7zM152.7 15.7zM152.7 15.7zM152.7 15.7zM152.7 15.7zM152.7 15.7zM152.7 15.7zM152.7 15.7zM152.7 15.7zM152.7 15.7zM152.7 15.7zM152.7 15.7zM152.7 15.7zM152.7 15.7zM152.7 15.7zM152.7 15.7zM152.7 15.7zM152.7 15.7zM152.7 15.7zM152.7 15.7zM152.7 15.7zM152.7 15.7zM152.7 15.7zM152.7 15.7zM152.7 15.7zM152.7 15.7zM152.7 15.7zM152.7 15.7zM152.7 15.7zM152.7 15.7zM152.7 15.7zM152.7 15.7zM152.7 15.7zM152.7 15.7zM152.7 15.7zM152.7 15.7zM152.7 15.7zM152.7 15.7zM152.7 15.7zM152.7 15.7zM152.7 15.7zM152.7 15.7zM152.7 15.7zM152.7 15.7zM152.7 15.7zM152.7 15.7zM152.7 15.7zM152.7 15.7zM152.7 15.7zM152.7 15.7zM152.7 15.7zM152.7 15.7zM152.7 15.7zM152.7 15.7zM152.7 15.7zM152.7 15.7zM152.7 15.7zM152.7 15.7zM152.7 15.7zM152.7 15.7zM152.7 15.7zM152.7 15.7zM152.7 15.7zM152.7 15.7zM152.7 15.7zM152.7 15.7zM152.7 15.7zM152.7 15.7zM152.7 15.7zM152.7 15.7zM152.7 15.7zM152.7 15.7zM152.7 15.7zM152.7 15.7zM152.7 15.7zM152.7 15.7zM152.7 15.7zM152.7 15.7zM152.7 15.7zM152.7 15.7zM152.7 15.7zM152.7 15.7z"/></g><g><path d="M140.2 48.1zM140.2 48.1zM140.2 48.1zM140.2 48.1zM140.2 48.1zM140.2 48.1zM140.2 48.1zM140.2 48.1zM140.2 48.1zM140.2 48.1zM140.2 48.1zM140.2 48.1zM140.2 48.1zM140.2 48.1zM140.2 48.1zM140.2 48.1z"/></g><g><path d="M158.9 25.4zM158.9 25.4zM158.9 25.4zM158.9 25.4zM158.9 25.4zM158.9 25.4zM158.9 25.4zM158.9 25.4zM158.9 25.4zM158.9 25.4zM158.9 25.4zM158.9 25.4zM158.9 25.4zM158.9 25.4zM158.9 25.4zM158.9 25.4z"/></g></g><path d="M110.1 62.5c-.4-.3-1.3-.3-1.8-.5 7.5-2.6 12.5 1.5 16.1 4.2.3.2 1 .9 1.3 1.2-.2.1-.7-.2-.9 0-4.2-3.9-10.4-7.1-14.7-4.9z"/><text transform="translate(35.07 79.433)"><tspan x="0" y="0" class="st0 st1 st2">Innovative Foods </tspan><tspan x="3.5" y="8.4" class="st0 st1 st2">Great Beverages</tspan></text></svg>